{
.appVersion = "3151";
.formatVersion = 3;
customParameters = (
{
name = fsType;
value = (
);
},
{
name = "Use Typo Metrics";
value = 1;
},
{
name = "Write lastChange";
value = 0;
}
);
date = "2017-11-27 12:31:17 +0000";
familyName = "Unica One";
featurePrefixes = (
{
automatic = 1;
code = "languagesystem DFLT dflt;

languagesystem latn dflt;
languagesystem latn AZE;
languagesystem latn CRT;
languagesystem latn KAZ;
languagesystem latn TAT;
languagesystem latn TRK;
languagesystem latn ROM;
languagesystem latn MOL;
languagesystem latn CAT;
";
name = Languagesystems;
}
);
features = (
{
automatic = 1;
code = "feature locl;
feature subs;
feature sinf;
feature sups;
feature numr;
feature dnom;
feature frac;
feature ordn;
feature pnum;
feature tnum;
";
tag = aalt;
},
{
automatic = 1;
code = "lookup ccmp_Other_1 {
	@CombiningTopAccents = [acutecomb brevecomb breveinvertedcomb caroncomb circumflexcomb commaturnedabovecomb dblgravecomb dieresiscomb dotaccentcomb gravecomb hookabovecomb hungarumlautcomb macroncomb ringcomb tildecomb];
	@CombiningNonTopAccents = [brevebelowcomb cedillacomb dieresisbelowcomb dotbelowcomb macronbelowcomb ogonekcomb horncomb slashlongcomb slashshortcomb strokelongcomb strokeshortcomb];
	sub [i j]' @CombiningTopAccents by [idotless jdotless];
	sub [i j]' @CombiningNonTopAccents @CombiningTopAccents by [idotless jdotless];
} ccmp_Other_1;

lookup ccmp_latn_1 {
	sub fi by f i;
	sub fl by f l;
	sub lj by l j;
	sub Lj by L j;
	sub LJ by L J;
	sub nj by n j;
	sub Nj by N j;
	sub NJ by N J;
	sub dzcaron by d zcaron;
	sub Dzcaron by D zcaron;
	sub DZcaron by D Zcaron;
} ccmp_latn_1;

lookup ccmp_latn_2 {
	lookupflag 0;
	sub brevecomb acutecomb by brevecomb_acutecomb;
	sub brevecomb gravecomb by brevecomb_gravecomb;
	sub brevecomb hookabovecomb by brevecomb_hookabovecomb;
	sub brevecomb tildecomb by brevecomb_tildecomb;
	sub circumflexcomb acutecomb by circumflexcomb_acutecomb;
	sub circumflexcomb gravecomb by circumflexcomb_gravecomb;

glyphs = (
{
glyphname = A;
kernLeft = A;
kernRight = A;
layers = (
{
anchors = (
{
name = bottom;
pos = (240,0);
},
{
name = ogonek;
pos = (439,0);
},
{
name = top;
pos = (240,650);
}
);
hints = (
{
horizontal = 1;
place = (150, 60);
place = (150, 60);
type = Stem;
},
{
horizontal = 1;
place = (650, -20);
target = down;
type = TopGhost;
},
{
horizontal = 1;
place = (0, 21);
target = up;
type = BottomGhost;
}
);
layerId = UUID0;
shapes = (
{
closed = 1;
nodes = (
(187,650,l),
(40,0,l),
(110,0,l),
(144,150,l),
(335,150,l),
(369,0,l),
(439,0,l),
(292,650,l)
);
},
{
closed = 1;
nodes = (
(239,572,l),
(321,210,l),
(157,210,l)
);
}
);
width = 479;
}
);
unicode = 65;
},
{
glyphname = AE;
kernLeft = AE;
layers = (
{
anchors = (
{
name = bottom;
pos = (435,0);
},
{
name = top;
pos = (435,650);
}
);
hints = (
{
place = (335, 70);
place = (335, 70);
type = Stem;
},
{
horizontal = 1;
place = (0, 60);
place = (0, 60);
type = Stem;
},
{
horizontal = 1;
place = (260, 60);
place = (260, 60);
type = Stem;
},
{
horizontal = 1;
place = (590, 60);
place = (590, 60);
type = Stem;
}
);
layerId = UUID0;
shapes = (
{
closed = 1;
nodes = (
(237,650,l),
(0,0,l),
(70,0,l),
(165,260,l),
(335,260,l),
(335,0,l),
(630,0,l),
(630,60,l),
(405,60,l),
(405,260,l),
(580,260,l),
(580,320,l),
(405,320,l),
(405,590,l),
(620,590,l),
(620,650,l)
);
},
{
closed = 1;
nodes = (
(285,590,l),
(335,590,l),
(335,320,l),
(187,320,l)
);
}
);
width = 680;
}
);
unicode = 198;
},
{
glyphname = B;
layers = (
{
anchors = (
{
name = bottom;
pos = (253,0);
},
{
name = top;
pos = (253,650);
}
);
hints = (
{
place = (100, 70);
place = (100, 70);
type = Stem;
},
{
place = (350, 70);
place = (350, 70);
type = Stem;
},
{
horizontal = 1;
place = (0, 60);
place = (0, 60);
type = Stem;
},
{
horizontal = 1;
place = (315, 50);
place = (315, 50);
type = Stem;
},
{
horizontal = 1;
place = (590, 60);
place = (590, 60);
type = Stem;
}
);
layerId = UUID0;
shapes = (
{
closed = 1;
nodes = (
(100,650,l),
(100,0,l),
(261,0,ls),
(369,0,o),
(420,53,o),
(420,140,cs),
(420,230,ls),
(420,291,o),
(393,326,o),
(339,341,c),
(387,357,o),
(410,391,o),
(410,450,cs),
(410,510,ls),
(410,596,o),
(357,650,o),
(251,650,cs)
);
},
{
closed = 1;
nodes = (
(350,140,ls),
(350,100,o),
(321,60,o),
(261,60,cs),
(170,60,l),
(170,315,l),
(261,315,ls),
(320,315,o),
(350,269,o),
(350,230,cs)
);
},
{
closed = 1;
nodes = (
(340,450,ls),
(340,410,o),
(311,365,o),
(251,365,cs),
(170,365,l),
(170,590,l),
(251,590,ls),
(310,590,o),
(340,549,o),
(340,510,cs)
);
}
);
width = 505;
}
);
unicode = 66;
},
{
glyphname = C;
layers = (
{
anchors = (
{
name = bottom;
pos = (245,0);
},
{
name = top;
pos = (245,650);
}
);
hints = (
{
place = (85, 70);
place = (85, 70);
type = Stem;
},
{
place = (345, 70);
place = (345, 70);
type = Stem;
},
{
horizontal = 1;
place = (-15, 60);
place = (-15, 60);
type = Stem;
},
{
horizontal = 1;
place = (605, 60);
place = (605, 60);
type = Stem;
}
);
layerId = UUID0;
shapes = (
{
closed = 1;
nodes = (
(345,125,ls),
(345,75,o),
(315,45,o),
(251,45,cs),
(186,45,o),
(155,75,o),
(155,125,cs),
(155,525,ls),
(155,575,o),
(185,605,o),
(249,605,cs),
(314,605,o),
(345,575,o),
(345,525,cs),
(345,430,l),
(415,430,l),
(415,525,ls),
(415,612,o),
(361,665,o),
(249,665,cs),
(137,665,o),
(85,612,o),
(85,525,cs),
(85,125,ls),
(85,38,o),
(139,-15,o),
(251,-15,cs),
(363,-15,o),
(415,38,o),
(415,125,cs),
(415,180,l),
(345,180,l)
);
}
);
width = 490;
}
);
metricLeft = O;
unicode = 67;
},
{
glyphname = D;
kernLeft = H;
kernRight = O;
layers = (
{
anchors = (
{
name = bottom;
pos = (243,0);
},
{
name = center;
pos = (170,325);
},
{
name = top;
pos = (243,650);
}
);
hints = (
{
place = (100, 70);
place = (100, 70);
type = Stem;
},
{
place = (350, 70);
place = (350, 70);
type = Stem;
},
{
horizontal = 1;
place = (0, 60);
place = (0, 60);
type = Stem;
},
{
horizontal = 1;
place = (590, 60);
place = (590, 60);
type = Stem;
}
);
layerId = UUID0;
shapes = (
{
closed = 1;
nodes = (
(261,0,ls),
(369,0,o),
(420,53,o),
(420,140,cs),
(420,510,ls),
(420,596,o),
(367,650,o),
(261,650,cs),
(100,650,l),
(100,0,l)
);
},
{
closed = 1;
nodes = (
(350,140,ls),
(350,100,o),
(321,60,o),
(261,60,cs),
(170,60,l),
(170,590,l),
(261,590,ls),
(320,590,o),
(350,549,o),
(350,510,cs)
);
}
);
width = 505;
}
);
metricLeft = H;
metricRight = O;
unicode = 68;
},
{
glyphname = E;
kernLeft = H;
layers = (
{
anchors = (
{
name = bottom;
pos = (248,0);
},
{
name = ogonek;
pos = (395,0);
},
{
name = top;
pos = (248,650);
},
{
name = topleft;
pos = (20,650);
}
);
hints = (
{
place = (100, 70);
place = (100, 70);
type = Stem;
},
{
horizontal = 1;
place = (0, 60);
place = (0, 60);
type = Stem;
},
{
horizontal = 1;
place = (300, 60);
place = (300, 60);
type = Stem;
},
{
horizontal = 1;
place = (590, 60);
place = (590, 60);
type = Stem;
}
);
layerId = UUID0;
shapes = (
{
closed = 1;
nodes = (
(395,0,l),
(395,60,l),
(170,60,l),
(170,300,l),
(345,300,l),
(345,360,l),
(170,360,l),
(170,590,l),
(385,590,l),
(385,650,l),
(100,650,l),
(100,0,l)
);
}
);
width = 445;
}
);
unicode = 69;
},
{
glyphname = F;
kernLeft = H;
kernRight = F;
layers = (
{
anchors = (
{
name = bottom;
pos = (208,0);
},
{
name = top;
pos = (208,650);
}
);
hints = (
{
place = (100, 70);
place = (100, 70);
type = Stem;
},
{
horizontal = 1;
place = (300, 60);
place = (300, 60);
type = Stem;
},
{
horizontal = 1;
place = (590, 60);
place = (590, 60);
type = Stem;
},
{
horizontal = 1;
place = (0, 21);
target = up;
type = BottomGhost;
}
);
layerId = UUID0;
shapes = (
{
closed = 1;
nodes = (
(170,0,l),
(170,300,l),
(335,300,l),
(335,360,l),
(170,360,l),
(170,590,l),
(375,590,l),
(375,650,l),
(100,650,l),
(100,0,l)
);
}
);
width = 415;
}
);
metricLeft = H;
unicode = 70;
},
{
glyphname = G;
layers = (
{
anchors = (
{
name = bottom;
pos = (250,0);
},
{
name = top;
pos = (250,650);
}
);
hints = (
{
place = (85, 70);
place = (85, 70);
type = Stem;
},
{
place = (345, 70);
place = (345, 70);
type = Stem;
},
{
horizontal = 1;
place = (-15, 60);
place = (-15, 60);
type = Stem;
},
{
horizontal = 1;
place = (270, 60);
place = (270, 60);
type = Stem;
},
{
horizontal = 1;
place = (605, 60);
place = (605, 60);
type = Stem;
},
{
horizontal = 1;
place = (0, 21);
target = up;
type = BottomGhost;
}
);
layerId = UUID0;
shapes = (
{
closed = 1;
nodes = (
(233,270,l),
(345,270,l),
(345,145,ls),
(345,105,o),
(290,45,o),
(229,45,cs),
(169,45,o),
(155,80,o),
(155,125,cs),
(155,525,ls),
(155,575,o),
(185,605,o),
(249,605,cs),
(314,605,o),
(345,575,o),
(345,525,cs),
(345,470,l),
(415,470,l),
(415,525,ls),
(415,612,o),
(361,665,o),
(249,665,cs),
(137,665,o),
(85,612,o),
(85,525,cs),
(85,125,ls),
(85,46,o),
(122,-15,o),
(230,-15,cs),
(285,-15,o),
(332,18,o),
(359,64,c),
(385,0,l),
(415,0,l),
(415,330,l),
(233,330,l)
);
}
);
width = 500;
}
);
metricLeft = O;
metricRight = O;
unicode = 71;
},
{
glyphname = H;
kernLeft = H;
layers = (
{
anchors = (
{
name = bottom;
pos = (269,0);
},
{
name = center;
pos = (269,503);
},
{
name = top;
pos = (269,650);
},
{
name = topleft;
pos = (20,650);
}
);
hints = (
{
place = (100, 70);
place = (100, 70);
type = Stem;
},
{
place = (367, 70);
place = (367, 70);
type = Stem;
},
{
horizontal = 1;
place = (300, 60);
place = (300, 60);
type = Stem;
},
{
horizontal = 1;
place = (0, 21);
target = up;
type = BottomGhost;
},
{
horizontal = 1;
place = (650, -20);
target = down;
type = TopGhost;
}
);
layerId = UUID0;
shapes = (
{
closed = 1;
nodes = (
(170,0,l),
(170,300,l),
(367,300,l),
(367,0,l),
(437,0,l),
(437,650,l),
(367,650,l),
(367,360,l),
(170,360,l),
(170,650,l),
(100,650,l),
(100,0,l)
);
}
);
width = 537;
}
);
unicode = 72;
},
{
glyphname = I;
layers = (
{
anchors = (
{
name = bottom;
pos = (155,0);
},
{
name = ogonek;
pos = (240,0);
},
{
name = top;
pos = (155,650);
},
{
name = topleft;
pos = (20,650);
}
);
hints = (
{
place = (120, 70);
place = (120, 70);
type = Stem;
},
{
horizontal = 1;
place = (0, 60);
place = (0, 60);
type = Stem;
},
{
horizontal = 1;
place = (590, 60);
place = (590, 60);
type = Stem;
}
);
layerId = UUID0;
shapes = (
{
closed = 1;
nodes = (
(240,60,l),
(190,60,l),
(190,590,l),
(240,590,l),
(240,650,l),
(70,650,l),
(70,590,l),
(120,590,l),
(120,60,l),
(70,60,l),
(70,0,l),
(240,0,l)
);
}
);
width = 310;
}
);
unicode = 73;
},
{
glyphname = J;
kernLeft = J;
layers = (
{
anchors = (
{
name = bottom;
pos = (190,0);
},
{
name = top;
pos = (195,650);
}
);
hints = (
{
place = (20, 70);
place = (20, 70);
type = Stem;
},
{
place = (220, 70);
place = (220, 70);
type = Stem;
},
{
horizontal = 1;
place = (-15, 60);
place = (-15, 60);
type = Stem;
},
{
horizontal = 1;
place = (590, 60);
place = (590, 60);
type = Stem;
}
);
layerId = UUID0;
shapes = (
{
closed = 1;
nodes = (
(90,650,l),
(90,590,l),
(220,590,l),
(220,111,ls),
(220,65,o),
(195,45,o),
(154,45,cs),
(114,45,o),
(90,65,o),
(90,111,cs),
(90,180,l),
(20,180,l),
(20,115,ls),
(20,28,o),
(71,-15,o),
(154,-15,cs),
(237,-15,o),
(290,28,o),
(290,115,cs),
(290,650,l)
);
}
);
width = 380;
}
);
unicode = 74;
},
{
glyphname = K;
kernLeft = H;
layers = (
{
anchors = (
{
name = bottom;
pos = (248,0);
},
{
name = top;
pos = (248,650);
}
);
hints = (
{
place = (101, 70);
place = (101, 70);
type = Stem;
},
{
horizontal = 1;
place = (0, 21);
target = up;
type = BottomGhost;
},
{
horizontal = 1;
place = (650, -20);
target = down;
type = TopGhost;
}
);
layerId = UUID0;
shapes = (
{
closed = 1;
nodes = (
(171,0,l),
(171,250,l),
(204,303,l),
(358,0,l),
(435,0,l),
(246,370,l),
(423,650,l),
(345,650,l),
(171,374,l),
(171,650,l),
(101,650,l),
(101,0,l)
);
}
);
width = 455;
}
);
unicode = 75;
},
{
glyphname = L;
kernLeft = L;
kernRight = L;
layers = (
{
anchors = (
{
name = bottom;
pos = (234,0);
},
{
name = center;
pos = (170,325);
},
{
name = top;
pos = (135,650);
},
{
name = topright;
pos = (283,530);
}
);
guides = (
{
angle = 270;
pos = (353,30);
}
);
hints = (
{
place = (100, 70);
place = (100, 70);
type = Stem;
},
{
horizontal = 1;
place = (0, 60);
place = (0, 60);
type = Stem;
},
{
horizontal = 1;
place = (650, -20);
target = down;
type = TopGhost;
}
);
layerId = UUID0;
shapes = (
{
closed = 1;
nodes = (
(100,0,l),
(353,0,l),
(353,60,l),
(170,60,l),
(170,650,l),
(100,650,l)
);
}
);
width = 373;
}
);
metricLeft = H;
unicode = 76;
},
{
glyphname = M;
kernLeft = H;
layers = (
{
anchors = (
{
name = bottom;
pos = (320,0);
},
{
name = top;
pos = (320,650);
}
);
guides = (
{
pos = (15,490);
showMeasurement = 1;
}
);
hints = (
{
horizontal = 1;
origin = (0,15);
target = up;
type = BottomGhost;
},
{
horizontal = 1;
origin = (0,14);
target = down;
type = TopGhost;
},
{
origin = (0,15);
target = (0,0);
type = Stem;
},
{
origin = (0,7);
target = (0,8);
type = Stem;
}
);
layerId = UUID0;
shapes = (
{
closed = 1;
nodes = (
(170,0,l),
(170,560,l),
(164,559,l),
(287,120,l),
(352,120,l),
(475,559,l),
(469,560,l),
(469,0,l),
(539,0,l),
(539,650,l),
(441,650,l),
(305,159,l),
(334,159,l),
(198,650,l),
(100,650,l),
(100,0,l)
);
}
);
width = 639;
}
);
metricLeft = H;
metricRight = H;
unicode = 77;
},
{
glyphname = N;
kernLeft = H;
layers = (
{
anchors = (
{
name = bottom;
pos = (279,0);
},
{
name = top;
pos = (279,650);
}
);
hints = (
{
place = (100, 70);
place = (100, 70);
type = Stem;
},
{
place = (387, 70);
place = (387, 70);
type = Stem;
},
{
horizontal = 1;
place = (0, 21);
target = up;
type = BottomGhost;
},
{
horizontal = 1;
place = (650, -20);
target = down;
type = TopGhost;
}
);
layerId = UUID0;
shapes = (
{
closed = 1;
nodes = (
(170,0,l),
(170,522,l),
(161,520,l),
(390,0,l),
(457,0,l),
(457,650,l),
(387,650,l),
(387,128,l),
(396,130,l),
(167,650,l),
(100,650,l),
(100,0,l)
);
}
);
width = 557;
}
);
metricLeft = H;
metricRight = H;
unicode = 78;
},
{
glyphname = Eng;
kernLeft = H;
layers = (
{
hints = (
{
horizontal = 1;
origin = (0,16);
target = (0,7);
type = Stem;
},
{
horizontal = 1;
origin = (0,26);
target = up;
type = BottomGhost;
},
{
horizontal = 1;
origin = (0,25);
target = down;
type = TopGhost;
},
{
origin = (0,26);
target = (0,0);
type = Stem;
},
{
origin = (0,4);
target = (0,19);
type = Stem;
},
{
origin = (0,13);
target = (0,10);
type = Stem;
}
);
layerId = UUID0;
shapes = (
{
closed = 1;
nodes = (
(170,0,l),
(170,522,l),
(161,520,l),
(387,0,l),
(387,-139,ls),
(387,-185,o),
(362,-205,o),
(321,-205,cs),
(281,-205,o),
(257,-185,o),
(257,-139,cs),
(257,-110,l),
(187,-110,l),
(187,-135,ls),
(187,-222,o),
(238,-265,o),
(321,-265,cs),
(404,-265,o),
(457,-222,o),
(457,-135,cs),
(457,650,l),
(387,650,l),
(387,128,l),
(394,130,l),
(168,650,l),
(100,650,l),
(100,0,l)
);
}
);
width = 557;
}
);
metricLeft = N;
metricRight = N;
unicode = 330;
},
{
glyphname = O;
layers = (
{
anchors = (
{
name = bottom;
pos = (255,0);
},
{
name = center;
pos = (255,325);
},
{
name = ogonek;
pos = (332,0);
},
{
name = top;
pos = (255,650);
},
{
name = topleft;
pos = (20,650);
},
{
name = topright;
pos = (344,650);
}
);
hints = (
{
place = (85, 70);
place = (85, 70);
type = Stem;
},
{
place = (355, 70);
place = (355, 70);
type = Stem;
},
{
horizontal = 1;
place = (-15, 60);
place = (-15, 60);
type = Stem;
},
{
horizontal = 1;
place = (605, 60);
place = (605, 60);
type = Stem;
}
);
layerId = UUID0;
shapes = (
{
closed = 1;
nodes = (
(425,525,ls),
(425,612,o),
(369,665,o),
(254,665,cs),
(139,665,o),
(85,612,o),
(85,525,cs),
(85,125,ls),
(85,38,o),
(141,-15,o),
(256,-15,cs),
(371,-15,o),
(425,38,o),
(425,125,cs)
);
},
{
closed = 1;
nodes = (
(355,125,ls),
(355,74,o),
(323,45,o),
(256,45,cs),
(188,45,o),
(155,75,o),
(155,125,cs),
(155,525,ls),
(155,575,o),
(187,605,o),
(254,605,cs),
(322,605,o),
(355,575,o),
(355,525,cs)
);
}
);
width = 510;
}
);
unicode = 79;
},
{
glyphname = OE;
layers = (
{
anchors = (
{
name = bottom;
pos = (350,0);
},
{
name = top;
pos = (350,650);
}
);
hints = (
{
place = (85, 70);
place = (85, 70);
type = Stem;
},
{
place = (355, 70);
place = (355, 70);
type = Stem;
},
{
horizontal = 1;
place = (-15, 60);
place = (-15, 60);
type = Stem;
},
{
horizontal = 1;
place = (0, 45);
place = (0, 45);
type = Stem;
},
{
horizontal = 1;
place = (300, 60);
place = (300, 60);
type = Stem;
},
{
horizontal = 1;
place = (590, 60);
place = (590, 60);
type = Stem;
},
{
horizontal = 1;
place = (605, 45);
place = (605, 45);
type = Stem;
},
{
horizontal = 1;
place = (605, 60);
place = (605, 60);
type = Stem;
},
{
horizontal = 1;
place = (0, 60);
place = (0, 60);
type = Stem;
}
);
layerId = UUID0;
shapes = (
{
closed = 1;
nodes = (
(425,525,ls),
(425,549,o),
(420,571,o),
(411,590,c),
(640,590,l),
(640,650,l),
(345,650,l),
(320,660,o),
(290,665,o),
(254,665,cs),
(139,665,o),
(85,612,o),
(85,525,cs),
(85,125,ls),
(85,38,o),
(141,-15,o),
(256,-15,cs),
(292,-15,o),
(322,-10,o),
(346,0,c),
(650,0,l),
(650,60,l),
(411,60,l),
(420,78,o),
(425,100,o),
(425,125,cs),
(425,300,l),
(600,300,l),
(600,360,l),
(425,360,l)
);
},
{
closed = 1;
nodes = (
(355,125,ls),
(355,74,o),
(323,45,o),
(256,45,cs),
(188,45,o),
(155,75,o),
(155,125,cs),
(155,525,ls),
(155,575,o),
(187,605,o),
(254,605,cs),
(322,605,o),
(355,575,o),
(355,525,cs)
);
}
);
width = 700;
}
);
metricLeft = O;
metricRight = E;
unicode = 338;
},
{
glyphname = P;
kernLeft = H;
kernRight = P;
layers = (
{
anchors = (
{
name = bottom;
pos = (240,0);
},
{
name = top;
pos = (240,650);
}
);
hints = (
{
horizontal = 1;
origin = (0,11);
target = up;
type = BottomGhost;
},
{
horizontal = 1;
origin = (0,1);
target = (1,4);
type = Stem;
},
{
horizontal = 1;
origin = (0,10);
target = (1,5);
type = Stem;
},
{
origin = (0,11);
target = (0,0);
type = Stem;
},
{
origin = (1,0);
target = (0,5);
type = Stem;
}
);
layerId = UUID0;
shapes = (
{
closed = 1;
nodes = (
(170,0,l),
(170,200,l),
(251,200,ls),
(359,200,o),
(410,253,o),
(410,340,cs),
(410,510,ls),
(410,596,o),
(357,650,o),
(251,650,cs),
(100,650,l),
(100,0,l)
);
},
{
closed = 1;
nodes = (
(340,340,ls),
(340,290,o),
(311,260,o),
(251,260,cs),
(170,260,l),
(170,590,l),
(251,590,ls),
(310,590,o),
(340,559,o),
(340,510,cs)
);
}
);
width = 470;
}
);
metricLeft = H;
unicode = 80;
},
{
glyphname = Thorn;
layers = (
{
hints = (
{
place = (90, 70);
place = (90, 70);
type = Stem;
},
{
place = (330, 70);
place = (330, 70);
type = Stem;
},
{
horizontal = 1;
place = (100, 60);
place = (100, 60);
type = Stem;
},
{
horizontal = 1;
place = (490, 60);
place = (490, 60);
type = Stem;
},
{
horizontal = 1;
place = (0, 21);
target = up;
type = BottomGhost;
},
{
horizontal = 1;
place = (650, -20);
target = down;
type = TopGhost;
}
);
layerId = UUID0;
shapes = (
{
closed = 1;
nodes = (
(340,240,ls),
(340,190,o),
(311,160,o),
(251,160,cs),
(170,160,l),
(170,100,l),
(251,100,ls),
(359,100,o),
(410,153,o),
(410,240,cs),
(410,410,ls),
(410,496,o),
(357,550,o),
(251,550,cs),
(170,550,l),
(170,490,l),
(251,490,ls),
(310,490,o),
(340,459,o),
(340,410,cs)
);
},
{
closed = 1;
nodes = (
(170,0,l),
(170,650,l),
(100,650,l),
(100,0,l)
);
}
);
width = 470;
}
);
metricLeft = H;
unicode = 222;
},
{
glyphname = Q;
layers = (
{
anchors = (
{
name = bottom;
pos = (255,0);
},
{
name = top;
pos = (255,650);
}
);
hints = (
{
horizontal = 1;
origin = (0,13);
target = (1,3);
type = Stem;
},
{
horizontal = 1;
origin = (0,3);
target = (1,10);
type = Stem;
},
{
origin = (0,7);
target = (1,6);
type = Stem;
},
{
origin = (1,0);
target = (0,16);
type = Stem;
}
);
layerId = UUID0;
shapes = (
{
closed = 1;
nodes = (
(425,525,ls),
(425,612,o),
(369,665,o),
(254,665,cs),
(139,665,o),
(85,612,o),
(85,525,cs),
(85,125,ls),
(85,44,o),
(132,-6,o),
(230,-14,c),
(260,-142,l),
(320,-142,l),
(290,-13,l),
(381,-3,o),
(425,47,o),
(425,125,cs)
);
},
{
closed = 1;
nodes = (
(355,125,ls),
(355,74,o),
(323,45,o),
(256,45,cs),
(188,45,o),
(155,75,o),
(155,125,cs),
(155,525,ls),
(155,575,o),
(187,605,o),
(254,605,cs),
(322,605,o),
(355,575,o),
(355,525,cs)
);
}
);
width = 510;
}
);
metricLeft = O;
metricRight = O;
unicode = 81;
},
{
glyphname = R;
kernLeft = H;
layers = (
{
anchors = (
{
name = bottom;
pos = (263,0);
},
{
name = top;
pos = (243,650);
}
);
hints = (
{
place = (100, 70);
place = (100, 70);
type = Stem;
},
{
place = (340, 70);
place = (340, 70);
type = Stem;
},
{
horizontal = 1;
place = (230, 60);
place = (230, 60);
type = Stem;
},
{
horizontal = 1;
place = (590, 60);
place = (590, 60);
type = Stem;
},
{
horizontal = 1;
place = (0, 21);
target = up;
type = BottomGhost;
}
);
layerId = UUID0;
shapes = (
{
closed = 1;
nodes = (
(170,0,l),
(170,230,l),
(251,230,l),
(368,0,l),
(445,0,l),
(322,240,l),
(381,259,o),
(410,305,o),
(410,370,cs),
(410,510,ls),
(410,596,o),
(357,650,o),
(251,650,cs),
(100,650,l),
(100,0,l)
);
},
{
closed = 1;
nodes = (
(340,370,ls),
(340,320,o),
(311,290,o),
(251,290,cs),
(170,290,l),
(170,590,l),
(251,590,ls),
(310,590,o),
(340,559,o),
(340,510,cs)
);
}
);
width = 485;
}
);
metricLeft = H;
unicode = 82;
},
{
glyphname = S;
layers = (
{
anchors = (
{
name = bottom;
pos = (249,0);
},
{
name = top;
pos = (249,650);
}
);
hints = (
{
horizontal = 1;
origin = (0,37);
target = (0,28);
type = Stem;
},
{
horizontal = 1;
origin = (0,15);
target = (0,6);
type = Stem;
},
{
origin = (0,34);
target = (0,31);
type = Stem;
},
{
origin = (0,25);
target = (0,40);
type = Stem;
},
{
origin = (0,10);
target = (0,11);
type = Stem;
}
);
layerId = UUID0;
shapes = (
{
closed = 1;
nodes = (
(188,433,ls),
(154,464,o),
(150,487,o),
(150,529,cs),
(150,575,o),
(180,605,o),
(244,605,cs),
(308,605,o),
(338,575,o),
(338,529,cs),
(338,440,l),
(408,440,l),
(408,525,ls),
(408,612,o),
(359,665,o),
(247,665,cs),
(133,665,o),
(80,612,o),
(80,525,cs),
(80,467,o),
(92,432,o),
(134,390,cs),
(310,218,ls),
(343,186,o),
(348,162,o),
(348,121,cs),
(348,75,o),
(316,45,o),
(249,45,cs),
(182,45,o),
(150,75,o),
(150,121,cs),
(150,210,l),
(80,210,l),
(80,125,ls),
(80,38,o),
(131,-15,o),
(249,-15,cs),
(367,-15,o),
(418,38,o),
(418,125,cs),
(418,184,o),
(407,218,o),
(367,261,cs)
);
}
);
width = 498;
}
);
unicode = 83;
},
{
glyphname = Germandbls;
layers = (
{
hints = (
{
place = (100, 70);
place = (100, 70);
type = Stem;
},
{
place = (368, 70);
place = (368, 70);
type = Stem;
},
{
horizontal = 1;
place = (0, 60);
place = (0, 60);
type = Stem;
},
{
horizontal = 1;
place = (300, 50);
place = (300, 50);
type = Stem;
},
{
horizontal = 1;
place = (605, 60);
place = (605, 60);
type = Stem;
}
);
layerId = UUID0;
shapes = (
{
closed = 1;
nodes = (
(220,0,l),
(269,0,ls),
(387,0,o),
(438,53,o),
(438,140,cs),
(438,215,ls),
(438,301,o),
(385,335,o),
(279,335,cs),
(248,335,l),
(248,300,l),
(279,300,ls),
(338,300,o),
(368,254,o),
(368,215,cs),
(368,136,ls),
(368,90,o),
(336,60,o),
(269,60,cs),
(220,60,l)
);
},
{
closed = 1;
nodes = (
(428,525,ls),
(428,612,o),
(375,665,o),
(261,665,cs),
(149,665,o),
(100,612,o),
(100,525,cs),
(100,0,l),
(170,0,l),
(170,529,ls),
(170,575,o),
(200,605,o),
(264,605,cs),
(328,605,o),
(358,575,o),
(358,529,cs),
(358,435,ls),
(358,395,o),
(329,350,o),
(269,350,cs),
(248,350,l),
(248,315,l),
(269,315,ls),
(377,315,o),
(428,348,o),
(428,435,cs)
);
}
);
width = 523;
}
);
unicode = 7838;
},
{
glyphname = T;
kernLeft = T;
kernRight = T;
layers = (
{
anchors = (
{
name = bottom;
pos = (195,0);
},
{
name = center;
pos = (195,325);
},
{
name = top;
pos = (195,650);
}
);
hints = (
{
place = (160, 70);
place = (160, 70);
type = Stem;
},
{
horizontal = 1;
place = (590, 60);
place = (590, 60);
type = Stem;
},
{
horizontal = 1;
place = (0, 21);
target = up;
type = BottomGhost;
}
);
layerId = UUID0;
shapes = (
{
closed = 1;
nodes = (
(360,650,l),
(30,650,l),
(30,590,l),
(160,590,l),
(160,0,l),
(230,0,l),
(230,590,l),
(360,590,l)
);
}
);
width = 390;
}
);
unicode = 84;
},
{
glyphname = U;
layers = (
{
anchors = (
{
name = bottom;
pos = (260,0);
},
{
name = ogonek;
pos = (332,0);
},
{
name = top;
pos = (260,650);
},
{
name = topright;
pos = (395,650);
}
);
hints = (
{
place = (90, 70);
place = (90, 70);
type = Stem;
},
{
place = (360, 70);
place = (360, 70);
type = Stem;
},
{
horizontal = 1;
place = (-15, 60);
place = (-15, 60);
type = Stem;
},
{
horizontal = 1;
place = (650, -20);
target = down;
type = TopGhost;
}
);
layerId = UUID0;
shapes = (
{
closed = 1;
nodes = (
(360,125,ls),
(360,75,o),
(328,45,o),
(261,45,cs),
(193,45,o),
(160,75,o),
(160,125,cs),
(160,650,l),
(90,650,l),
(90,125,ls),
(90,38,o),
(146,-15,o),
(261,-15,cs),
(376,-15,o),
(430,38,o),
(430,125,cs),
(430,650,l),
(360,650,l)
);
}
);
width = 520;
}
);
unicode = 85;
},
{
glyphname = V;
kernLeft = V;
kernRight = V;
layers = (
{
anchors = (
{
name = bottom;
pos = (240,0);
},
{
name = top;
pos = (240,650);
}
);
hints = (
{
horizontal = 1;
place = (0, 21);
target = up;
type = BottomGhost;
},
{
horizontal = 1;
place = (650, -20);
target = down;
type = TopGhost;
}
);
layerId = UUID0;
shapes = (
{
closed = 1;
nodes = (
(292,0,l),
(439,650,l),
(369,650,l),
(239,77,l),
(110,650,l),
(40,650,l),
(187,0,l)
);
}
);
width = 479;
}
);
unicode = 86;
},
{
glyphname = W;
kernLeft = V;
kernRight = V;
layers = (
{
anchors = (
{
name = bottom;
pos = (342,0);
},
{
name = top;
pos = (342,650);
}
);
hints = (
{
horizontal = 1;
place = (0, 21);
target = up;
type = BottomGhost;
},
{
horizontal = 1;
place = (650, -20);
target = down;
type = TopGhost;
}
);
layerId = UUID0;
shapes = (
{
closed = 1;
nodes = (
(236,0,l),
(345,540,l),
(337,540,l),
(447,0,l),
(541,0,l),
(638,650,l),
(568,650,l),
(483,80,l),
(490,80,l),
(374,650,l),
(308,650,l),
(193,80,l),
(200,80,l),
(115,650,l),
(45,650,l),
(142,0,l)
);
}
);
width = 683;
}
);
unicode = 87;
},
{
glyphname = X;
layers = (
{
anchors = (
{
name = bottom;
pos = (226,0);
},
{
name = top;
pos = (226,650);
}
);
hints = (
{
horizontal = 1;
place = (0, 21);
target = up;
type = BottomGhost;
},
{
horizontal = 1;
place = (650, -20);
target = down;
type = TopGhost;
}
);
layerId = UUID0;
shapes = (
{
closed = 1;
nodes = (
(412,0,l),
(267,326,l),
(412,650,l),
(339,650,l),
(230,408,l),
(123,650,l),
(50,650,l),
(190,335,l),
(40,0,l),
(113,0,l),
(226,253,l),
(339,0,l)
);
}
);
width = 452;
}
);
unicode = 88;
},
{
glyphname = Y;
kernLeft = Y;
kernRight = Y;
layers = (
{
anchors = (
{
name = bottom;
pos = (225,0);
},
{
name = top;
pos = (225,650);
},
{
name = topleft;
pos = (20,650);
}
);
hints = (
{
place = (190, 70);
place = (190, 70);
type = Stem;
},
{
horizontal = 1;
place = (0, 21);
target = up;
type = BottomGhost;
},
{
horizontal = 1;
place = (650, -20);
target = down;
type = TopGhost;
}
);
layerId = UUID0;
shapes = (
{
closed = 1;
nodes = (
(260,0,l),
(260,232,l),
(425,650,l),
(351,650,l),
(225,315,l),
(99,650,l),
(25,650,l),
(190,233,l),
(190,0,l)
);
}
);
width = 450;
}
);
unicode = 89;
},
{
glyphname = Z;
layers = (
{
anchors = (
{
name = bottom;
pos = (209,0);
},
{
name = top;
pos = (209,650);
}
);
hints = (
{
horizontal = 1;
place = (0, 60);
place = (0, 60);
type = Stem;
},
{
horizontal = 1;
place = (590, 60);
place = (590, 60);
type = Stem;
}
);
layerId = UUID0;
shapes = (
{
closed = 1;
nodes = (
(50,590,l),
(304,590,l),
(35,60,l),
(35,0,l),
(372,0,l),
(372,60,l),
(108,60,l),
(377,590,l),
(377,650,l),
(50,650,l)
);
}
);
width = 417;
}
);
unicode = 90;
},
{
glyphname = a;
layers = (
{
anchors = (
{
name = bottom;
pos = (250,0);
},
{
name = ogonek;
pos = (410,0);
},
{
name = top;
pos = (250,650);
}
);
hints = (
{
horizontal = 1;
origin = (0,29);
target = up;
type = BottomGhost;
},
{
horizontal = 1;
origin = (1,10);
target = (0,18);
type = Stem;
},
{
horizontal = 1;
origin = (0,4);
target = (0,13);
type = Stem;
},
{
horizontal = 1;
origin = (0,25);
target = (1,3);
type = Stem;
},
{
origin = (0,8);
target = (0,9);
type = Stem;
},
{
origin = (1,0);
target = (0,0);
type = Stem;
},
{
origin = (0,22);
target = (1,6);
type = Stem;
}
);
layerId = UUID0;
shapes = (
{
closed = 1;
nodes = (
(410,0,l),
(410,525,ls),
(410,613,o),
(357,665,o),
(249,665,cs),
(141,665,o),
(90,613,o),
(90,525,cs),
(90,470,l),
(160,470,l),
(160,529,ls),
(160,576,o),
(189,605,o),
(249,605,cs),
(310,605,o),
(340,576,o),
(340,529,cs),
(340,365,l),
(224,365,ls),
(117,365,o),
(80,304,o),
(80,225,cs),
(80,125,ls),
(80,46,o),
(117,-15,o),
(224,-15,cs),
(280,-15,o),
(327,17,o),
(354,64,c),
(380,0,l)
);
},
{
closed = 1;
nodes = (
(340,142,l),
(337,102,o),
(283,45,o),
(224,45,cs),
(164,45,o),
(150,80,o),
(150,125,cs),
(150,225,ls),
(150,270,o),
(164,305,o),
(224,305,cs),
(340,305,l)
);
}
);
width = 500;
}
);
unicode = 97;
},
{
glyphname = ae;
layers = (
{
anchors = (
{
name = bottom;
pos = (378,0);
},
{
name = top;
pos = (378,650);
}
);
hints = (
{
place = (90, 70);
place = (90, 70);
type = Stem;
},
{
place = (340, 70);
place = (340, 70);
type = Stem;
},
{
place = (600, 70);
place = (600, 70);
type = Stem;
},
{
horizontal = 1;
place = (-15, 60);
place = (-15, 60);
type = Stem;
},
{
horizontal = 1;
place = (305, 60);
place = (305, 60);
type = Stem;
},
{
horizontal = 1;
place = (605, 60);
place = (605, 60);
type = Stem;
},
{
horizontal = 1;
origin = (0,22);
type = TTDelta;
},
{
horizontal = 1;
origin = (0,23);
type = TTDelta;
}
);
layerId = UUID0;
shapes = (
{
closed = 1;
nodes = (
(600,125,ls),
(600,75,o),
(570,45,o),
(506,45,cs),
(441,45,o),
(410,75,o),
(410,125,cs),
(410,305,l),
(670,305,l),
(670,525,ls),
(670,612,o),
(616,665,o),
(504,665,cs),
(444,665,o),
(402,650,o),
(375,623,c),
(348,650,o),
(306,665,o),
(249,665,cs),
(141,665,o),
(90,612,o),
(90,525,cs),
(90,470,l),
(160,470,l),
(160,529,ls),
(160,575,o),
(189,605,o),
(249,605,cs),
(309,605,o),
(340,576,o),
(340,531,cs),
(340,365,l),
(224,365,ls),
(117,365,o),
(80,304,o),
(80,225,cs),
(80,125,ls),
(80,46,o),
(117,-15,o),
(224,-15,cs),
(278,-15,o),
(324,16,o),
(352,61,c),
(374,13,o),
(425,-15,o),
(506,-15,cs),
(618,-15,o),
(670,38,o),
(670,125,cs),
(670,180,l),
(600,180,l)
);
},
{
closed = 1;
nodes = (
(340,145,ls),
(340,105,o),
(285,45,o),
(224,45,cs),
(164,45,o),
(150,80,o),
(150,125,cs),
(150,225,ls),
(150,270,o),
(164,305,o),
(224,305,cs),
(340,305,l)
);
},
{
closed = 1;
nodes = (
(410,531,ls),
(410,577,o),
(443,605,o),
(504,605,cs),
(569,605,o),
(600,575,o),
(600,525,cs),
(600,365,l),
(410,365,l)
);
}
);
width = 755;
}
);
unicode = 230;
},
{
glyphname = b;
layers = (
{
anchors = (
{
name = bottom;
pos = (253,0);
},
{
name = top;
pos = (253,650);
}
);
hints = (
{
place = (100, 70);
place = (100, 70);
type = Stem;
},
{
place = (350, 70);
place = (350, 70);
type = Stem;
},
{
horizontal = 1;
place = (0, 60);
place = (0, 60);
type = Stem;
},
{
horizontal = 1;
place = (315, 50);
place = (315, 50);
type = Stem;
},
{
horizontal = 1;
place = (590, 60);
place = (590, 60);
type = Stem;
}
);
layerId = UUID0;
shapes = (
{
closed = 1;
nodes = (
(100,650,l),
(100,0,l),
(261,0,ls),
(369,0,o),
(420,53,o),
(420,140,cs),
(420,230,ls),
(420,291,o),
(393,326,o),
(339,341,c),
(387,357,o),
(410,391,o),
(410,450,cs),
(410,510,ls),
(410,596,o),
(357,650,o),
(251,650,cs)
);
},
{
closed = 1;
nodes = (
(350,140,ls),
(350,90,o),
(321,60,o),
(261,60,cs),
(170,60,l),
(170,315,l),
(261,315,ls),
(320,315,o),
(350,279,o),
(350,230,cs)
);
},
{
closed = 1;
nodes = (
(340,450,ls),
(340,400,o),
(311,365,o),
(251,365,cs),
(170,365,l),
(170,590,l),
(251,590,ls),
(310,590,o),
(340,559,o),
(340,510,cs)
);
}
);
width = 505;
}
);
unicode = 98;
},
{
glyphname = c;
layers = (
{
anchors = (
{
name = bottom;
pos = (245,0);
},
{
name = top;
pos = (245,650);
}
);
hints = (
{
place = (85, 70);
place = (85, 70);
type = Stem;
},
{
place = (345, 70);
place = (345, 70);
type = Stem;
},
{
horizontal = 1;
place = (-15, 60);
place = (-15, 60);
type = Stem;
},
{
horizontal = 1;
place = (605, 60);
place = (605, 60);
type = Stem;
}
);
layerId = UUID0;
shapes = (
{
closed = 1;
nodes = (
(345,125,ls),
(345,75,o),
(315,45,o),
(251,45,cs),
(186,45,o),
(155,75,o),
(155,125,cs),
(155,525,ls),
(155,575,o),
(185,605,o),
(249,605,cs),
(314,605,o),
(345,575,o),
(345,525,cs),
(345,430,l),
(415,430,l),
(415,525,ls),
(415,612,o),
(361,665,o),
(249,665,cs),
(137,665,o),
(85,612,o),
(85,525,cs),
(85,125,ls),
(85,38,o),
(139,-15,o),
(251,-15,cs),
(363,-15,o),
(415,38,o),
(415,125,cs),
(415,180,l),
(345,180,l)
);
}
);
width = 490;
}
);
unicode = 99;
},
{
glyphname = d;
layers = (
{
anchors = (
{
name = bottom;
pos = (253,0);
},
{
name = center;
pos = (170,325);
},
{
name = top;
pos = (253,650);
},
{
name = topright;
pos = (485,650);
}
);
hints = (
{
place = (100, 70);
place = (100, 70);
type = Stem;
},
{
place = (350, 70);
place = (350, 70);
type = Stem;
},
{
horizontal = 1;
place = (0, 60);
place = (0, 60);
type = Stem;
},
{
horizontal = 1;
place = (590, 60);
place = (590, 60);
type = Stem;
}
);
layerId = UUID0;
shapes = (
{
closed = 1;
nodes = (
(261,0,ls),
(369,0,o),
(420,53,o),
(420,140,cs),
(420,510,ls),
(420,596,o),
(367,650,o),
(261,650,cs),
(100,650,l),
(100,0,l)
);
},
{
closed = 1;
nodes = (
(350,140,ls),
(350,90,o),
(321,60,o),
(261,60,cs),
(170,60,l),
(170,590,l),
(261,590,ls),
(320,590,o),
(350,559,o),
(350,510,cs)
);
}
);
width = 505;
}
);
unicode = 100;
},
{
glyphname = e;
layers = (
{
anchors = (
{
name = bottom;
pos = (250,0);
},
{
name = ogonek;
pos = (321,0);
},
{
name = top;
pos = (250,650);
}
);
hints = (
{
place = (85, 70);
place = (85, 70);
type = Stem;
},
{
place = (345, 70);
place = (345, 70);
type = Stem;
},
{
horizontal = 1;
place = (-15, 60);
place = (-15, 60);
type = Stem;
},
{
horizontal = 1;
place = (305, 60);
place = (305, 60);
type = Stem;
},
{
horizontal = 1;
place = (605, 60);
place = (605, 60);
type = Stem;
}
);
layerId = UUID0;
shapes = (
{
closed = 1;
nodes = (
(345,125,ls),
(345,75,o),
(315,45,o),
(251,45,cs),
(186,45,o),
(155,75,o),
(155,125,cs),
(155,305,l),
(415,305,l),
(415,525,ls),
(415,612,o),
(361,665,o),
(249,665,cs),
(137,665,o),
(85,612,o),
(85,525,cs),
(85,125,ls),
(85,38,o),
(139,-15,o),
(251,-15,cs),
(363,-15,o),
(415,38,o),
(415,125,cs),
(415,180,l),
(345,180,l)
);
},
{
closed = 1;
nodes = (
(155,525,ls),
(155,575,o),
(185,605,o),
(249,605,cs),
(314,605,o),
(345,575,o),
(345,525,cs),
(345,365,l),
(155,365,l)
);
}
);
width = 500;
}
);
unicode = 101;
},
{
glyphname = f;
kernRight = F;
layers = (
{
anchors = (
{
name = bottom;
pos = (208,0);
},
{
name = top;
pos = (208,650);
}
);
hints = (
{
place = (100, 70);
place = (100, 70);
type = Stem;
},
{
horizontal = 1;
place = (300, 60);
place = (300, 60);
type = Stem;
},
{
horizontal = 1;
place = (590, 60);
place = (590, 60);
type = Stem;
},
{
horizontal = 1;
place = (0, 21);
target = up;
type = BottomGhost;
}
);
layerId = UUID0;
shapes = (
{
closed = 1;
nodes = (
(170,0,l),
(170,300,l),
(335,300,l),
(335,360,l),
(170,360,l),
(170,590,l),
(375,590,l),
(375,650,l),
(100,650,l),
(100,0,l)
);
}
);
width = 415;
}
);
unicode = 102;
},
{
glyphname = g;
layers = (
{
anchors = (
{
name = bottom;
pos = (250,-250);
},
{
name = top;
pos = (250,650);
}
);
hints = (
{
place = (85, 70);
place = (85, 70);
type = Stem;
},
{
place = (345, 70);
place = (345, 70);
type = Stem;
},
{
horizontal = 1;
place = (-15, 60);
place = (-15, 60);
type = Stem;
},
{
horizontal = 1;
place = (270, 60);
place = (270, 60);
type = Stem;
},
{
horizontal = 1;
place = (605, 60);
place = (605, 60);
type = Stem;
}
);
layerId = UUID0;
shapes = (
{
closed = 1;
nodes = (
(233,270,l),
(345,270,l),
(345,125,ls),
(345,75,o),
(315,45,o),
(251,45,cs),
(186,45,o),
(155,75,o),
(155,125,cs),
(155,525,ls),
(155,575,o),
(185,605,o),
(249,605,cs),
(314,605,o),
(345,575,o),
(345,525,cs),
(345,470,l),
(415,470,l),
(415,525,ls),
(415,612,o),
(361,665,o),
(249,665,cs),
(137,665,o),
(85,612,o),
(85,525,cs),
(85,125,ls),
(85,38,o),
(139,-15,o),
(251,-15,cs),
(363,-15,o),
(415,38,o),
(415,125,cs),
(415,330,l),
(233,330,l)
);
}
);
width = 500;
}
);
unicode = 103;
},
{
glyphname = h;
layers = (
{
anchors = (
{
name = bottom;
pos = (269,0);
},
{
name = center;
pos = (269,503);
},
{
name = top;
pos = (269,650);
}
);
hints = (
{
place = (100, 70);
place = (100, 70);
type = Stem;
},
{
place = (367, 70);
place = (367, 70);
type = Stem;
},
{
horizontal = 1;
place = (300, 60);
place = (300, 60);
type = Stem;
},
{
horizontal = 1;
place = (0, 21);
target = up;
type = BottomGhost;
},
{
horizontal = 1;
place = (650, -20);
target = down;
type = TopGhost;
}
);
layerId = UUID0;
shapes = (
{
closed = 1;
nodes = (
(170,0,l),
(170,300,l),
(367,300,l),
(367,0,l),
(437,0,l),
(437,650,l),
(367,650,l),
(367,360,l),
(170,360,l),
(170,650,l),
(100,650,l),
(100,0,l)
);
}
);
width = 537;
}
);
unicode = 104;
},
{
glyphname = idotless;
layers = (
{
anchors = (
{
name = bottom;
pos = (135,0);
},
{
name = ogonek;
pos = (170,0);
},
{
name = top;
pos = (135,650);
}
);
hints = (
{
place = (100, 70);
place = (100, 70);
type = Stem;
},
{
horizontal = 1;
place = (0, 21);
target = up;
type = BottomGhost;
},
{
horizontal = 1;
place = (650, -20);
target = down;
type = TopGhost;
}
);
layerId = UUID0;
shapes = (
{
closed = 1;
nodes = (
(170,0,l),
(170,650,l),
(100,650,l),
(100,0,l)
);
}
);
width = 270;
}
);
unicode = 305;
},
{
glyphname = jdotless;
kernLeft = j;
layers = (
{
anchors = (
{
name = bottom;
pos = (190,-250);
},
{
name = top;
pos = (255,650);
}
);
hints = (
{
place = (20, 70);
place = (20, 70);
type = Stem;
},
{
place = (220, 70);
place = (220, 70);
type = Stem;
},
{
horizontal = 1;
place = (-15, 60);
place = (-15, 60);
type = Stem;
},
{
horizontal = 1;
place = (650, -20);
target = down;
type = TopGhost;
}
);
layerId = UUID0;
shapes = (
{
closed = 1;
nodes = (
(220,650,l),
(220,111,ls),
(220,65,o),
(195,45,o),
(154,45,cs),
(114,45,o),
(90,65,o),
(90,111,cs),
(90,180,l),
(20,180,l),
(20,115,ls),
(20,28,o),
(71,-15,o),
(154,-15,cs),
(237,-15,o),
(290,28,o),
(290,115,cs),
(290,650,l)
);
}
);
width = 380;
}
);
unicode = 567;
},
{
glyphname = k;
layers = (
{
anchors = (
{
name = bottom;
pos = (248,0);
},
{
name = top;
pos = (228,650);
}
);
hints = (
{
place = (101, 70);
place = (101, 70);
type = Stem;
},
{
horizontal = 1;
place = (0, 21);
target = up;
type = BottomGhost;
},
{
horizontal = 1;
place = (650, -20);
target = down;
type = TopGhost;
}
);
layerId = UUID0;
shapes = (
{
closed = 1;
nodes = (
(171,0,l),
(171,250,l),
(204,303,l),
(358,0,l),
(435,0,l),
(246,370,l),
(423,650,l),
(345,650,l),
(171,374,l),
(171,650,l),
(101,650,l),
(101,0,l)
);
}
);
width = 455;
}
);
unicode = 107;
},
{
glyphname = kgreenlandic;
layers = (
{
hints = (
{
place = (101, 70);
place = (101, 70);
type = Stem;
},
{
horizontal = 1;
place = (0, 21);
target = up;
type = BottomGhost;
},
{
horizontal = 1;
place = (650, -20);
target = down;
type = TopGhost;
}
);
layerId = UUID0;
shapes = (
{
closed = 1;
nodes = (
(171,0,l),
(171,250,l),
(204,303,l),
(358,0,l),
(435,0,l),
(246,370,l),
(423,650,l),
(345,650,l),
(171,374,l),
(171,650,l),
(101,650,l),
(101,0,l)
);
}
);
width = 455;
}
);
unicode = 312;
},
{
glyphname = l;
kernLeft = L;
kernRight = L;
layers = (
{
anchors = (
{
name = bottom;
pos = (234,0);
},
{
name = center;
pos = (170,325);
},
{
name = top;
pos = (135,650);
},
{
name = topright;
pos = (283,530);
}
);
hints = (
{
place = (100, 70);
place = (100, 70);
type = Stem;
},
{
horizontal = 1;
place = (0, 60);
place = (0, 60);
type = Stem;
},
{
horizontal = 1;
place = (650, -20);
target = down;
type = TopGhost;
}
);
layerId = UUID0;
shapes = (
{
closed = 1;
nodes = (
(100,0,l),
(353,0,l),
(353,60,l),
(170,60,l),
(170,650,l),
(100,650,l)
);
}
);
width = 373;
}
);
metricLeft = H;
unicode = 108;
},
{
glyphname = m;
layers = (
{
anchors = (
{
name = bottom;
pos = (385,0);
},
{
name = top;
pos = (385,650);
}
);
hints = (
{
place = (100, 70);
place = (100, 70);
type = Stem;
},
{
place = (355, 70);
place = (355, 70);
type = Stem;
},
{
place = (610, 70);
place = (610, 70);
type = Stem;
},
{
horizontal = 1;
place = (605, 60);
place = (605, 60);
type = Stem;
},
{
horizontal = 1;
place = (0, 21);
target = up;
type = BottomGhost;
},
{
horizontal = 1;
place = (650, -20);
target = down;
type = TopGhost;
}
);
layerId = UUID0;
shapes = (
{
closed = 1;
nodes = (
(170,0,l),
(170,508,ls),
(170,548,o),
(225,605,o),
(283,605,cs),
(341,605,o),
(355,570,o),
(355,525,cs),
(355,0,l),
(425,0,l),
(425,505,ls),
(425,545,o),
(479,605,o),
(538,605,cs),
(596,605,o),
(610,570,o),
(610,525,cs),
(610,0,l),
(680,0,l),
(680,525,ls),
(680,604,o),
(644,665,o),
(539,665,cs),
(486,665,o),
(441,635,o),
(413,592,c),
(396,636,o),
(356,665,o),
(284,665,cs),
(229,665,o),
(182,632,o),
(155,586,c),
(130,650,l),
(100,650,l),
(100,0,l)
);
}
);
width = 770;
}
);
unicode = 109;
},
{
glyphname = n;
layers = (
{
anchors = (
{
name = bottom;
pos = (263,0);
},
{
name = top;
pos = (263,650);
}
);
hints = (
{
place = (100, 70);
place = (100, 70);
type = Stem;
},
{
place = (365, 70);
place = (365, 70);
type = Stem;
},
{
horizontal = 1;
place = (605, 60);
place = (605, 60);
type = Stem;
},
{
horizontal = 1;
place = (0, 21);
target = up;
type = BottomGhost;
},
{
horizontal = 1;
place = (650, -20);
target = down;
type = TopGhost;
}
);
layerId = UUID0;
shapes = (
{
closed = 1;
nodes = (
(170,0,l),
(170,505,ls),
(170,545,o),
(226,605,o),
(289,605,cs),
(351,605,o),
(365,570,o),
(365,525,cs),
(365,0,l),
(435,0,l),
(435,525,ls),
(435,604,o),
(397,665,o),
(288,665,cs),
(231,665,o),
(183,632,o),
(155,585,c),
(130,650,l),
(100,650,l),
(100,0,l)
);
}
);
width = 525;
}
);
unicode = 110;
},
{
glyphname = eng;
layers = (
{
layerId = UUID0;
shapes = (
{
closed = 1;
nodes = (
(170,0,l),
(170,505,ls),
(170,545,o),
(226,605,o),
(289,605,cs),
(351,605,o),
(365,570,o),
(365,525,cs),
(365,-139,ls),
(365,-185,o),
(340,-205,o),
(299,-205,cs),
(259,-205,o),
(235,-185,o),
(235,-139,cs),
(235,-110,l),
(165,-110,l),
(165,-135,ls),
(165,-222,o),
(216,-265,o),
(299,-265,cs),
(382,-265,o),
(435,-222,o),
(435,-135,cs),
(435,525,ls),
(435,604,o),
(397,665,o),
(288,665,cs),
(231,665,o),
(183,632,o),
(155,585,c),
(130,650,l),
(100,650,l),
(100,0,l)
);
}
);
width = 525;
}
);
unicode = 331;
},
{
glyphname = o;
layers = (
{
anchors = (
{
name = bottom;
pos = (255,0);
},
{
name = center;
pos = (255,325);
},
{
name = ogonek;
pos = (332,0);
},
{
name = top;
pos = (255,650);
},
{
name = topright;
pos = (344,650);
}
);
hints = (
{
place = (85, 70);
place = (85, 70);
type = Stem;
},
{
place = (355, 70);
place = (355, 70);
type = Stem;
},
{
horizontal = 1;
place = (-15, 60);
place = (-15, 60);
type = Stem;
},
{
horizontal = 1;
place = (605, 60);
place = (605, 60);
type = Stem;
}
);
layerId = UUID0;
shapes = (
{
closed = 1;
nodes = (
(425,525,ls),
(425,612,o),
(369,665,o),
(254,665,cs),
(139,665,o),
(85,612,o),
(85,525,cs),
(85,125,ls),
(85,38,o),
(141,-15,o),
(256,-15,cs),
(371,-15,o),
(425,38,o),
(425,125,cs)
);
},
{
closed = 1;
nodes = (
(355,125,ls),
(355,75,o),
(323,45,o),
(256,45,cs),
(188,45,o),
(155,75,o),
(155,125,cs),
(155,525,ls),
(155,575,o),
(187,605,o),
(254,605,cs),
(322,605,o),
(355,575,o),
(355,525,cs)
);
}
);
width = 510;
}
);
unicode = 111;
},
{
glyphname = oe;
layers = (
{
hints = (
{
place = (85, 70);
place = (85, 70);
type = Stem;
},
{
place = (355, 70);
place = (355, 70);
type = Stem;
},
{
place = (615, 70);
place = (615, 70);
type = Stem;
},
{
horizontal = 1;
place = (-15, 60);
place = (-15, 60);
type = Stem;
},
{
horizontal = 1;
place = (305, 60);
place = (305, 60);
type = Stem;
},
{
horizontal = 1;
place = (605, 60);
place = (605, 60);
type = Stem;
}
);
layerId = UUID0;
shapes = (
{
closed = 1;
nodes = (
(615,125,ls),
(615,75,o),
(585,45,o),
(521,45,cs),
(456,45,o),
(425,75,o),
(425,125,cs),
(425,305,l),
(685,305,l),
(685,525,ls),
(685,612,o),
(631,665,o),
(519,665,cs),
(452,665,o),
(412,646,o),
(389,612,c),
(365,646,o),
(323,665,o),
(254,665,cs),
(139,665,o),
(85,612,o),
(85,525,cs),
(85,125,ls),
(85,38,o),
(141,-15,o),
(256,-15,cs),
(324,-15,o),
(366,4,o),
(390,37,c),
(414,4,o),
(454,-15,o),
(521,-15,cs),
(633,-15,o),
(685,38,o),
(685,125,cs),
(685,180,l),
(615,180,l)
);
},
{
closed = 1;
nodes = (
(355,125,ls),
(355,75,o),
(323,45,o),
(256,45,cs),
(188,45,o),
(155,75,o),
(155,125,cs),
(155,525,ls),
(155,575,o),
(187,605,o),
(254,605,cs),
(322,605,o),
(355,575,o),
(355,525,cs)
);
},
{
closed = 1;
nodes = (
(425,525,ls),
(425,575,o),
(455,605,o),
(519,605,cs),
(584,605,o),
(615,575,o),
(615,525,cs),
(615,365,l),
(425,365,l)
);
}
);
width = 770;
}
);
unicode = 339;
},
{
glyphname = p;
kernRight = P;
layers = (
{
anchors = (
{
name = bottom;
pos = (240,0);
},
{
name = top;
pos = (240,650);
}
);
hints = (
{
horizontal = 1;
origin = (0,11);
target = up;
type = BottomGhost;
},
{
horizontal = 1;
origin = (0,1);
target = (1,4);
type = Stem;
},
{
horizontal = 1;
origin = (0,10);
target = (1,5);
type = Stem;
},
{
origin = (0,11);
target = (0,0);
type = Stem;
},
{
origin = (1,0);
target = (0,5);
type = Stem;
}
);
layerId = UUID0;
shapes = (
{
closed = 1;
nodes = (
(170,0,l),
(170,200,l),
(251,200,ls),
(359,200,o),
(410,253,o),
(410,340,cs),
(410,510,ls),
(410,596,o),
(357,650,o),
(251,650,cs),
(100,650,l),
(100,0,l)
);
},
{
closed = 1;
nodes = (
(340,340,ls),
(340,290,o),
(311,260,o),
(251,260,cs),
(170,260,l),
(170,590,l),
(251,590,ls),
(310,590,o),
(340,559,o),
(340,510,cs)
);
}
);
width = 470;
}
);
metricLeft = H;
unicode = 112;
},
{
glyphname = thorn;
layers = (
{
hints = (
{
horizontal = 1;
origin = (1,3);
target = (0,4);
type = Stem;
},
{
horizontal = 1;
origin = (0,15);
target = (0,14);
type = Stem;
},
{
horizontal = 1;
origin = (1,2);
target = (0,15);
type = Stem;
},
{
horizontal = 1;
origin = (0,4);
target = (0,5);
type = Stem;
},
{
origin = (1,3);
target = (1,0);
type = Stem;
},
{
origin = (0,0);
target = (0,9);
type = Stem;
}
);
layerId = UUID0;
shapes = (
{
closed = 1;
nodes = (
(340,240,ls),
(340,190,o),
(311,160,o),
(251,160,cs),
(170,160,l),
(170,100,l),
(251,100,ls),
(359,100,o),
(410,153,o),
(410,240,cs),
(410,410,ls),
(410,496,o),
(357,550,o),
(251,550,cs),
(170,550,l),
(170,490,l),
(251,490,ls),
(310,490,o),
(340,459,o),
(340,410,cs)
);
},
{
closed = 1;
nodes = (
(170,0,l),
(170,650,l),
(100,650,l),
(100,0,l)
);
}
);
width = 470;
}
);
metricLeft = H;
unicode = 254;
},
{
glyphname = q;
layers = (
{
anchors = (
{
name = bottom;
pos = (255,0);
},
{
name = top;
pos = (255,650);
}
);
hints = (
{
place = (85, 70);
place = (85, 70);
type = Stem;
},
{
place = (355, 70);
place = (355, 70);
type = Stem;
},
{
horizontal = 1;
place = (-15, 60);
place = (-15, 60);
type = Stem;
},
{
horizontal = 1;
place = (605, 60);
place = (605, 60);
type = Stem;
},
{
horizontal = 1;
place = (-63, 21);
target = up;
type = BottomGhost;
}
);
layerId = UUID0;
shapes = (
{
closed = 1;
nodes = (
(425,525,ls),
(425,612,o),
(369,665,o),
(254,665,cs),
(139,665,o),
(85,612,o),
(85,525,cs),
(85,125,ls),
(85,38,o),
(141,-15,o),
(256,-15,c),
(499,-63,l),
(510,-10,l),
(365,18,l),
(405,40,o),
(425,77,o),
(425,125,cs)
);
},
{
closed = 1;
nodes = (
(355,125,ls),
(355,75,o),
(323,45,o),
(256,45,cs),
(188,45,o),
(155,75,o),
(155,125,cs),
(155,525,ls),
(155,575,o),
(187,605,o),
(254,605,cs),
(322,605,o),
(355,575,o),
(355,525,cs)
);
}
);
width = 510;
}
);
metricLeft = O;
unicode = 113;
},
{
glyphname = r;
kernRight = r;
layers = (
{
anchors = (
{
name = bottom;
pos = (135,0);
},
{
name = top;
pos = (240,650);
}
);
hints = (
{
place = (100, 70);
place = (100, 70);
type = Stem;
},
{
place = (313, 67);
place = (313, 67);
type = Stem;
},
{
horizontal = 1;
place = (605, 60);
place = (605, 60);
type = Stem;
},
{
horizontal = 1;
place = (0, 21);
target = up;
type = BottomGhost;
},
{
horizontal = 1;
place = (650, -20);
target = down;
type = TopGhost;
}
);
layerId = UUID0;
shapes = (
{
closed = 1;
nodes = (
(170,0,l),
(170,457,ls),
(170,562,o),
(220,605,o),
(258,605,cs),
(296,605,o),
(313,578,o),
(313,539,cs),
(313,470,l),
(380,470,l),
(380,535,ls),
(380,622,o),
(338,665,o),
(261,665,cs),
(208,665,o),
(177,626,o),
(159,576,c),
(130,650,l),
(100,650,l),
(100,0,l)
);
}
);
width = 400;
}
);
unicode = 114;
},
{
glyphname = s;
layers = (
{
anchors = (
{
name = bottom;
pos = (249,0);
},
{
name = top;
pos = (249,650);
}
);
hints = (
{
horizontal = 1;
origin = (0,37);
target = (0,28);
type = Stem;
},
{
horizontal = 1;
origin = (0,15);
target = (0,6);
type = Stem;
},
{
origin = (0,34);
target = (0,31);
type = Stem;
},
{
origin = (0,25);
target = (0,40);
type = Stem;
},
{
origin = (0,10);
target = (0,11);
type = Stem;
}
);
layerId = UUID0;
shapes = (
{
closed = 1;
nodes = (
(188,433,ls),
(154,464,o),
(150,487,o),
(150,529,cs),
(150,575,o),
(180,605,o),
(244,605,cs),
(308,605,o),
(338,575,o),
(338,529,cs),
(338,440,l),
(408,440,l),
(408,525,ls),
(408,612,o),
(359,665,o),
(247,665,cs),
(133,665,o),
(80,612,o),
(80,525,cs),
(80,467,o),
(92,432,o),
(134,390,cs),
(310,218,ls),
(343,186,o),
(348,162,o),
(348,121,cs),
(348,75,o),
(316,45,o),
(249,45,cs),
(182,45,o),
(150,75,o),
(150,121,cs),
(150,210,l),
(80,210,l),
(80,125,ls),
(80,38,o),
(131,-15,o),
(249,-15,cs),
(367,-15,o),
(418,38,o),
(418,125,cs),
(418,184,o),
(407,218,o),
(367,261,cs)
);
}
);
width = 498;
}
);
unicode = 115;
},
{
glyphname = germandbls;
layers = (
{
hints = (
{
place = (100, 70);
place = (100, 70);
type = Stem;
},
{
place = (368, 70);
place = (368, 70);
type = Stem;
},
{
horizontal = 1;
place = (0, 60);
place = (0, 60);
type = Stem;
},
{
horizontal = 1;
place = (300, 50);
place = (300, 50);
type = Stem;
},
{
horizontal = 1;
place = (605, 60);
place = (605, 60);
type = Stem;
}
);
layerId = UUID0;
shapes = (
{
closed = 1;
nodes = (
(220,0,l),
(269,0,ls),
(387,0,o),
(438,53,o),
(438,140,cs),
(438,215,ls),
(438,301,o),
(385,335,o),
(279,335,cs),
(248,335,l),
(248,300,l),
(279,300,ls),
(338,300,o),
(368,254,o),
(368,215,cs),
(368,136,ls),
(368,90,o),
(336,60,o),
(269,60,cs),
(220,60,l)
);
},
{
closed = 1;
nodes = (
(428,525,ls),
(428,612,o),
(375,665,o),
(261,665,cs),
(149,665,o),
(100,612,o),
(100,525,cs),
(100,0,l),
(170,0,l),
(170,529,ls),
(170,575,o),
(200,605,o),
(264,605,cs),
(328,605,o),
(358,575,o),
(358,529,cs),
(358,435,ls),
(358,395,o),
(329,350,o),
(269,350,cs),
(248,350,l),
(248,315,l),
(269,315,ls),
(377,315,o),
(428,348,o),
(428,435,cs)
);
}
);
width = 523;
}
);
unicode = 223;
},
{
glyphname = t;
layers = (
{
anchors = (
{
name = bottom;
pos = (223,0);
},
{
name = center;
pos = (125,375);
},
{
name = top;
pos = (193,650);
},
{
name = topright;
pos = (379,540);
}
);
hints = (
{
place = (85, 70);
place = (85, 70);
type = Stem;
},
{
place = (265, 70);
place = (265, 70);
type = Stem;
},
{
horizontal = 1;
place = (-15, 60);
place = (-15, 60);
type = Stem;
},
{
horizontal = 1;
place = (590, 60);
place = (590, 60);
type = Stem;
}
);
layerId = UUID0;
shapes = (
{
closed = 1;
nodes = (
(90,650,l),
(90,115,ls),
(90,28,o),
(143,-15,o),
(216,-15,cs),
(289,-15,o),
(340,28,o),
(340,115,cs),
(340,230,l),
(270,230,l),
(270,111,ls),
(270,75,o),
(252,45,o),
(216,45,cs),
(179,45,o),
(160,75,o),
(160,111,cs),
(160,590,l),
(310,590,l),
(310,650,l)
);
}
);
width = 380;
}
);
unicode = 116;
},
{
glyphname = u;
layers = (
{
anchors = (
{
name = bottom;
pos = (263,0);
},
{
name = ogonek;
pos = (425,0);
},
{
name = top;
pos = (263,650);
},
{
name = topright;
pos = (390,650);
}
);
hints = (
{
place = (90, 70);
place = (90, 70);
type = Stem;
},
{
place = (355, 70);
place = (355, 70);
type = Stem;
},
{
horizontal = 1;
place = (-15, 60);
place = (-15, 60);
type = Stem;
},
{
horizontal = 1;
place = (0, 21);
target = up;
type = BottomGhost;
},
{
horizontal = 1;
place = (650, -20);
target = down;
type = TopGhost;
}
);
layerId = UUID0;
shapes = (
{
closed = 1;
nodes = (
(90,125,ls),
(90,46,o),
(128,-15,o),
(237,-15,cs),
(293,-15,o),
(341,18,o),
(369,64,c),
(395,0,l),
(425,0,l),
(425,650,l),
(355,650,l),
(355,145,ls),
(355,105,o),
(299,45,o),
(236,45,cs),
(174,45,o),
(160,80,o),
(160,125,cs),
(160,650,l),
(90,650,l)
);
}
);
width = 525;
}
);
unicode = 117;
},
{
glyphname = v;
kernLeft = V;
kernRight = V;
layers = (
{
anchors = (
{
name = bottom;
pos = (240,0);
},
{
name = top;
pos = (240,650);
}
);
hints = (
{
horizontal = 1;
place = (0, 21);
target = up;
type = BottomGhost;
},
{
horizontal = 1;
place = (650, -20);
target = down;
type = TopGhost;
}
);
layerId = UUID0;
shapes = (
{
closed = 1;
nodes = (
(292,0,l),
(439,650,l),
(369,650,l),
(239,77,l),
(110,650,l),
(40,650,l),
(187,0,l)
);
}
);
width = 479;
}
);
unicode = 118;
},
{
glyphname = w;
layers = (
{
anchors = (
{
name = bottom;
pos = (380,0);
},
{
name = top;
pos = (380,650);
}
);
hints = (
{
place = (90, 70);
place = (90, 70);
type = Stem;
},
{
place = (345, 70);
place = (345, 70);
type = Stem;
},
{
place = (600, 70);
place = (600, 70);
type = Stem;
},
{
horizontal = 1;
place = (-15, 60);
place = (-15, 60);
type = Stem;
},
{
horizontal = 1;
place = (650, -20);
target = down;
type = TopGhost;
}
);
layerId = UUID0;
shapes = (
{
closed = 1;
nodes = (
(345,125,ls),
(345,75,o),
(315,45,o),
(253,45,cs),
(191,45,o),
(160,75,o),
(160,125,cs),
(160,650,l),
(90,650,l),
(90,125,ls),
(90,38,o),
(146,-15,o),
(253,-15,cs),
(313,-15,o),
(356,7,o),
(380,43,c),
(405,8,o),
(446,-15,o),
(507,-15,cs),
(614,-15,o),
(670,38,o),
(670,125,cs),
(670,650,l),
(600,650,l),
(600,125,ls),
(600,75,o),
(569,45,o),
(507,45,cs),
(445,45,o),
(415,75,o),
(415,125,cs),
(415,650,l),
(345,650,l)
);
}
);
width = 760;
}
);
unicode = 119;
},
{
glyphname = x;
layers = (
{
anchors = (
{
name = bottom;
pos = (226,0);
},
{
name = top;
pos = (226,650);
}
);
hints = (
{
horizontal = 1;
place = (0, 21);
target = up;
type = BottomGhost;
},
{
horizontal = 1;
place = (650, -20);
target = down;
type = TopGhost;
}
);
layerId = UUID0;
shapes = (
{
closed = 1;
nodes = (
(412,0,l),
(267,326,l),
(412,650,l),
(339,650,l),
(230,408,l),
(123,650,l),
(50,650,l),
(190,335,l),
(40,0,l),
(113,0,l),
(226,253,l),
(339,0,l)
);
}
);
width = 452;
}
);
unicode = 120;
},
{
glyphname = y;
kernLeft = y;
kernRight = y;
layers = (
{
anchors = (
{
name = bottom;
pos = (236,0);
},
{
name = top;
pos = (236,650);
}
);
hints = (
{
place = (65, 70);
place = (65, 70);
type = Stem;
},
{
place = (201, 70);
place = (201, 70);
type = Stem;
},
{
place = (335, 70);
place = (335, 70);
type = Stem;
},
{
horizontal = 1;
place = (0, 21);
target = up;
type = BottomGhost;
},
{
horizontal = 1;
place = (650, -20);
target = down;
type = TopGhost;
}
);
layerId = UUID0;
shapes = (
{
closed = 1;
nodes = (
(271,0,l),
(271,184,l),
(362,194,o),
(405,244,o),
(405,322,cs),
(405,650,l),
(335,650,l),
(335,322,ls),
(335,272,o),
(303,242,o),
(236,242,cs),
(168,242,o),
(135,272,o),
(135,322,cs),
(135,650,l),
(65,650,l),
(65,322,ls),
(65,244,o),
(109,194,o),
(201,184,c),
(201,0,l)
);
}
);
width = 470;
}
);
unicode = 121;
},
{
glyphname = z;
layers = (
{
anchors = (
{
name = bottom;
pos = (209,0);
},
{
name = top;
pos = (209,650);
}
);
hints = (
{
horizontal = 1;
place = (0, 60);
place = (0, 60);
type = Stem;
},
{
horizontal = 1;
place = (590, 60);
place = (590, 60);
type = Stem;
}
);
layerId = UUID0;
shapes = (
{
closed = 1;
nodes = (
(50,590,l),
(304,590,l),
(35,60,l),
(35,0,l),
(372,0,l),
(372,60,l),
(108,60,l),
(377,590,l),
(377,650,l),
(50,650,l)
);
}
);
width = 417;
}
);
unicode = 122;
},
{
glyphname = ordfeminine;
layers = (
{
hints = (
{
place = (85, 47);
place = (85, 47);
type = Stem;
},
{
place = (207, 47);
place = (207, 47);
type = Stem;
},
{
horizontal = 1;
place = (390, 43);
place = (390, 43);
type = Stem;
},
{
horizontal = 1;
place = (517, 41);
place = (517, 41);
type = Stem;
},
{
horizontal = 1;
place = (653, 42);
place = (653, 42);
type = Stem;
}
);
layerId = UUID0;
shapes = (
{
closed = 1;
nodes = (
(254,398,l),
(254,620,ls),
(254,667,o),
(226,695,o),
(169,695,cs),
(111,695,o),
(85,667,o),
(85,620,cs),
(85,597,l),
(132,597,l),
(132,622,ls),
(132,641,o),
(144,653,o),
(169,653,cs),
(194,653,o),
(207,641,o),
(207,622,cs),
(207,558,l),
(157,558,ls),
(99,558,o),
(80,526,o),
(80,483,cs),
(80,465,ls),
(80,423,o),
(99,390,o),
(157,390,cs),
(182,390,o),
(204,406,o),
(219,430,c),
(238,398,l)
);
},
{
closed = 1;
nodes = (
(133,433,o),
(128,448,o),
(128,465,cs),
(128,485,ls),
(128,504,o),
(133,517,o),
(157,517,cs),
(207,517,l),
(207,473,ls),
(207,456,o),
(182,433,o),
(157,433,cs)
);
}
);
width = 344;
}
);
unicode = 170;
},
{
glyphname = ordmasculine;
layers = (
{
hints = (
{
place = (85, 48);
place = (85, 48);
type = Stem;
},
{
place = (216, 48);
place = (216, 48);
type = Stem;
},
{
horizontal = 1;
place = (391, 43);
place = (391, 43);
type = Stem;
},
{
horizontal = 1;
place = (654, 42);
place = (654, 42);
type = Stem;
}
);
layerId = UUID0;
shapes = (
{
closed = 1;
nodes = (
(264,621,ls),
(264,668,o),
(235,696,o),
(175,696,cs),
(113,696,o),
(85,668,o),
(85,621,cs),
(85,466,ls),
(85,420,o),
(114,391,o),
(176,391,cs),
(236,391,o),
(264,420,o),
(264,466,cs)
);
},
{
closed = 1;
nodes = (
(216,466,ls),
(216,446,o),
(203,434,o),
(176,434,cs),
(147,434,o),
(133,446,o),
(133,466,cs),
(133,621,ls),
(133,642,o),
(146,654,o),
(175,654,cs),
(203,654,o),
(216,642,o),
(216,621,cs)
);
}
);
width = 349;
}
);
unicode = 186;
},
{
glyphname = pi;
layers = (
{
hints = (
{
place = (130, 70);
place = (130, 70);
type = Stem;
},
{
place = (397, 70);
place = (397, 70);
type = Stem;
},
{
horizontal = 1;
place = (490, 60);
place = (490, 60);
type = Stem;
},
{
horizontal = 1;
place = (0, 21);
target = up;
type = BottomGhost;
}
);
layerId = UUID0;
shapes = (
{
closed = 1;
nodes = (
(200,0,l),
(200,590,l),
(397,590,l),
(397,0,l),
(467,0,l),
(467,590,l),
(527,590,l),
(527,650,l),
(70,650,l),
(70,590,l),
(130,590,l),
(130,0,l)
);
}
);
width = 597;
}
);
unicode = 960;
},
{
glyphname = zero;
layers = (
{
hints = (
{
place = (85, 70);
place = (85, 70);
type = Stem;
},
{
place = (355, 70);
place = (355, 70);
type = Stem;
},
{
horizontal = 1;
place = (-15, 60);
place = (-15, 60);
type = Stem;
},
{
horizontal = 1;
place = (605, 60);
place = (605, 60);
type = Stem;
}
);
layerId = UUID0;
shapes = (
{
closed = 1;
nodes = (
(425,525,ls),
(425,612,o),
(369,665,o),
(254,665,cs),
(139,665,o),
(85,612,o),
(85,525,cs),
(85,125,ls),
(85,38,o),
(141,-15,o),
(256,-15,cs),
(371,-15,o),
(425,38,o),
(425,125,cs)
);
},
{
closed = 1;
nodes = (
(355,125,ls),
(355,75,o),
(323,45,o),
(256,45,cs),
(188,45,o),
(155,75,o),
(155,125,cs),
(155,525,ls),
(155,575,o),
(187,605,o),
(254,605,cs),
(322,605,o),
(355,575,o),
(355,525,cs)
);
}
);
width = 510;
}
);
unicode = 48;
},
{
glyphname = one;
layers = (
{
hints = (
{
place = (236, 70);
place = (236, 70);
type = Stem;
},
{
horizontal = 1;
place = (0, 60);
place = (0, 60);
type = Stem;
},
{
horizontal = 1;
place = (650, -20);
target = down;
type = TopGhost;
}
);
layerId = UUID0;
shapes = (
{
closed = 1;
nodes = (
(306,0,l),
(306,650,l),
(236,650,l),
(236,0,l)
);
},
{
closed = 1;
nodes = (
(236,650,l),
(72,555,l),
(102,504,l),
(266,599,l)
);
},
{
closed = 1;
nodes = (
(416,60,l),
(126,60,l),
(126,0,l),
(416,0,l)
);
}
);
width = 510;
}
);
unicode = 49;
},
{
glyphname = two;
layers = (
{
hints = (
{
place = (100, 70);
place = (100, 70);
type = Stem;
},
{
place = (358, 70);
place = (358, 70);
type = Stem;
},
{
horizontal = 1;
place = (0, 60);
place = (0, 60);
type = Stem;
},
{
horizontal = 1;
place = (605, 60);
place = (605, 60);
type = Stem;
}
);
layerId = UUID0;
shapes = (
{
closed = 1;
nodes = (
(90,0,l),
(427,0,l),
(427,60,l),
(90,60,l)
);
},
{
closed = 1;
nodes = (
(90,60,l),
(175,60,l),
(334,287,ls),
(396,375,o),
(428,427,o),
(428,475,cs),
(428,525,ls),
(428,612,o),
(375,665,o),
(261,665,cs),
(149,665,o),
(100,612,o),
(100,525,cs),
(100,440,l),
(170,440,l),
(170,529,ls),
(170,575,o),
(200,605,o),
(264,605,cs),
(328,605,o),
(358,575,o),
(358,529,cs),
(358,475,ls),
(358,435,o),
(314,378,o),
(280,329,cs)
);
}
);
width = 510;
}
);
unicode = 50;
},
{
glyphname = three;
layers = (
{
hints = (
{
place = (87, 70);
place = (87, 70);
type = Stem;
},
{
place = (355, 70);
place = (355, 70);
type = Stem;
},
{
horizontal = 1;
place = (-15, 60);
place = (-15, 60);
type = Stem;
},
{
horizontal = 1;
place = (300, 50);
place = (300, 50);
type = Stem;
},
{
horizontal = 1;
place = (605, 60);
place = (605, 60);
type = Stem;
}
);
layerId = UUID0;
shapes = (
{
closed = 1;
nodes = (
(425,215,ls),
(425,301,o),
(372,335,o),
(266,335,cs),
(165,335,l),
(165,300,l),
(266,300,ls),
(325,300,o),
(355,254,o),
(355,215,cs),
(355,121,ls),
(355,75,o),
(323,45,o),
(256,45,cs),
(189,45,o),
(157,75,o),
(157,121,cs),
(157,210,l),
(87,210,l),
(87,125,ls),
(87,38,o),
(138,-15,o),
(256,-15,cs),
(374,-15,o),
(425,38,o),
(425,125,cs)
);
},
{
closed = 1;
nodes = (
(415,525,ls),
(415,612,o),
(362,665,o),
(248,665,cs),
(136,665,o),
(87,612,o),
(87,525,cs),
(87,440,l),
(157,440,l),
(157,529,ls),
(157,575,o),
(187,605,o),
(251,605,cs),
(315,605,o),
(345,575,o),
(345,529,cs),
(345,435,ls),
(345,395,o),
(316,350,o),
(256,350,cs),
(165,350,l),
(165,315,l),
(256,315,ls),
(364,315,o),
(415,348,o),
(415,435,cs)
);
}
);
width = 510;
}
);
unicode = 51;
},
{
glyphname = four;
layers = (
{
hints = (
{
place = (296, 70);
place = (296, 70);
type = Stem;
},
{
horizontal = 1;
place = (150, 60);
place = (150, 60);
type = Stem;
},
{
horizontal = 1;
place = (650, -20);
target = down;
type = TopGhost;
},
{
horizontal = 1;
place = (0, 21);
target = up;
type = BottomGhost;
}
);
layerId = UUID0;
shapes = (
{
closed = 1;
nodes = (
(416,210,l),
(31,210,l),
(31,150,l),
(416,150,l)
);
},
{
closed = 1;
nodes = (
(296,650,l),
(31,210,l),
(101,210,l),
(366,650,l)
);
},
{
closed = 1;
nodes = (
(366,0,l),
(366,650,l),
(296,650,l),
(296,0,l)
);
}
);
width = 510;
}
);
unicode = 52;
},
{
glyphname = five;
layers = (
{
hints = (
{
place = (97, 70);
place = (97, 70);
type = Stem;
},
{
place = (355, 70);
place = (355, 70);
type = Stem;
},
{
horizontal = 1;
place = (-15, 60);
place = (-15, 60);
type = Stem;
},
{
horizontal = 1;
place = (330, 60);
place = (330, 60);
type = Stem;
},
{
horizontal = 1;
place = (590, 60);
place = (590, 60);
type = Stem;
}
);
layerId = UUID0;
shapes = (
{
closed = 1;
nodes = (
(425,245,ls),
(425,331,o),
(372,390,o),
(266,390,cs),
(167,390,l),
(167,330,l),
(266,330,ls),
(325,330,o),
(355,284,o),
(355,245,cs),
(355,121,ls),
(355,75,o),
(323,45,o),
(256,45,cs),
(189,45,o),
(157,75,o),
(157,121,cs),
(157,210,l),
(87,210,l),
(87,125,ls),
(87,38,o),
(138,-15,o),
(256,-15,cs),
(374,-15,o),
(425,38,o),
(425,125,cs)
);
},
{
closed = 1;
nodes = (
(97,650,l),
(97,330,l),
(167,330,l),
(167,650,l)
);
},
{
closed = 1;
nodes = (
(167,590,l),
(415,590,l),
(415,650,l),
(167,650,l)
);
}
);
width = 510;
}
);
unicode = 53;
},
{
glyphname = six;
layers = (
{
hints = (
{
place = (85, 70);
place = (85, 70);
type = Stem;
},
{
place = (115, 40);
place = (115, 40);
type = Stem;
},
{
place = (355, 70);
place = (355, 70);
type = Stem;
},
{
horizontal = 1;
place = (-15, 60);
place = (-15, 60);
type = Stem;
},
{
horizontal = 1;
place = (325, 60);
place = (325, 60);
type = Stem;
},
{
horizontal = 1;
place = (605, 60);
place = (605, 60);
type = Stem;
}
);
layerId = UUID0;
shapes = (
{
closed = 1;
nodes = (
(85,125,ls),
(85,38,o),
(141,-15,o),
(256,-15,cs),
(371,-15,o),
(425,38,o),
(425,125,cs),
(425,245,ls),
(425,332,o),
(369,385,o),
(254,385,cs),
(139,385,o),
(115,302,o),
(115,215,cs),
(115,159,l)
);
},
{
closed = 1;
nodes = (
(155,245,ls),
(155,295,o),
(187,325,o),
(254,325,cs),
(322,325,o),
(355,295,o),
(355,245,cs),
(355,125,ls),
(355,75,o),
(323,45,o),
(256,45,cs),
(188,45,o),
(155,75,o),
(155,125,cs)
);
},
{
closed = 1;
nodes = (
(85,126,l),
(155,126,l),
(155,529,ls),
(155,579,o),
(187,605,o),
(254,605,cs),
(321,605,o),
(353,579,o),
(353,529,cs),
(353,460,l),
(423,460,l),
(423,525,ls),
(423,612,o),
(372,665,o),
(254,665,cs),
(136,665,o),
(85,612,o),
(85,525,cs)
);
}
);
width = 510;
}
);
unicode = 54;
},
{
glyphname = seven;
layers = (
{
hints = (
{
horizontal = 1;
place = (590, 60);
place = (590, 60);
type = Stem;
},
{
horizontal = 1;
place = (0, 21);
target = up;
type = BottomGhost;
}
);
layerId = UUID0;
shapes = (
{
closed = 1;
nodes = (
(81,590,l),
(367,590,l),
(345,620,l),
(153,0,l),
(225,0,l),
(408,590,l),
(408,650,l),
(81,650,l)
);
}
);
width = 510;
}
);
unicode = 55;
},
{
glyphname = eight;
layers = (
{
hints = (
{
horizontal = 1;
origin = (0,3);
target = (0,20);
type = Stem;
},
{
horizontal = 1;
origin = (0,27);
target = (1,30);
type = Stem;
},
{
horizontal = 1;
origin = (1,20);
target = (1,3);
type = Stem;
},
{
origin = (0,0);
target = (0,23);
type = Stem;
},
{
origin = (0,17);
target = (0,6);
type = Stem;
},
{
origin = (1,7);
target = (1,16);
type = Stem;
}
);
layerId = UUID0;
shapes = (
{
closed = 1;
nodes = (
(86,125,ls),
(86,38,o),
(137,-15,o),
(255,-15,cs),
(373,-15,o),
(424,38,o),
(424,125,cs),
(424,220,ls),
(424,306,o),
(371,335,o),
(265,335,cs),
(255,335,l),
(255,300,l),
(265,300,ls),
(324,300,o),
(354,259,o),
(354,220,cs),
(354,121,ls),
(354,75,o),
(322,45,o),
(255,45,cs),
(188,45,o),
(156,75,o),
(156,121,cs),
(156,220,ls),
(156,259,o),
(186,300,o),
(245,300,cs),
(255,300,l),
(255,335,l),
(245,335,ls),
(139,335,o),
(86,306,o),
(86,220,cs)
);
},
{
closed = 1;
nodes = (
(156,529,ls),
(156,575,o),
(186,605,o),
(250,605,cs),
(314,605,o),
(344,575,o),
(344,529,cs),
(344,430,ls),
(344,390,o),
(315,350,o),
(255,350,cs),
(250,350,l),
(250,315,l),
(255,315,ls),
(363,315,o),
(414,343,o),
(414,430,cs),
(414,525,ls),
(414,612,o),
(361,665,o),
(247,665,cs),
(135,665,o),
(86,612,o),
(86,525,cs),
(86,430,ls),
(86,343,o),
(137,315,o),
(245,315,cs),
(250,315,l),
(250,350,l),
(245,350,ls),
(185,350,o),
(156,390,o),
(156,430,cs)
);
}
);
width = 510;
}
);
unicode = 56;
},
{
glyphname = nine;
layers = (
{
hints = (
{
place = (85, 70);
place = (85, 70);
type = Stem;
},
{
place = (355, 40);
place = (355, 40);
type = Stem;
},
{
place = (355, 70);
place = (355, 70);
type = Stem;
},
{
horizontal = 1;
place = (-15, 60);
place = (-15, 60);
type = Stem;
},
{
horizontal = 1;
place = (265, 60);
place = (265, 60);
type = Stem;
},
{
horizontal = 1;
place = (605, 60);
place = (605, 60);
type = Stem;
}
);
layerId = UUID0;
shapes = (
{
closed = 1;
nodes = (
(425,525,ls),
(425,612,o),
(369,665,o),
(254,665,cs),
(139,665,o),
(85,612,o),
(85,525,cs),
(85,405,ls),
(85,318,o),
(141,265,o),
(256,265,cs),
(371,265,o),
(395,348,o),
(395,435,cs),
(395,491,l)
);
},
{
closed = 1;
nodes = (
(355,405,ls),
(355,355,o),
(323,325,o),
(256,325,cs),
(188,325,o),
(155,355,o),
(155,405,cs),
(155,525,ls),
(155,575,o),
(187,605,o),
(254,605,cs),
(322,605,o),
(355,575,o),
(355,525,cs)
);
},
{
closed = 1;
nodes = (
(425,524,l),
(355,524,l),
(355,121,ls),
(355,71,o),
(323,45,o),
(256,45,cs),
(189,45,o),
(157,71,o),
(157,121,cs),
(157,190,l),
(87,190,l),
(87,125,ls),
(87,38,o),
(138,-15,o),
(256,-15,cs),
(374,-15,o),
(425,38,o),
(425,125,cs)
);
}
);
width = 510;
}
);
unicode = 57;
},
{
glyphname = zero.lf;
layers = (
{
hints = (
{
place = (85, 70);
place = (85, 70);
type = Stem;
},
{
place = (355, 70);
place = (355, 70);
type = Stem;
},
{
horizontal = 1;
place = (-15, 60);
place = (-15, 60);
type = Stem;
},
{
horizontal = 1;
place = (605, 60);
place = (605, 60);
type = Stem;
}
);
layerId = UUID0;
shapes = (
{
closed = 1;
nodes = (
(425,525,ls),
(425,612,o),
(369,665,o),
(254,665,cs),
(139,665,o),
(85,612,o),
(85,525,cs),
(85,125,ls),
(85,38,o),
(141,-15,o),
(256,-15,cs),
(371,-15,o),
(425,38,o),
(425,125,cs)
);
},
{
closed = 1;
nodes = (
(355,125,ls),
(355,75,o),
(323,45,o),
(256,45,cs),
(188,45,o),
(155,75,o),
(155,125,cs),
(155,525,ls),
(155,575,o),
(187,605,o),
(254,605,cs),
(322,605,o),
(355,575,o),
(355,525,cs)
);
},
{
pos = (258,-120);
ref = fraction;
scale = (1.331,1.331);
}
);
width = 510;
}
);
},
{
glyphname = one.lf;
layers = (
{
hints = (
{
place = (236, 70);
place = (236, 70);
type = Stem;
},
{
horizontal = 1;
place = (0, 60);
place = (0, 60);
type = Stem;
},
{
horizontal = 1;
place = (650, -20);
target = down;
type = TopGhost;
}
);
layerId = UUID0;
shapes = (
{
closed = 1;
nodes = (
(306,0,l),
(306,650,l),
(236,650,l),
(236,0,l)
);
},
{
closed = 1;
nodes = (
(236,650,l),
(72,555,l),
(102,504,l),
(266,599,l)
);
},
{
closed = 1;
nodes = (
(446,60,l),
(96,60,l),
(96,0,l),
(446,0,l)
);
}
);
width = 510;
}
);
},
{
glyphname = two.lf;
layers = (
{
guides = (
{
angle = 151.7503;
pos = (80,562);
}
);
hints = (
{
place = (100, 70);
place = (100, 70);
type = Stem;
},
{
place = (358, 70);
place = (358, 70);
type = Stem;
},
{
horizontal = 1;
place = (0, 60);
place = (0, 60);
type = Stem;
},
{
horizontal = 1;
place = (605, 60);
place = (605, 60);
type = Stem;
}
);
layerId = UUID0;
shapes = (
{
closed = 1;
nodes = (
(90,0,l),
(427,0,l),
(427,60,l),
(90,60,l)
);
},
{
closed = 1;
nodes = (
(428,609,o),
(370,664,o),
(259,664,cs),
(177,664,o),
(116,629,o),
(80,562,c),
(135,531,l),
(166,581,o),
(205,604,o),
(259,604,cs),
(322,604,o),
(358,569,o),
(358,508,cs),
(358,447,o),
(351,432,o),
(279,329,cs),
(90,60,l),
(175,60,l),
(334,287,ls),
(409,394,o),
(428,438,o),
(428,504,cs)
);
}
);
width = 510;
}
);
},
{
glyphname = three.lf;
layers = (
{
hints = (
{
horizontal = 1;
origin = (1,9);
target = (1,2);
type = Stem;
},
{
horizontal = 1;
origin = (1,18);
target = (1,17);
type = Stem;
},
{
horizontal = 1;
origin = (0,3);
target = (0,4);
type = Stem;
},
{
origin = (1,6);
target = (1,18);
type = Stem;
},
{
origin = (1,23);
target = (0,0);
type = Stem;
}
);
layerId = UUID0;
shapes = (
{
closed = 1;
nodes = (
(217,333,l),
(413,590,l),
(413,650,l),
(97,650,l),
(97,590,l),
(371,590,l),
(349,615,l),
(165,375,l)
);
},
{
closed = 1;
nodes = (
(355,80,o),
(319,45,o),
(256,45,cs),
(201,45,o),
(163,68,o),
(132,118,c),
(77,87,l),
(113,20,o),
(174,-15,o),
(256,-15,cs),
(367,-15,o),
(425,40,o),
(425,145,cs),
(425,225,ls),
(425,320,o),
(387,353,o),
(266,365,cs),
(165,375,l),
(165,315,l),
(266,305,ls),
(322,299,o),
(355,270,o),
(355,225,cs),
(355,141,ls)
);
}
);
width = 510;
}
);
},
{
glyphname = four.lf;
layers = (
{
hints = (
{
horizontal = 1;
origin = (2,3);
target = up;
type = BottomGhost;
},
{
horizontal = 1;
origin = (0,2);
target = (1,1);
type = Stem;
},
{
horizontal = 1;
origin = (1,0);
target = down;
type = TopGhost;
},
{
origin = (2,3);
target = (2,0);
type = Stem;
}
);
layerId = UUID0;
shapes = (
{
closed = 1;
nodes = (
(446,210,l),
(51,210,l),
(51,150,l),
(446,150,l)
);
},
{
closed = 1;
nodes = (
(226,650,l),
(50,210,l),
(120,210,l),
(296,650,l)
);
},
{
closed = 1;
nodes = (
(396,0,l),
(396,450,l),
(326,450,l),
(326,0,l)
);
}
);
width = 510;
}
);
},
{
glyphname = five.lf;
layers = (
{
hints = (
{
horizontal = 1;
origin = (2,6);
target = (2,23);
type = Stem;
},
{
horizontal = 1;
origin = (0,1);
target = (2,14);
type = Stem;
},
{
horizontal = 1;
origin = (0,0);
target = (1,0);
type = Stem;
},
{
origin = (0,1);
target = (0,2);
type = Stem;
},
{
origin = (2,20);
target = (2,9);
type = Stem;
}
);
layerId = UUID0;
shapes = (
{
closed = 1;
nodes = (
(97,650,l),
(97,320,l),
(167,320,l),
(167,650,l)
);
},
{
closed = 1;
nodes = (
(167,590,l),
(415,590,l),
(415,650,l),
(167,650,l)
);
},
{
closed = 1;
nodes = (
(203,45,o),
(164,66,o),
(132,118,c),
(77,87,l),
(111,23,o),
(170,-15,o),
(256,-15,cs),
(374,-15,o),
(425,46,o),
(425,145,cs),
(425,235,ls),
(425,321,o),
(372,380,o),
(266,380,cs),
(167,380,l),
(167,320,l),
(266,320,ls),
(325,320,o),
(355,274,o),
(355,235,cs),
(355,141,ls),
(355,83,o),
(323,45,o),
(256,45,cs)
);
}
);
width = 510;
}
);
},
{
glyphname = six.lf;
layers = (
{
hints = (
{
place = (85, 70);
place = (85, 70);
type = Stem;
},
{
place = (115, 40);
place = (115, 40);
type = Stem;
},
{
place = (355, 70);
place = (355, 70);
type = Stem;
},
{
horizontal = 1;
place = (-15, 60);
place = (-15, 60);
type = Stem;
},
{
horizontal = 1;
place = (325, 60);
place = (325, 60);
type = Stem;
},
{
horizontal = 1;
place = (605, 60);
place = (605, 60);
type = Stem;
}
);
layerId = UUID0;
shapes = (
{
closed = 1;
nodes = (
(155,126,l),
(155,489,ls),
(155,565,o),
(187,605,o),
(254,605,cs),
(303,605,o),
(339,584,o),
(368,532,c),
(423,563,l),
(391,627,o),
(335,665,o),
(254,665,cs),
(136,665,o),
(85,597,o),
(85,485,cs),
(85,126,l)
);
},
{
closed = 1;
nodes = (
(371,-15,o),
(425,38,o),
(425,125,cs),
(425,245,ls),
(425,332,o),
(369,385,o),
(254,385,cs),
(139,385,o),
(115,302,o),
(115,215,cs),
(115,159,l),
(85,125,ls),
(85,38,o),
(141,-15,o),
(256,-15,cs)
);
},
{
closed = 1;
nodes = (
(188,45,o),
(155,75,o),
(155,125,cs),
(155,245,ls),
(155,295,o),
(187,325,o),
(254,325,cs),
(322,325,o),
(355,295,o),
(355,245,cs),
(355,125,ls),
(355,75,o),
(323,45,o),
(256,45,cs)
);
}
);
width = 510;
}
);
},
{
glyphname = seven.lf;
layers = (
{
hints = (
{
horizontal = 1;
place = (590, 60);
place = (590, 60);
type = Stem;
},
{
horizontal = 1;
place = (0, 21);
target = up;
type = BottomGhost;
}
);
layerId = UUID0;
shapes = (
{
closed = 1;
nodes = (
(81,590,l),
(367,590,l),
(345,620,l),
(153,0,l),
(225,0,l),
(408,590,l),
(408,650,l),
(81,650,l)
);
},
{
angle = -10.00008;
pos = (-26,32);
ref = strokeshortcomb;
}
);
width = 510;
}
);
},
{
glyphname = eight.lf;
layers = (
{
guides = (
{
angle = 211.866;
pos = (316,325);
},
{
angle = 211.866;
pos = (157,301);
}
);
hints = (
{
horizontal = 1;
origin = (0,27);
target = (1,13);
type = Stem;
},
{
horizontal = 1;
origin = (0,13);
target = (2,6);
type = Stem;
},
{
origin = (0,24);
target = (1,2);
type = Stem;
},
{
origin = (1,10);
target = (0,2);
type = Stem;
},
{
origin = (0,17);
target = (2,2);
type = Stem;
},
{
origin = (2,10);
target = (0,9);
type = Stem;
}
);
layerId = UUID0;
shapes = (
{
closed = 1;
nodes = (
(369,-15,o),
(427,35,o),
(427,135,cs),
(427,175,ls),
(427,245,o),
(405,275,o),
(316,325,c),
(398,377,o),
(422,413,o),
(422,487,cs),
(422,515,ls),
(422,613,o),
(364,665,o),
(255,665,cs),
(144,665,o),
(88,615,o),
(88,515,cs),
(88,475,ls),
(88,405,o),
(109,375,o),
(194,324,c),
(108,271,o),
(83,234,o),
(83,163,cs),
(83,135,ls),
(83,37,o),
(143,-15,o),
(255,-15,cs)
);
},
{
closed = 1;
nodes = (
(189,45,o),
(153,73,o),
(153,126,cs),
(153,163,ls),
(153,212,o),
(173,236,o),
(255,287,c),
(327,252,o),
(357,219,o),
(357,175,cs),
(357,126,ls),
(357,73,o),
(322,45,o),
(255,45,cs)
);
},
{
closed = 1;
nodes = (
(186,398,o),
(158,430,o),
(158,475,cs),
(158,524,ls),
(158,577,o),
(192,605,o),
(255,605,cs),
(318,605,o),
(352,577,o),
(352,524,cs),
(352,487,ls),
(352,435,o),
(333,410,o),
(255,362,c)
);
}
);
width = 510;
}
);
},
{
glyphname = nine.lf;
layers = (
{
guides = (
{
angle = 29.1481;
pos = (142,118);
}
);
hints = (
{
horizontal = 1;
origin = (2,12);
target = (2,5);
type = Stem;
},
{
horizontal = 1;
origin = (0,10);
target = (1,3);
type = Stem;
},
{
horizontal = 1;
origin = (0,3);
target = (1,10);
type = Stem;
},
{
origin = (0,7);
target = (1,6);
type = Stem;
},
{
origin = (2,2);
target = (2,15);
type = Stem;
}
);
layerId = UUID0;
shapes = (
{
closed = 1;
nodes = (
(425,525,ls),
(425,612,o),
(369,665,o),
(254,665,cs),
(139,665,o),
(85,612,o),
(85,525,cs),
(85,385,ls),
(85,298,o),
(141,245,o),
(256,245,cs),
(371,245,o),
(395,328,o),
(395,415,cs),
(395,491,l)
);
},
{
closed = 1;
nodes = (
(355,385,ls),
(355,335,o),
(323,305,o),
(256,305,cs),
(188,305,o),
(155,335,o),
(155,385,cs),
(155,525,ls),
(155,575,o),
(187,605,o),
(254,605,cs),
(322,605,o),
(355,575,o),
(355,525,cs)
);
},
{
closed = 1;
nodes = (
(425,524,l),
(355,524,l),
(355,161,ls),
(355,85,o),
(323,45,o),
(256,45,cs),
(203,45,o),
(164,66,o),
(132,118,c),
(77,87,l),
(111,23,o),
(170,-15,o),
(256,-15,cs),
(374,-15,o),
(425,53,o),
(425,165,cs)
);
}
);
width = 510;
}
);
},
{
glyphname = zero.dnom;
layers = (
{
hints = (
{
horizontal = 1;
origin = (0,10);
target = (1,3);
type = Stem;
},
{
horizontal = 1;
origin = (1,10);
target = (0,3);
type = Stem;
},
{
origin = (0,7);
target = (1,6);
type = Stem;
},
{
origin = (1,0);
target = (0,13);
type = Stem;
}
);
layerId = UUID0;
shapes = (
{
closed = 1;
nodes = (
(205,219,ls),
(205,266,o),
(175,295,o),
(115,295,cs),
(53,295,o),
(25,266,o),
(25,219,cs),
(25,66,ls),
(25,20,o),
(54,-10,o),
(116,-10,cs),
(176,-10,o),
(205,20,o),
(205,66,cs)
);
},
{
closed = 1;
nodes = (
(157,66,ls),
(157,45,o),
(143,33,o),
(116,33,cs),
(87,33,o),
(73,45,o),
(73,66,cs),
(73,219,ls),
(73,240,o),
(86,252,o),
(115,252,cs),
(143,252,o),
(157,240,o),
(157,219,cs)
);
}
);
width = 230;
}
);
},
{
glyphname = one.dnom;
layers = (
{
hints = (
{
horizontal = 1;
origin = (0,4);
target = up;
type = BottomGhost;
},
{
origin = (0,4);
target = (0,5);
type = Stem;
}
);
layerId = UUID0;
shapes = (
{
closed = 1;
nodes = (
(106,285,l),
(18,233,l),
(39,198,l),
(101,233,l),
(101,0,l),
(149,0,l),
(149,285,l)
);
}
);
width = 230;
}
);
},
{
glyphname = two.dnom;
layers = (
{
hints = (
{
horizontal = 1;
origin = (0,0);
target = (0,3);
type = Stem;
},
{
horizontal = 1;
origin = (0,20);
target = (0,11);
type = Stem;
},
{
origin = (0,15);
target = (0,16);
type = Stem;
},
{
origin = (0,24);
target = (0,7);
type = Stem;
}
);
layerId = UUID0;
shapes = (
{
closed = 1;
nodes = (
(26,0,l),
(204,0,l),
(204,43,l),
(87,43,l),
(158,128,ls),
(190,167,o),
(205,189,o),
(205,215,cs),
(205,219,ls),
(205,266,o),
(176,295,o),
(116,295,cs),
(56,295,o),
(31,266,o),
(31,219,cs),
(31,201,l),
(79,201,l),
(79,221,ls),
(79,240,o),
(91,252,o),
(118,252,cs),
(144,252,o),
(157,240,o),
(157,221,cs),
(157,215,ls),
(157,201,o),
(143,183,o),
(127,163,cs),
(26,39,l)
);
}
);
width = 230;
}
);
},
{
glyphname = three.dnom;
layers = (
{
hints = (
{
horizontal = 1;
origin = (0,38);
target = (0,29);
type = Stem;
},
{
horizontal = 1;
origin = (0,21);
target = (0,20);
type = Stem;
},
{
horizontal = 1;
origin = (0,12);
target = (0,3);
type = Stem;
},
{
origin = (0,35);
target = (0,32);
type = Stem;
},
{
origin = (0,16);
target = (0,48);
type = Stem;
},
{
origin = (0,26);
target = (0,41);
type = Stem;
}
);
layerId = UUID0;
shapes = (
{
closed = 1;
nodes = (
(200,219,ls),
(200,266,o),
(173,295,o),
(112,295,cs),
(52,295,o),
(26,266,o),
(26,219,cs),
(26,201,l),
(74,201,l),
(74,221,ls),
(74,240,o),
(86,252,o),
(113,252,cs),
(139,252,o),
(152,240,o),
(152,221,cs),
(152,192,ls),
(152,176,o),
(140,158,o),
(116,158,cs),
(74,158,l),
(74,120,l),
(121,120,ls),
(144,120,o),
(157,101,o),
(157,85,cs),
(157,64,ls),
(157,45,o),
(143,33,o),
(116,33,cs),
(87,33,o),
(74,45,o),
(74,64,cs),
(74,79,l),
(26,79,l),
(26,66,ls),
(26,20,o),
(53,-10,o),
(116,-10,cs),
(178,-10,o),
(205,20,o),
(205,66,cs),
(205,85,ls),
(205,111,o),
(194,129,o),
(166,139,c),
(190,150,o),
(200,169,o),
(200,192,cs)
);
}
);
width = 230;
}
);
},
{
glyphname = four.dnom;
layers = (
{
hints = (
{
horizontal = 1;
origin = (1,0);
target = (0,2);
type = Stem;
},
{
origin = (0,4);
target = (0,5);
type = Stem;
}
);
layerId = UUID0;
shapes = (
{
closed = 1;
nodes = (
(137,285,l),
(4,92,l),
(4,53,l),
(134,53,l),
(134,0,l),
(182,0,l),
(182,53,l),
(207,53,l),
(207,96,l),
(182,96,l),
(182,285,l)
);
},
{
closed = 1;
nodes = (
(57,96,l),
(134,202,l),
(134,96,l)
);
}
);
width = 230;
}
);
},
{
glyphname = five.dnom;
layers = (
{
hints = (
{
horizontal = 1;
origin = (0,18);
target = (0,9);
type = Stem;
},
{
horizontal = 1;
origin = (0,1);
target = (0,26);
type = Stem;
},
{
horizontal = 1;
origin = (0,27);
target = (0,0);
type = Stem;
},
{
origin = (0,1);
target = (0,26);
type = Stem;
},
{
origin = (0,6);
target = (0,21);
type = Stem;
},
{
origin = (0,15);
target = (0,12);
type = Stem;
}
);
layerId = UUID0;
shapes = (
{
closed = 1;
nodes = (
(31,285,l),
(31,135,l),
(121,135,ls),
(144,135,o),
(157,116,o),
(157,99,cs),
(157,64,ls),
(157,45,o),
(143,33,o),
(116,33,cs),
(87,33,o),
(74,45,o),
(74,64,cs),
(74,84,l),
(26,84,l),
(26,66,ls),
(26,20,o),
(53,-10,o),
(116,-10,cs),
(178,-10,o),
(205,20,o),
(205,66,cs),
(205,99,ls),
(205,145,o),
(177,178,o),
(121,178,cs),
(79,178,l),
(79,242,l),
(200,242,l),
(200,285,l)
);
}
);
width = 230;
}
);
},
{
glyphname = six.dnom;
layers = (
{
hints = (
{
horizontal = 1;
origin = (0,3);
target = (1,10);
type = Stem;
},
{
horizontal = 1;
origin = (1,3);
target = (0,10);
type = Stem;
},
{
horizontal = 1;
origin = (0,17);
target = (0,26);
type = Stem;
},
{
origin = (0,0);
target = (1,13);
type = Stem;
},
{
origin = (1,7);
target = (0,6);
type = Stem;
}
);
layerId = UUID0;
shapes = (
{
closed = 1;
nodes = (
(25,67,ls),
(25,20,o),
(54,-10,o),
(116,-10,cs),
(176,-10,o),
(205,20,o),
(205,66,cs),
(205,99,ls),
(205,146,o),
(175,175,o),
(115,175,cs),
(97,175,o),
(83,171,o),
(73,165,c),
(73,221,ls),
(73,241,o),
(86,252,o),
(115,252,cs),
(142,252,o),
(156,241,o),
(156,221,cs),
(156,201,l),
(204,201,l),
(204,219,ls),
(204,266,o),
(177,295,o),
(115,295,cs),
(52,295,o),
(25,266,o),
(25,219,cs)
);
},
{
closed = 1;
nodes = (
(73,103,l),
(75,121,o),
(88,132,o),
(115,132,cs),
(143,132,o),
(157,120,o),
(157,99,cs),
(157,66,ls),
(157,45,o),
(143,33,o),
(116,33,cs),
(87,33,o),
(73,45,o),
(73,66,cs)
);
}
);
width = 230;
}
);
},
{
glyphname = seven.dnom;
layers = (
{
hints = (
{
horizontal = 1;
origin = (0,2);
target = up;
type = BottomGhost;
},
{
horizontal = 1;
origin = (0,0);
target = (0,6);
type = Stem;
}
);
layerId = UUID0;
shapes = (
{
closed = 1;
nodes = (
(28,242,l),
(150,242,l),
(60,0,l),
(110,0,l),
(202,247,l),
(202,285,l),
(28,285,l)
);
}
);
width = 230;
}
);
},
{
glyphname = eight.dnom;
layers = (
{
hints = (
{
horizontal = 1;
origin = (0,3);
target = (1,7);
type = Stem;
},
{
horizontal = 1;
origin = (1,14);
target = (2,11);
type = Stem;
},
{
horizontal = 1;
origin = (2,3);
target = (0,17);
type = Stem;
},
{
origin = (0,0);
target = (1,10);
type = Stem;
},
{
origin = (2,7);
target = (0,13);
type = Stem;
},
{
origin = (1,4);
target = (0,6);
type = Stem;
}
);
layerId = UUID0;
shapes = (
{
closed = 1;
nodes = (
(26,66,ls),
(26,20,o),
(52,-10,o),
(115,-10,cs),
(177,-10,o),
(205,20,o),
(205,66,cs),
(205,88,ls),
(205,112,o),
(194,130,o),
(177,139,c),
(193,149,o),
(200,166,o),
(200,190,cs),
(200,219,ls),
(200,266,o),
(172,295,o),
(111,295,cs),
(51,295,o),
(26,266,o),
(26,219,cs),
(26,190,ls),
(26,164,o),
(33,148,o),
(50,138,c),
(35,129,o),
(26,111,o),
(26,88,cs)
);
},
{
closed = 1;
nodes = (
(120,120,ls),
(144,120,o),
(157,103,o),
(157,88,cs),
(157,64,ls),
(157,45,o),
(143,33,o),
(115,33,cs),
(87,33,o),
(74,45,o),
(74,64,cs),
(74,88,ls),
(74,103,o),
(86,120,o),
(110,120,cs)
);
},
{
closed = 1;
nodes = (
(74,221,ls),
(74,240,o),
(86,252,o),
(113,252,cs),
(139,252,o),
(152,240,o),
(152,221,cs),
(152,190,ls),
(152,174,o),
(139,158,o),
(115,158,cs),
(110,158,ls),
(85,158,o),
(74,174,o),
(74,190,cs)
);
}
);
width = 230;
}
);
},
{
glyphname = nine.dnom;
layers = (
{
hints = (
{
horizontal = 1;
origin = (0,26);
target = (0,17);
type = Stem;
},
{
horizontal = 1;
origin = (0,10);
target = (1,3);
type = Stem;
},
{
horizontal = 1;
origin = (1,10);
target = (0,3);
type = Stem;
},
{
origin = (0,7);
target = (1,6);
type = Stem;
},
{
origin = (0,14);
target = (0,29);
type = Stem;
}
);
layerId = UUID0;
shapes = (
{
closed = 1;
nodes = (
(205,219,ls),
(205,266,o),
(175,295,o),
(115,295,cs),
(53,295,o),
(25,266,o),
(25,219,cs),
(25,178,ls),
(25,132,o),
(54,102,o),
(116,102,cs),
(133,102,o),
(146,105,o),
(157,112,c),
(157,64,ls),
(157,44,o),
(143,33,o),
(116,33,cs),
(87,33,o),
(74,44,o),
(74,64,cs),
(74,75,l),
(26,75,l),
(26,66,ls),
(26,20,o),
(53,-10,o),
(116,-10,cs),
(178,-10,o),
(205,20,o),
(205,66,cs)
);
},
{
closed = 1;
nodes = (
(157,178,ls),
(157,157,o),
(143,145,o),
(116,145,cs),
(87,145,o),
(73,157,o),
(73,178,cs),
(73,219,ls),
(73,240,o),
(86,252,o),
(115,252,cs),
(143,252,o),
(157,240,o),
(157,219,cs)
);
}
);
width = 230;
}
);
},
{
glyphname = fraction;
layers = (
{
hints = (
{
horizontal = 1;
place = (316, 21);
target = up;
type = BottomGhost;
},
{
horizontal = 1;
place = (345, -20);
target = down;
type = TopGhost;
}
);
layerId = UUID0;
shapes = (
{
closed = 1;
nodes = (
(-82,117,l),
(107,538,l),
(78,551,l),
(-111,130,l)
);
}
);
width = 0;
}
);
unicode = 8260;
},
{
glyphname = "leftanglebracket-math";
layers = (
{
layerId = UUID0;
shapes = (
{
closed = 1;
nodes = (
(217,715,l),
(30,325,l),
(217,-65,l),
(290,-55,l),
(91,353,l),
(91,297,l),
(290,705,l)
);
}
);
width = 304;
}
);
unicode = 10216;
},
{
glyphname = period;
layers = (
{
hints = (
{
horizontal = 1;
origin = (0,3);
target = (0,2);
type = Stem;
},
{
origin = (0,3);
target = (0,0);
type = Stem;
}
);
layerId = UUID0;
shapes = (
{
closed = 1;
nodes = (
(175,0,l),
(175,110,l),
(85,110,l),
(85,0,l)
);
}
);
width = 260;
}
);
unicode = 46;
},
{
glyphname = comma;
layers = (
{
hints = (
{
horizontal = 1;
place = (110, -20);
target = down;
type = TopGhost;
},
{
horizontal = 1;
place = (-111, 21);
target = up;
type = BottomGhost;
}
);
layerId = UUID0;
shapes = (
{
closed = 1;
nodes = (
(175,15,l),
(175,110,l),
(85,110,l),
(85,9,l),
(109,0,l),
(94,-105,l),
(126,-111,l)
);
}
);
width = 260;
}
);
metricLeft = period;
metricRight = period;
unicode = 44;
},
{
glyphname = exclam;
layers = (
{
hints = (
{
place = (112, 65);
place = (112, 65);
type = Stem;
},
{
horizontal = 1;
place = (0, 21);
target = up;
type = BottomGhost;
},
{
horizontal = 1;
place = (650, -20);
target = down;
type = TopGhost;
}
);
layerId = UUID0;
shapes = (
{
closed = 1;
nodes = (
(180,0,l),
(180,110,l),
(110,110,l),
(110,0,l)
);
},
{
closed = 1;
nodes = (
(105,405,l),
(120,210,l),
(170,210,l),
(185,405,l),
(185,650,l),
(105,650,l)
);
}
);
width = 290;
}
);
unicode = 33;
},
{
glyphname = question;
layers = (
{
hints = (
{
place = (50, 70);
place = (50, 70);
type = Stem;
},
{
place = (176, 70);
place = (176, 70);
type = Stem;
},
{
place = (308, 70);
place = (308, 70);
type = Stem;
},
{
horizontal = 1;
place = (605, 60);
place = (605, 60);
type = Stem;
},
{
horizontal = 1;
place = (0, 21);
target = up;
type = BottomGhost;
}
);
layerId = UUID0;
shapes = (
{
closed = 1;
nodes = (
(246,0,l),
(246,110,l),
(176,110,l),
(176,0,l)
);
},
{
closed = 1;
nodes = (
(189,210,l),
(229,210,l),
(284,287,ls),
(347,375,o),
(378,427,o),
(378,475,cs),
(378,525,ls),
(378,612,o),
(325,665,o),
(211,665,cs),
(99,665,o),
(50,612,o),
(50,525,cs),
(50,440,l),
(120,440,l),
(120,529,ls),
(120,575,o),
(150,605,o),
(214,605,cs),
(278,605,o),
(308,575,o),
(308,529,cs),
(308,475,ls),
(308,435,o),
(264,378,o),
(230,329,cs),
(189,270,l)
);
}
);
width = 438;
}
);
unicode = 63;
},
{
glyphname = asterisk;
layers = (
{
hints = (
{
place = (166, 50);
place = (166, 50);
type = Stem;
},
{
horizontal = 1;
place = (680, -20);
target = down;
type = TopGhost;
},
{
horizontal = 1;
place = (424, 21);
target = up;
type = BottomGhost;
}
);
layerId = UUID0;
shapes = (
{
closed = 1;
nodes = (
(166,580,l),
(216,580,l),
(216,680,l),
(166,680,l)
);
},
{
closed = 1;
nodes = (
(154,534,l),
(166,580,l),
(67,606,l),
(55,560,l)
);
},
{
closed = 1;
nodes = (
(191,504,l),
(154,534,l),
(91,454,l),
(128,424,l)
);
},
{
closed = 1;
nodes = (
(327,560,l),
(315,606,l),
(216,580,l),
(228,534,l)
);
},
{
closed = 1;
nodes = (
(254,424,l),
(291,454,l),
(228,534,l),
(191,504,l)
);
}
);
width = 382;
}
);
unicode = 42;
},
{
glyphname = numbersign;
layers = (
{
hints = (
{
horizontal = 1;
place = (195, 60);
place = (195, 60);
type = Stem;
},
{
horizontal = 1;
place = (395, 60);
place = (395, 60);
type = Stem;
},
{
horizontal = 1;
place = (0, 21);
target = up;
type = BottomGhost;
},
{
horizontal = 1;
place = (650, -20);
target = down;
type = TopGhost;
}
);
layerId = UUID0;
shapes = (
{
closed = 1;
nodes = (
(170,0,l),
(270,650,l),
(210,650,l),
(110,0,l)
);
},
{
closed = 1;
nodes = (
(420,0,l),
(520,650,l),
(460,650,l),
(360,0,l)
);
},
{
closed = 1;
nodes = (
(590,455,l),
(71,455,l),
(71,395,l),
(590,395,l)
);
},
{
closed = 1;
nodes = (
(559,255,l),
(40,255,l),
(40,195,l),
(559,195,l)
);
}
);
width = 630;
}
);
unicode = 35;
},
{
glyphname = slash;
layers = (
{
hints = (
{
horizontal = 1;
place = (-100, 21);
target = up;
type = BottomGhost;
},
{
horizontal = 1;
place = (750, -20);
target = down;
type = TopGhost;
}
);
layerId = UUID0;
shapes = (
{
closed = 1;
nodes = (
(120,-100,l),
(320,750,l),
(260,750,l),
(60,-100,l)
);
}
);
width = 380;
}
);
unicode = 47;
},
{
glyphname = hyphen;
layers = (
{
hints = (
{
horizontal = 1;
place = (300, 60);
place = (300, 60);
type = Stem;
}
);
layerId = UUID0;
shapes = (
{
closed = 1;
nodes = (
(95,300,l),
(395,300,l),
(395,360,l),
(95,360,l)
);
}
);
width = 490;
}
);
unicode = 45;
},
{
glyphname = endash;
layers = (
{
hints = (
{
horizontal = 1;
place = (295, 60);
place = (295, 60);
type = Stem;
}
);
layerId = UUID0;
shapes = (
{
closed = 1;
nodes = (
(538,355,l),
(19,355,l),
(19,295,l),
(538,295,l)
);
}
);
width = 557;
}
);
unicode = 8211;
},
{
glyphname = emdash;
layers = (
{
hints = (
{
horizontal = 1;
place = (295, 60);
place = (295, 60);
type = Stem;
}
);
layerId = UUID0;
shapes = (
{
closed = 1;
nodes = (
(620,355,l),
(19,355,l),
(19,295,l),
(620,295,l)
);
}
);
width = 639;
}
);
unicode = 8212;
},
{
glyphname = underscore;
layers = (
{
hints = (
{
horizontal = 1;
place = (-60, 60);
place = (-60, 60);
type = Stem;
}
);
layerId = UUID0;
shapes = (
{
closed = 1;
nodes = (
(401,0,l),
(19,0,l),
(19,-60,l),
(401,-60,l)
);
}
);
width = 420;
}
);
unicode = 95;
},
{
glyphname = parenleft;
layers = (
{
hints = (
{
place = (85, 70);
place = (85, 70);
type = Stem;
},
{
horizontal = 1;
place = (-65, 60);
place = (-65, 60);
type = Stem;
},
{
horizontal = 1;
place = (655, 60);
place = (655, 60);
type = Stem;
}
);
layerId = UUID0;
shapes = (
{
closed = 1;
nodes = (
(85,75,ls),
(85,-12,o),
(141,-65,o),
(256,-65,c),
(256,-5,l),
(188,-5,o),
(155,25,o),
(155,75,cs),
(155,575,ls),
(155,625,o),
(187,655,o),
(257,655,c),
(257,715,l),
(139,715,o),
(85,662,o),
(85,575,cs)
);
}
);
width = 322;
}
);
unicode = 40;
},
{
glyphname = braceleft;
layers = (
{
hints = (
{
place = (85, 70);
place = (85, 70);
type = Stem;
},
{
horizontal = 1;
place = (-65, 60);
place = (-65, 60);
type = Stem;
},
{
horizontal = 1;
place = (300, 50);
place = (300, 50);
type = Stem;
},
{
horizontal = 1;
place = (655, 60);
place = (655, 60);
type = Stem;
}
);
layerId = UUID0;
shapes = (
{
closed = 1;
nodes = (
(85,75,ls),
(85,-12,o),
(139,-65,o),
(257,-65,c),
(257,-5,l),
(187,-5,o),
(155,25,o),
(155,75,cs),
(155,244,ls),
(155,287,o),
(129,310,o),
(85,320,c),
(85,328,l),
(129,338,o),
(155,362,o),
(155,406,cs),
(155,575,ls),
(155,625,o),
(187,655,o),
(257,655,c),
(257,715,l),
(139,715,o),
(85,662,o),
(85,575,cs),
(85,406,ls),
(85,380,o),
(66,350,o),
(26,350,c),
(26,300,l),
(66,300,o),
(85,270,o),
(85,244,cs)
);
}
);
width = 322;
}
);
unicode = 123;
},
{
glyphname = bracketleft;
layers = (
{
hints = (
{
place = (85, 70);
place = (85, 70);
type = Stem;
},
{
horizontal = 1;
place = (-60, 60);
place = (-60, 60);
type = Stem;
},
{
horizontal = 1;
place = (650, 60);
place = (650, 60);
type = Stem;
}
);
layerId = UUID0;
shapes = (
{
closed = 1;
nodes = (
(85,-60,l),
(256,-60,l),
(256,0,l),
(155,0,l),
(155,650,l),
(257,650,l),
(257,710,l),
(85,710,l)
);
}
);
width = 322;
}
);
unicode = 91;
},
{
glyphname = quoteleft;
kernLeft = quotedbl;
kernRight = quotedbl;
layers = (
{
hints = (
{
horizontal = 1;
place = (450, 21);
target = up;
type = BottomGhost;
},
{
horizontal = 1;
place = (671, -20);
target = down;
type = TopGhost;
}
);
layerId = UUID0;
shapes = (
{
closed = 1;
nodes = (
(50,539,l),
(50,440,l),
(140,440,l),
(140,546,l),
(116,555,l),
(131,665,l),
(99,671,l)
);
}
);
width = 190;
}
);
unicode = 8216;
},
{
glyphname = guilsinglleft;
kernLeft = guilsinglleft;
kernRight = guilsinglleft;
layers = (
{
hints = (
{
horizontal = 1;
place = (517, -20);
target = down;
type = TopGhost;
},
{
horizontal = 1;
place = (133, 21);
target = up;
type = BottomGhost;
}
);
layerId = UUID0;
shapes = (
{
closed = 1;
nodes = (
(125,325,l),
(242,474,l),
(193,517,l),
(60,347,l),
(60,303,l),
(193,133,l),
(242,176,l)
);
}
);
width = 282;
}
);
unicode = 8249;
},
{
glyphname = quotedbl;
kernLeft = quotedbl;
kernRight = quotedbl;
layers = (
{
hints = (
{
horizontal = 1;
place = (440, 21);
target = up;
type = BottomGhost;
},
{
horizontal = 1;
place = (665, -20);
target = down;
type = TopGhost;
}
);
layerId = UUID0;
shapes = (
{
closed = 1;
nodes = (
(85,605,l),
(115,440,l),
(145,440,l),
(175,605,l),
(175,665,l),
(85,665,l)
);
},
{
closed = 1;
nodes = (
(235,605,l),
(265,440,l),
(295,440,l),
(325,605,l),
(325,665,l),
(235,665,l)
);
}
);
width = 410;
}
);
unicode = 34;
},
{
glyphname = quotesingle;
layers = (
{
hints = (
{
horizontal = 1;
place = (440, 21);
target = up;
type = BottomGhost;
},
{
horizontal = 1;
place = (665, -20);
target = down;
type = TopGhost;
}
);
layerId = UUID0;
shapes = (
{
closed = 1;
nodes = (
(85,605,l),
(115,440,l),
(145,440,l),
(175,605,l),
(175,665,l),
(85,665,l)
);
}
);
width = 260;
}
);
unicode = 39;
},
{
glyphname = florin;
layers = (
{
hints = (
{
place = (190, 70);
place = (190, 70);
type = Stem;
},
{
place = (398, 70);
place = (398, 70);
type = Stem;
},
{
horizontal = 1;
place = (294, 50);
place = (294, 50);
type = Stem;
},
{
horizontal = 1;
place = (609, 60);
place = (609, 60);
type = Stem;
},
{
horizontal = 1;
place = (-107, 21);
target = up;
type = BottomGhost;
}
);
layerId = UUID0;
shapes = (
{
closed = 1;
nodes = (
(144,-107,l),
(223,-93,o),
(260,-44,o),
(260,29,cs),
(260,533,ls),
(260,579,o),
(283,609,o),
(333,609,cs),
(377,609,o),
(398,579,o),
(398,533,cs),
(398,494,l),
(468,494,l),
(468,529,ls),
(468,616,o),
(419,669,o),
(335,669,cs),
(243,669,o),
(190,616,o),
(190,529,cs),
(190,25,ls),
(190,-17,o),
(178,-39,o),
(125,-48,c)
);
},
{
closed = 1;
nodes = (
(398,344,l),
(90,344,l),
(90,294,l),
(398,294,l)
);
}
);
width = 510;
}
);
unicode = 402;
},
{
glyphname = apple;
layers = (
{
hints = (
{
horizontal = 1;
place = (-102, 89);
place = (-102, 89);
type = Stem;
},
{
horizontal = 1;
place = (77, 40);
place = (77, 40);
type = Stem;
},
{
horizontal = 1;
place = (360, 57);
place = (360, 57);
type = Stem;
},
{
horizontal = 1;
place = (509, 77);
place = (509, 77);
type = Stem;
},
{
horizontal = 1;
place = (-88, -20);
target = down;
type = TopGhost;
},
{
horizontal = 1;
place = (-89, -20);
target = down;
type = TopGhost;
},
{
horizontal = 1;
place = (608, -20);
target = down;
type = TopGhost;
},
{
horizontal = 1;
place = (-91, -20);
target = down;
type = TopGhost;
},
{
horizontal = 1;
place = (-114, 21);
target = up;
type = BottomGhost;
},
{
horizontal = 1;
place = (-6, 21);
target = up;
type = BottomGhost;
},
{
horizontal = 1;
place = (-15, 21);
target = up;
type = BottomGhost;
}
);
layerId = UUID0;
shapes = (
{
closed = 1;
nodes = (
(579,-88,o),
(583,-88,o),
(586,-88,cs),
(594,-88,o),
(601,-89,o),
(609,-89,cs),
(635,-89,o),
(637,-70,o),
(654,-60,cs),
(669,-52,o),
(690,-51,o),
(703,-42,cs),
(716,-33,o),
(721,-11,o),
(733,1,cs),
(743,11,o),
(759,12,o),
(768,23,cs),
(779,36,o),
(778,60,o),
(786,74,cs),
(796,91,o),
(820,92,o),
(820,120,cs),
(820,130,o),
(818,141,o),
(818,152,cs),
(818,177,o),
(840,180,o),
(843,200,c),
(843,214,o),
(832,229,o),
(832,244,cs),
(832,257,o),
(843,269,o),
(843,283,cs),
(843,305,o),
(819,319,o),
(819,344,cs),
(819,352,o),
(820,360,o),
(820,369,cs),
(820,397,o),
(795,400,o),
(784,418,cs),
(778,428,o),
(783,450,o),
(777,460,cs),
(766,479,o),
(740,483,o),
(726,496,cs),
(714,508,o),
(716,526,o),
(703,535,cs),
(689,545,o),
(673,542,o),
(658,550,cs),
(639,560,o),
(637,586,o),
(610,586,cs),
(600,586,o),
(590,583,o),
(582,583,cs),
(558,583,o),
(551,608,o),
(525,608,cs),
(511,608,o),
(494,596,o),
(480,596,cs),
(467,596,o),
(449,608,o),
(436,608,cs),
(414,608,o),
(406,585,o),
(381,585,cs),
(372,585,o),
(363,587,o),
(355,587,cs),
(330,586,o),
(323,558,o),
(306,549,cs),
(290,541,o),
(268,543,o),
(255,532,cs),
(244,522,o),
(240,501,o),
(230,491,cs),
(219,480,o),
(198,480,o),
(190,467,cs),
(183,456,o),
(186,435,o),
(179,424,cs),
(169,407,o),
(144,401,o),
(144,376,cs),
(144,368,o),
(145,359,o),
(145,351,cs),
(145,332,o),
(120,311,o),
(120,290,cs),
(120,275,o),
(132,265,o),
(132,248,cs),
(132,233,o),
(120,218,o),
(120,204,cs),
(120,183,o),
(145,168,o),
(145,149,cs),
(145,141,o),
(142,133,o),
(142,124,cs),
(142,98,o),
(168,87,o),
(176,75,cs),
(187,57,o),
(180,46,o),
(191,28,cs),
(201,12,o),
(217,15,o),
(230,4,cs),
(243,-7,o),
(242,-31,o),
(260,-42,cs),
(276,-52,o),
(283,-43,o),
(306,-55,cs),
(319,-62,o),
(331,-91,o),
(357,-91,cs),
(364,-91,o),
(373,-89,o),
(381,-89,cs),
(405,-89,o),
(416,-114,o),
(436,-114,cs),
(451,-114,o),
(466,-102,o),
(482,-102,cs),
(497,-102,o),
(513,-112,o),
(528,-112,cs),
(545,-112,o),
(558,-94,o),
(576,-89,cs)
);
},
{
closed = 1;
nodes = (
(537,0,o),
(527,-13,o),
(515,-13,cs),
(504,-13,o),
(493,-6,o),
(482,-6,cs),
(470,-6,o),
(458,-15,o),
(446,-15,c),
(432,-13,o),
(425,3,o),
(406,3,cs),
(401,3,o),
(396,2,o),
(391,2,cs),
(372,2,o),
(365,23,o),
(354,28,cs),
(337,37,o),
(332,29,o),
(321,37,cs),
(308,45,o),
(309,63,o),
(299,71,cs),
(290,79,o),
(278,77,o),
(271,88,cs),
(263,101,o),
(268,110,o),
(260,123,cs),
(255,132,o),
(235,139,o),
(235,158,cs),
(235,163,o),
(237,169,o),
(237,174,cs),
(237,189,o),
(220,200,o),
(220,215,cs),
(220,226,o),
(228,237,o),
(228,248,cs),
(228,260,o),
(220,267,o),
(220,278,cs),
(220,294,o),
(237,308,o),
(237,324,cs),
(237,329,o),
(236,335,o),
(236,340,cs),
(236,359,o),
(255,363,o),
(262,376,cs),
(267,384,o),
(265,399,o),
(270,407,cs),
(277,416,o),
(291,416,o),
(299,424,cs),
(307,432,o),
(309,447,o),
(318,454,cs),
(327,462,o),
(343,460,o),
(354,466,cs),
(367,472,o),
(371,493,o),
(390,493,cs),
(396,493,o),
(401,492,o),
(407,492,cs),
(426,492,o),
(433,509,o),
(449,509,cs),
(459,509,o),
(471,500,o),
(481,500,cs),
(491,500,o),
(503,509,o),
(514,509,cs),
(533,509,o),
(536,491,o),
(555,491,cs),
(561,491,o),
(568,493,o),
(575,493,cs),
(595,493,o),
(596,474,o),
(609,467,cs),
(621,460,o),
(632,464,o),
(642,456,cs),
(652,449,o),
(650,436,o),
(659,428,cs),
(669,418,o),
(688,415,o),
(696,402,cs),
(700,394,o),
(697,379,o),
(701,371,cs),
(709,357,o),
(727,356,o),
(727,335,cs),
(727,329,o),
(726,323,o),
(726,318,cs),
(726,300,o),
(744,289,o),
(744,273,cs),
(744,264,o),
(736,254,o),
(736,245,cs),
(736,234,o),
(744,223,o),
(744,213,c),
(741,199,o),
(726,196,o),
(726,177,cs),
(726,171,o),
(727,164,o),
(727,157,cs),
(727,133,o),
(711,136,o),
(703,122,cs),
(697,111,o),
(697,94,o),
(690,84,cs),
(683,76,o),
(671,76,o),
(664,68,cs),
(656,60,o),
(652,45,o),
(642,38,cs),
(633,31,o),
(617,30,o),
(607,24,c),
(595,19,o),
(594,3,o),
(574,3,cs),
(569,3,o),
(564,4,o),
(559,4,cs),
(556,4,o),
(553,4,o),
(550,3,cs)
);
},
{
closed = 1;
nodes = (
(388,417,o),
(312,341,o),
(312,247,cs),
(312,153,o),
(388,77,o),
(482,77,cs),
(576,77,o),
(652,153,o),
(652,247,cs),
(652,341,o),
(576,417,o),
(482,417,cs)
);
},
{
closed = 1;
nodes = (
(525,292,l),
(525,117,l),
(440,117,l),
(440,292,l),
(386,292,l),
(386,360,l),
(577,360,l),
(577,292,l)
);
}
);
width = 963;
}
);
unicode = 63743;
},
{
glyphname = at;
layers = (
{
hints = (
{
place = (120, 52);
place = (120, 52);
type = Stem;
},
{
place = (246, 65);
place = (246, 65);
type = Stem;
},
{
place = (433, 64);
place = (433, 64);
type = Stem;
},
{
place = (574, 52);
place = (574, 52);
type = Stem;
},
{
horizontal = 1;
place = (-65, 45);
place = (-65, 45);
type = Stem;
},
{
horizontal = 1;
place = (51, 52);
place = (51, 52);
type = Stem;
},
{
horizontal = 1;
place = (291, 51);
place = (291, 51);
type = Stem;
},
{
horizontal = 1;
place = (548, 52);
place = (548, 52);
type = Stem;
},
{
horizontal = 1;
place = (670, 45);
place = (670, 45);
type = Stem;
}
);
layerId = UUID0;
shapes = (
{
closed = 1;
nodes = (
(574,168,l),
(574,143,ls),
(574,35,o),
(510,-20,o),
(374,-20,cs),
(238,-20,o),
(172,36,o),
(172,143,cs),
(172,507,ls),
(172,614,o),
(236,670,o),
(371,670,cs),
(508,670,o),
(574,614,o),
(574,507,cs),
(574,342,l),
(626,342,l),
(626,507,ls),
(626,636,o),
(543,715,o),
(371,715,cs),
(200,715,o),
(120,636,o),
(120,507,cs),
(120,143,ls),
(120,14,o),
(203,-65,o),
(374,-65,cs),
(545,-65,o),
(626,14,o),
(626,143,cs),
(626,168,l)
);
},
{
closed = 1;
nodes = (
(497,489,ls),
(497,559,o),
(456,600,o),
(371,600,cs),
(285,600,o),
(246,559,o),
(246,489,cs),
(246,405,l),
(311,405,l),
(311,492,ls),
(311,526,o),
(330,548,o),
(371,548,cs),
(411,548,o),
(433,526,o),
(433,492,cs),
(433,342,l),
(356,342,ls),
(267,342,o),
(239,299,o),
(239,235,cs),
(239,162,ls),
(239,92,o),
(280,51,o),
(365,51,cs),
(454,51,o),
(497,92,o),
(497,162,cs)
);
},
{
closed = 1;
nodes = (
(433,159,ls),
(433,125,o),
(413,103,o),
(369,103,cs),
(325,103,o),
(305,124,o),
(305,158,cs),
(305,238,ls),
(305,266,o),
(312,291,o),
(351,291,cs),
(433,291,l)
);
},
{
closed = 1;
nodes = (
(497,291,l),
(626,291,l),
(626,342,l),
(497,342,l)
);
}
);
width = 746;
}
);
unicode = 64;
},
{
glyphname = ampersand;
layers = (
{
hints = (
{
place = (70, 70);
place = (70, 70);
type = Stem;
},
{
place = (90, 70);
place = (90, 70);
type = Stem;
},
{
place = (348, 60);
place = (348, 60);
type = Stem;
},
{
horizontal = 1;
place = (-15, 60);
place = (-15, 60);
type = Stem;
},
{
horizontal = 1;
place = (300, 60);
place = (300, 60);
type = Stem;
},
{
horizontal = 1;
place = (605, 60);
place = (605, 60);
type = Stem;
}
);
layerId = UUID0;
shapes = (
{
closed = 1;
nodes = (
(232,337,l),
(198,384,o),
(160,437,o),
(160,475,cs),
(160,529,ls),
(160,575,o),
(190,605,o),
(254,605,cs),
(318,605,o),
(348,575,o),
(348,529,cs),
(348,440,l),
(418,440,l),
(418,525,ls),
(418,612,o),
(369,665,o),
(257,665,cs),
(143,665,o),
(90,612,o),
(90,525,cs),
(90,475,ls),
(90,434,o),
(114,390,o),
(160,322,c)
);
},
{
closed = 1;
nodes = (
(70,125,ls),
(70,38,o),
(121,-15,o),
(239,-15,cs),
(357,-15,o),
(408,38,o),
(408,125,cs),
(408,300,l),
(338,300,l),
(338,121,ls),
(338,75,o),
(306,45,o),
(239,45,cs),
(172,45,o),
(140,75,o),
(140,121,cs),
(140,215,ls),
(140,254,o),
(150,300,o),
(209,300,cs),
(489,300,l),
(489,360,l),
(209,360,ls),
(103,360,o),
(70,301,o),
(70,215,cs)
);
}
);
width = 510;
}
);
unicode = 38;
},
{
glyphname = paragraph;
layers = (
{
hints = (
{
place = (50, 70);
place = (50, 70);
type = Stem;
},
{
place = (169, 70);
place = (169, 70);
type = Stem;
},
{
place = (308, 70);
place = (308, 70);
type = Stem;
},
{
horizontal = 1;
place = (240, 60);
place = (240, 60);
type = Stem;
},
{
horizontal = 1;
place = (605, 60);
place = (605, 60);
type = Stem;
},
{
horizontal = 1;
place = (0, 21);
target = up;
type = BottomGhost;
}
);
layerId = UUID0;
shapes = (
{
closed = 1;
nodes = (
(239,300,l),
(198,349,ls),
(160,395,o),
(120,435,o),
(120,475,cs),
(120,529,ls),
(120,575,o),
(150,605,o),
(214,605,cs),
(278,605,o),
(308,575,o),
(308,529,cs),
(308,0,l),
(378,0,l),
(378,525,ls),
(378,612,o),
(329,665,o),
(217,665,cs),
(103,665,o),
(50,612,o),
(50,525,cs),
(50,475,ls),
(50,427,o),
(75,391,o),
(144,307,cs),
(199,240,l),
(239,240,l)
);
},
{
closed = 1;
nodes = (
(169,300,l),
(169,0,l),
(239,0,l),
(239,300,l)
);
}
);
width = 478;
}
);
unicode = 182;
},
{
glyphname = section;
layers = (
{
hints = (
{
place = (70, 70);
place = (70, 70);
type = Stem;
},
{
horizontal = 1;
place = (-70, 60);
place = (-70, 60);
type = Stem;
},
{
horizontal = 1;
place = (675, 60);
place = (675, 60);
type = Stem;
}
);
layerId = UUID0;
shapes = (
{
closed = 1;
nodes = (
(328,325,l),
(328,360,l),
(221,466,ls),
(151,536,o),
(140,554,o),
(140,585,cs),
(140,599,ls),
(140,645,o),
(170,675,o),
(234,675,cs),
(298,675,o),
(328,645,o),
(328,599,cs),
(328,540,l),
(398,540,l),
(398,595,ls),
(398,682,o),
(349,735,o),
(237,735,cs),
(123,735,o),
(70,682,o),
(70,595,cs),
(70,585,ls),
(70,537,o),
(93,498,o),
(128,463,cs),
(267,325,l)
);
},
{
closed = 1;
nodes = (
(355,-70,o),
(408,-17,o),
(408,70,cs),
(408,80,ls),
(408,128,o),
(385,167,o),
(350,202,cs),
(211,340,l),
(150,340,l),
(150,305,l),
(257,199,ls),
(327,129,o),
(338,111,o),
(338,80,cs),
(338,66,ls),
(338,20,o),
(308,-10,o),
(244,-10,cs),
(180,-10,o),
(150,20,o),
(150,66,cs),
(150,125,l),
(80,125,l),
(80,70,ls),
(80,-17,o),
(129,-70,o),
(241,-70,cs)
);
}
);
width = 478;
}
);
unicode = 167;
},
{
glyphname = copyright;
layers = (
{
hints = (
{
place = (162, 48);
place = (162, 48);
type = Stem;
},
{
place = (289, 48);
place = (289, 48);
type = Stem;
},
{
horizontal = 1;
place = (290, 43);
place = (290, 43);
type = Stem;
},
{
horizontal = 1;
place = (552, 43);
place = (552, 43);
type = Stem;
},
{
horizontal = 1;
place = (665, -20);
target = down;
type = TopGhost;
},
{
horizontal = 1;
place = (218, 21);
target = up;
type = BottomGhost;
}
);
layerId = UUID0;
shapes = (
{
closed = 1;
nodes = (
(289,366,ls),
(289,345,o),
(276,333,o),
(250,333,cs),
(223,333,o),
(210,345,o),
(210,366,cs),
(210,519,ls),
(210,540,o),
(222,552,o),
(249,552,cs),
(276,552,o),
(289,540,o),
(289,519,cs),
(289,466,l),
(337,466,l),
(337,519,ls),
(337,566,o),
(309,595,o),
(249,595,cs),
(189,595,o),
(162,566,o),
(162,519,cs),
(162,366,ls),
(162,320,o),
(190,290,o),
(250,290,cs),
(309,290,o),
(337,320,o),
(337,366,cs),
(337,400,l),
(289,400,l)
);
},
{
closed = 1;
nodes = (
(420,525,ls),
(420,612,o),
(364,665,o),
(249,665,cs),
(134,665,o),
(80,612,o),
(80,525,cs),
(80,358,ls),
(80,271,o),
(136,218,o),
(251,218,cs),
(366,218,o),
(420,271,o),
(420,358,cs)
);
},
{
closed = 1;
nodes = (
(385,358,l),
(385,285,o),
(342,248,o),
(251,248,cs),
(159,248,o),
(115,286,o),
(115,358,cs),
(115,525,ls),
(115,597,o),
(158,635,o),
(249,635,cs),
(341,635,o),
(385,597,o),
(385,525,cs)
);
}
);
width = 500;
}
);
unicode = 169;
},
{
glyphname = registered;
layers = (
{
hints = (
{
place = (169, 48);
place = (169, 48);
type = Stem;
},
{
place = (286, 48);
place = (286, 48);
type = Stem;
},
{
horizontal = 1;
place = (542, 43);
place = (542, 43);
type = Stem;
},
{
horizontal = 1;
place = (665, -20);
target = down;
type = TopGhost;
},
{
horizontal = 1;
place = (218, 21);
target = up;
type = BottomGhost;
}
);
layerId = UUID0;
shapes = (
{
closed = 1;
nodes = (
(420,525,ls),
(420,612,o),
(364,665,o),
(249,665,cs),
(134,665,o),
(80,612,o),
(80,525,cs),
(80,358,ls),
(80,271,o),
(136,218,o),
(251,218,cs),
(366,218,o),
(420,271,o),
(420,358,cs)
);
},
{
closed = 1;
nodes = (
(385,358,l),
(385,285,o),
(342,248,o),
(251,248,cs),
(159,248,o),
(115,286,o),
(115,358,cs),
(115,525,ls),
(115,597,o),
(158,635,o),
(249,635,cs),
(341,635,o),
(385,597,o),
(385,525,cs)
);
},
{
closed = 1;
nodes = (
(217,300,l),
(217,403,l),
(248,403,l),
(298,300,l),
(350,300,l),
(294,411,l),
(321,422,o),
(334,445,o),
(334,478,cs),
(334,509,ls),
(334,555,o),
(306,585,o),
(249,585,cs),
(169,585,l),
(169,300,l)
);
},
{
closed = 1;
nodes = (
(286,478,ls),
(286,457,o),
(273,446,o),
(249,446,cs),
(217,446,l),
(217,542,l),
(249,542,ls),
(273,542,o),
(286,529,o),
(286,509,cs)
);
}
);
width = 500;
}
);
unicode = 174;
},
{
glyphname = trademark;
layers = (
{
hints = (
{
place = (94, 48);
place = (94, 48);
type = Stem;
},
{
place = (242, 48);
place = (242, 48);
type = Stem;
},
{
place = (421, 48);
place = (421, 48);
type = Stem;
},
{
horizontal = 1;
place = (607, 43);
place = (607, 43);
type = Stem;
},
{
horizontal = 1;
place = (365, 21);
target = up;
type = BottomGhost;
}
);
layerId = UUID0;
shapes = (
{
closed = 1;
nodes = (
(290,365,l),
(290,565,l),
(294,565,l),
(337,414,l),
(374,414,l),
(417,565,l),
(421,565,l),
(421,365,l),
(469,365,l),
(469,650,l),
(401,650,l),
(355,482,l),
(310,650,l),
(242,650,l),
(242,365,l)
);
},
{
closed = 1;
nodes = (
(205,650,l),
(30,650,l),
(30,607,l),
(94,607,l),
(94,365,l),
(142,365,l),
(142,607,l),
(205,607,l)
);
}
);
width = 544;
}
);
unicode = 8482;
},
{
glyphname = degree;
layers = (
{
hints = (
{
place = (85, 48);
place = (85, 48);
type = Stem;
},
{
place = (246, 48);
place = (246, 48);
type = Stem;
},
{
horizontal = 1;
place = (391, 43);
place = (391, 43);
type = Stem;
},
{
horizontal = 1;
place = (623, 42);
place = (623, 42);
type = Stem;
}
);
layerId = UUID0;
shapes = (
{
closed = 1;
nodes = (
(294,590,ls),
(294,637,o),
(260,665,o),
(190,665,cs),
(118,665,o),
(85,637,o),
(85,590,cs),
(85,466,ls),
(85,420,o),
(119,391,o),
(191,391,cs),
(261,391,o),
(294,420,o),
(294,466,cs)
);
},
{
closed = 1;
nodes = (
(246,466,ls),
(246,446,o),
(228,434,o),
(192,434,cs),
(152,434,o),
(133,446,o),
(133,466,cs),
(133,590,ls),
(133,611,o),
(151,623,o),
(190,623,cs),
(228,623,o),
(246,611,o),
(246,590,cs)
);
}
);
width = 379;
}
);
unicode = 176;
},
{
glyphname = minute;
layers = (
{
guides = (
{
angle = 83.991;
pos = (122,722);
},
{
angle = 83.991;
pos = (46,730);
}
);
layerId = UUID0;
shapes = (
{
closed = 1;
nodes = (
(38,728,l),
(30,496,l),
(66,493,l),
(116,653,l),
(118,725,l)
);
}
);
width = 148;
}
);
unicode = 8242;
},
{
glyphname = bar;
layers = (
{
hints = (
{
place = (110, 60);
place = (110, 60);
type = Stem;
},
{
horizontal = 1;
place = (-100, 21);
target = up;
type = BottomGhost;
},
{
horizontal = 1;
place = (750, -20);
target = down;
type = TopGhost;
}
);
layerId = UUID0;
shapes = (
{
closed = 1;
nodes = (
(100,-100,l),
(160,-100,l),
(160,750,l),
(100,750,l)
);
}
);
width = 260;
}
);
unicode = 124;
},
{
glyphname = brokenbar;
layers = (
{
hints = (
{
place = (110, 60);
place = (110, 60);
type = Stem;
},
{
horizontal = 1;
place = (-100, 21);
target = up;
type = BottomGhost;
},
{
horizontal = 1;
place = (750, -20);
target = down;
type = TopGhost;
}
);
layerId = UUID0;
shapes = (
{
closed = 1;
nodes = (
(100,-100,l),
(160,-100,l),
(160,220,l),
(100,220,l)
);
},
{
closed = 1;
nodes = (
(100,430,l),
(160,430,l),
(160,750,l),
(100,750,l)
);
}
);
width = 260;
}
);
unicode = 166;
},
{
glyphname = dagger;
layers = (
{
hints = (
{
place = (185, 70);
place = (185, 70);
type = Stem;
},
{
horizontal = 1;
place = (490, 60);
place = (490, 60);
type = Stem;
},
{
horizontal = 1;
place = (0, 21);
target = up;
type = BottomGhost;
},
{
horizontal = 1;
place = (700, -20);
target = down;
type = TopGhost;
}
);
layerId = UUID0;
shapes = (
{
closed = 1;
nodes = (
(60,490,l),
(185,490,l),
(185,0,l),
(255,0,l),
(255,490,l),
(380,490,l),
(380,550,l),
(255,550,l),
(255,700,l),
(185,700,l),
(185,550,l),
(60,550,l)
);
}
);
width = 440;
}
);
unicode = 8224;
},
{
glyphname = literSign;
layers = (
{
hints = (
{
place = (85, 70);
place = (85, 70);
type = Stem;
},
{
horizontal = 1;
place = (-15, 60);
place = (-15, 60);
type = Stem;
},
{
horizontal = 1;
place = (650, -20);
target = down;
type = TopGhost;
}
);
layerId = UUID0;
shapes = (
{
closed = 1;
nodes = (
(260,84,l),
(252,65,o),
(225,45,o),
(201,45,cs),
(164,45,o),
(155,75,o),
(155,111,cs),
(155,650,l),
(85,650,l),
(85,115,ls),
(85,28,o),
(128,-15,o),
(201,-15,cs),
(251,-15,o),
(287,8,o),
(312,51,c)
);
}
);
width = 312;
}
);
unicode = 8467;
},
{
glyphname = daggerdbl;
layers = (
{
hints = (
{
place = (185, 70);
place = (185, 70);
type = Stem;
},
{
horizontal = 1;
place = (150, 60);
place = (150, 60);
type = Stem;
},
{
horizontal = 1;
place = (490, 60);
place = (490, 60);
type = Stem;
},
{
horizontal = 1;
place = (0, 21);
target = up;
type = BottomGhost;
},
{
horizontal = 1;
place = (700, -20);
target = down;
type = TopGhost;
}
);
layerId = UUID0;
shapes = (
{
closed = 1;
nodes = (
(60,490,l),
(185,490,l),
(185,210,l),
(60,210,l),
(60,150,l),
(185,150,l),
(185,0,l),
(255,0,l),
(255,150,l),
(380,150,l),
(380,210,l),
(255,210,l),
(255,490,l),
(380,490,l),
(380,550,l),
(255,550,l),
(255,700,l),
(185,700,l),
(185,550,l),
(60,550,l)
);
}
);
width = 440;
}
);
unicode = 8225;
},
{
glyphname = estimated;
layers = (
{
hints = (
{
horizontal = 1;
origin = (0,0);
target = (1,8);
type = Stem;
},
{
origin = (0,14);
target = (0,0);
type = Stem;
},
{
horizontal = 1;
origin = (1,4);
target = (0,17);
type = Stem;
},
{
horizontal = 1;
origin = (0,11);
target = (0,4);
type = Stem;
},
{
origin = (1,0);
target = (0,20);
type = Stem;
}
);
layerId = UUID0;
shapes = (
{
closed = 1;
nodes = (
(415,-17,o),
(467,26,o),
(536,118,c),
(501,139,l),
(455,59,o),
(391,19,o),
(308,19,cs),
(253,19,o),
(204,39,o),
(163,78,c),
(163,259,l),
(567,259,l),
(560,413,o),
(479,535,o),
(308,535,cs),
(148,535,o),
(50,422,o),
(50,259,cs),
(50,107,o),
(144,-17,o),
(308,-17,cs)
);
},
{
closed = 1;
nodes = (
(163,440,l),
(202,480,o),
(250,500,o),
(307,500,cs),
(363,500,o),
(412,480,o),
(454,440,c),
(454,295,l),
(163,295,l)
);
}
);
width = 617;
}
);
unicode = 8494;
},
{
glyphname = cent;
layers = (
{
hints = (
{
horizontal = 1;
place = (35, 61);
place = (35, 61);
type = Stem;
},
{
horizontal = 1;
place = (554, 61);
place = (554, 61);
type = Stem;
},
{
origin = (0,23);
target = (0,6);
type = Stem;
},
{
origin = (1,0);
target = (1,1);
type = Stem;
},
{
origin = (0,0);
target = (0,29);
type = Stem;
}
);
layerId = UUID0;
shapes = (
{
closed = 1;
nodes = (
(355,175,ls),
(355,125,o),
(325,95,o),
(261,95,cs),
(196,95,o),
(165,125,o),
(165,175,cs),
(165,475,ls),
(165,525,o),
(195,555,o),
(259,555,cs),
(324,555,o),
(355,525,o),
(355,475,cs),
(355,410,l),
(425,410,l),
(425,475,ls),
(425,562,o),
(371,615,o),
(259,615,cs),
(147,615,o),
(95,562,o),
(95,475,cs),
(95,175,ls),
(95,88,o),
(149,35,o),
(261,35,cs),
(373,35,o),
(425,88,o),
(425,175,cs),
(425,200,l),
(355,200,l)
);
},
{
closed = 1;
nodes = (
(245,-100,l),
(295,-100,l),
(295,750,l),
(245,750,l)
);
}
);
width = 510;
}
);
unicode = 162;
},
{
glyphname = colonsign;
layers = (
{
anchors = (
{
name = bottom;
pos = (245,0);
},
{
name = top;
pos = (245,650);
}
);
hints = (
{
place = (85, 70);
place = (85, 70);
type = Stem;
},
{
place = (345, 70);
place = (345, 70);
type = Stem;
},
{
horizontal = 1;
place = (-15, 60);
place = (-15, 60);
type = Stem;
},
{
horizontal = 1;
place = (605, 60);
place = (605, 60);
type = Stem;
}
);
layerId = UUID0;
shapes = (
{
closed = 1;
nodes = (
(373,586,l),
(370,631,l),
(343,653,o),
(303,665,o),
(249,665,cs),
(137,665,o),
(85,612,o),
(85,525,cs),
(85,125,ls),
(85,38,o),
(139,-15,o),
(251,-15,cs),
(363,-15,o),
(415,38,o),
(415,125,cs),
(415,180,l),
(345,180,l),
(345,125,ls),
(345,75,o),
(315,45,o),
(251,45,cs),
(186,45,o),
(155,75,o),
(155,125,cs),
(155,525,ls),
(155,575,o),
(185,605,o),
(249,605,cs),
(299,605,o),
(334,591,o),
(355,566,c)
);
},
{
pos = (23,0);
ref = thinbar;
},
{
pos = (138,0);
ref = thinbar;
}
);
width = 490;
}
);
unicode = 8353;
},
{
glyphname = currency;
layers = (
{
hints = (
{
place = (106, 70);
place = (106, 70);
type = Stem;
},
{
place = (336, 70);
place = (336, 70);
type = Stem;
},
{
horizontal = 1;
place = (160, 60);
place = (160, 60);
type = Stem;
},
{
horizontal = 1;
place = (430, 60);
place = (430, 60);
type = Stem;
},
{
horizontal = 1;
place = (558, -20);
target = down;
type = TopGhost;
},
{
horizontal = 1;
place = (92, 21);
target = up;
type = BottomGhost;
}
);
layerId = UUID0;
shapes = (
{
closed = 1;
nodes = (
(406,350,ls),
(406,437,o),
(357,490,o),
(255,490,cs),
(153,490,o),
(106,437,o),
(106,350,cs),
(106,300,ls),
(106,213,o),
(155,160,o),
(257,160,cs),
(359,160,o),
(406,213,o),
(406,300,cs)
);
},
{
closed = 1;
nodes = (
(336,300,ls),
(336,250,o),
(311,220,o),
(257,220,cs),
(202,220,o),
(176,250,o),
(176,300,cs),
(176,350,ls),
(176,400,o),
(201,430,o),
(255,430,cs),
(310,430,o),
(336,400,o),
(336,350,cs)
);
},
{
closed = 1;
nodes = (
(143,402,l),
(178,437,l),
(57,558,l),
(22,523,l)
);
},
{
closed = 1;
nodes = (
(453,92,l),
(488,127,l),
(367,248,l),
(332,213,l)
);
},
{
closed = 1;
nodes = (
(178,213,l),
(143,248,l),
(22,127,l),
(57,92,l)
);
},
{
closed = 1;
nodes = (
(488,523,l),
(453,558,l),
(332,437,l),
(367,402,l)
);
}
);
width = 510;
}
);
unicode = 164;
},
{
glyphname = dollar;
layers = (
{
hints = (
{
place = (86, 70);
place = (86, 70);
type = Stem;
},
{
place = (230, 50);
place = (230, 50);
type = Stem;
},
{
horizontal = 1;
place = (-15, 60);
place = (-15, 60);
type = Stem;
},
{
horizontal = 1;
place = (605, 60);
place = (605, 60);
type = Stem;
},
{
horizontal = 1;
place = (-100, 21);
target = up;
type = BottomGhost;
},
{
horizontal = 1;
place = (750, -20);
target = down;
type = TopGhost;
}
);
layerId = UUID0;
shapes = (
{
closed = 1;
nodes = (
(194,433,ls),
(160,464,o),
(156,487,o),
(156,529,cs),
(156,575,o),
(186,605,o),
(250,605,cs),
(314,605,o),
(344,575,o),
(344,529,cs),
(344,440,l),
(414,440,l),
(414,525,ls),
(414,612,o),
(365,665,o),
(253,665,cs),
(139,665,o),
(86,612,o),
(86,525,cs),
(86,467,o),
(98,432,o),
(140,390,cs),
(316,218,ls),
(349,186,o),
(354,162,o),
(354,121,cs),
(354,75,o),
(322,45,o),
(255,45,cs),
(188,45,o),
(156,75,o),
(156,121,cs),
(156,210,l),
(86,210,l),
(86,125,ls),
(86,38,o),
(137,-15,o),
(255,-15,cs),
(373,-15,o),
(424,38,o),
(424,125,cs),
(424,184,o),
(413,218,o),
(373,261,cs)
);
},
{
closed = 1;
nodes = (
(230,-100,l),
(280,-100,l),
(280,750,l),
(230,750,l)
);
}
);
width = 510;
}
);
unicode = 36;
},
{
glyphname = dong;
layers = (
{
hints = (
{
horizontal = 1;
origin = (0,10);
target = (1,2);
type = Stem;
},
{
horizontal = 1;
origin = (1,9);
target = (0,3);
type = Stem;
},
{
horizontal = 1;
origin = (2,0);
target = down;
type = TopGhost;
},
{
origin = (0,7);
target = (1,5);
type = Stem;
},
{
origin = (1,13);
target = (0,13);
type = Stem;
}
);
layerId = UUID0;
shapes = (
{
closed = 1;
nodes = (
(395,258,ls),
(395,345,o),
(371,428,o),
(256,428,cs),
(141,428,o),
(85,375,o),
(85,288,cs),
(85,125,ls),
(85,38,o),
(139,-15,o),
(254,-15,cs),
(369,-15,o),
(425,38,o),
(425,125,cs),
(395,159,l)
);
},
{
closed = 1;
nodes = (
(355,75,o),
(322,45,o),
(254,45,cs),
(187,45,o),
(155,75,o),
(155,125,cs),
(155,288,ls),
(155,338,o),
(188,368,o),
(256,368,cs),
(323,368,o),
(355,338,o),
(355,288,cs),
(355,125,ls)
);
},
{
closed = 1;
nodes = (
(355,650,l),
(355,126,l),
(425,126,l),
(425,650,l)
);
},
{
pos = (113,207);
ref = strokeshortcomb;
},
{
pos = (-52,-423);
ref = strokeshortcomb;
scale = (1.2525,1);
}
);
width = 510;
}
);
unicode = 8363;
},
{
glyphname = euro;
layers = (
{
hints = (
{
place = (125, 70);
place = (125, 70);
type = Stem;
},
{
horizontal = 1;
place = (-15, 60);
place = (-15, 60);
type = Stem;
},
{
horizontal = 1;
place = (225, 50);
place = (225, 50);
type = Stem;
},
{
horizontal = 1;
place = (375, 50);
place = (375, 50);
type = Stem;
},
{
horizontal = 1;
place = (605, 60);
place = (605, 60);
type = Stem;
}
);
layerId = UUID0;
shapes = (
{
closed = 1;
nodes = (
(391,-15,o),
(445,28,o),
(455,99,c),
(395,118,l),
(387,66,o),
(354,45,o),
(291,45,cs),
(226,45,o),
(195,75,o),
(195,125,cs),
(195,525,ls),
(195,575,o),
(225,605,o),
(289,605,cs),
(352,605,o),
(385,584,o),
(393,532,c),
(453,551,l),
(443,622,o),
(389,665,o),
(289,665,cs),
(177,665,o),
(125,612,o),
(125,525,cs),
(125,125,ls),
(125,38,o),
(179,-15,o),
(291,-15,cs)
);
},
{
pos = (45,59);
ref = strokelongcomb;
scale = (0.7277,1);
},
{
pos = (45,-81);
ref = strokelongcomb;
scale = (0.7277,1);
}
);
width = 510;
}
);
unicode = 8364;
},
{
glyphname = kip;
layers = (
{
anchors = (
{
name = bottom;
pos = (248,0);
},
{
name = top;
pos = (248,650);
}
);
hints = (
{
place = (101, 70);
place = (101, 70);
type = Stem;
},
{
horizontal = 1;
place = (0, 21);
target = up;
type = BottomGhost;
},
{
horizontal = 1;
place = (650, -20);
target = down;
type = TopGhost;
}
);
layerId = UUID0;
shapes = (
{
closed = 1;
nodes = (
(170,313,l),
(356,0,l),
(434,0,l),
(226,339,l)
);
},
{
closed = 1;
nodes = (
(170,650,l),
(100,650,l),
(100,0,l),
(170,0,l)
);
},
{
closed = 1;
nodes = (
(424,650,l),
(347,650,l),
(170,337,l),
(226,311,l)
);
},
{
pos = (8,0);
ref = strokelongcomb;
scale = (0.8331,1);
}
);
width = 455;
}
);
unicode = 8365;
},
{
glyphname = lira;
layers = (
{
hints = (
{
place = (95, 70);
place = (95, 70);
type = Stem;
},
{
place = (348, 70);
place = (348, 70);
type = Stem;
},
{
horizontal = 1;
place = (0, 60);
place = (0, 60);
type = Stem;
},
{
horizontal = 1;
place = (170, 50);
place = (170, 50);
type = Stem;
},
{
horizontal = 1;
place = (320, 50);
place = (320, 50);
type = Stem;
},
{
horizontal = 1;
place = (605, 60);
place = (605, 60);
type = Stem;
}
);
layerId = UUID0;
shapes = (
{
closed = 1;
nodes = (
(170,529,ls),
(171,575,o),
(200,605,o),
(264,605,cs),
(321,605,o),
(348,575,o),
(348,529,cs),
(348,470,l),
(418,470,l),
(418,525,ls),
(418,612,o),
(369,665,o),
(267,665,cs),
(153,665,o),
(102,612,o),
(100,525,cs),
(91,55,l),
(161,60,l)
);
},
{
closed = 1;
nodes = (
(428,60,l),
(106,60,l),
(91,55,l),
(61,0,l),
(428,0,l)
);
},
{
pos = (37,15);
ref = strokelongcomb;
scale = (0.6692,1);
},
{
pos = (37,-125);
ref = strokelongcomb;
scale = (0.6692,1);
}
);
width = 510;
}
);
unicode = 8356;
},
{
glyphname = liraTurkish;
layers = (
{
hints = (
{
horizontal = 1;
origin = (2,7);
target = (2,4);
type = Stem;
},
{
horizontal = 1;
origin = (2,6);
target = down;
type = TopGhost;
},
{
origin = (2,6);
target = (2,4);
type = Stem;
},
{
origin = (2,0);
target = (2,11);
type = Stem;
}
);
layerId = UUID0;
shapes = (
{
closed = 1;
nodes = (
(50.384,320,l),
(308,440,l),
(308,490,l),
(50.384,370,l)
);
},
{
closed = 1;
nodes = (
(50.384,180,l),
(308,300,l),
(308,350,l),
(50.384,230,l)
);
},
{
closed = 1;
nodes = (
(323,136,ls),
(323,90,o),
(296,60,o),
(239,60,cs),
(161,60,l),
(161,650,l),
(91,650,l),
(92,0,l),
(242,0,ls),
(344,0,o),
(393,53,o),
(393,140,cs),
(393,195,l),
(323,195,l)
);
}
);
width = 443;
}
);
unicode = 8378;
},
{
glyphname = manat;
layers = (
{
hints = (
{
place = (430, -70);
place = (430, -70);
type = Stem;
},
{
place = (160, -70);
place = (160, -70);
type = Stem;
},
{
horizontal = 1;
place = (665, -60);
place = (665, -60);
type = Stem;
},
{
horizontal = 1;
place = (0, 21);
target = up;
type = BottomGhost;
}
);
layerId = UUID0;
shapes = (
{
closed = 1;
nodes = (
(160,405,ls),
(160,455,o),
(192,485,o),
(259,485,cs),
(327,485,o),
(360,455,o),
(360,405,cs),
(360,0,l),
(430,0,l),
(430,405,ls),
(430,492,o),
(374,545,o),
(259,545,cs),
(144,545,o),
(90,492,o),
(90,405,cs),
(90,0,l),
(160,0,l)
);
},
{
pos = (130,185);
ref = thinbar;
scale = (1,0.6201);
}
);
width = 520;
}
);
unicode = 8380;
},
{
glyphname = rupeeIndian;
layers = (
{
anchors = (
{
name = bottom;
pos = (251,0);
},
{
name = top;
pos = (231,650);
}
);
hints = (
{
place = (100, 70);
place = (100, 70);
type = Stem;
},
{
place = (340, 70);
place = (340, 70);
type = Stem;
},
{
horizontal = 1;
place = (230, 60);
place = (230, 60);
type = Stem;
},
{
horizontal = 1;
place = (590, 60);
place = (590, 60);
type = Stem;
},
{
horizontal = 1;
place = (0, 21);
target = up;
type = BottomGhost;
}
);
layerId = UUID0;
shapes = (
{
closed = 1;
nodes = (
(144,303,l),
(344,0,l),
(422,0,l),
(204,329,l)
);
},
{
closed = 1;
nodes = (
(398,510,ls),
(398,596,o),
(345,650,o),
(239,650,cs),
(88,650,l),
(88,600,l),
(239,600,ls),
(298,600,o),
(328,569,o),
(328,520,cs),
(328,410,ls),
(328,361,o),
(298,330,o),
(239,330,cs),
(144,330,l),
(144,303,l),
(183,270,l),
(239,270,ls),
(345,270,o),
(398,324,o),
(398,410,cs)
);
},
{
pos = (32,295);
ref = strokelongcomb;
scale = (0.8881,1);
},
{
pos = (32,135);
ref = strokelongcomb;
scale = (0.8881,1);
}
);
width = 473;
}
);
unicode = 8377;
},
{
glyphname = sterling;
layers = (
{
hints = (
{
place = (95, 70);
place = (95, 70);
type = Stem;
},
{
place = (348, 70);
place = (348, 70);
type = Stem;
},
{
horizontal = 1;
place = (0, 60);
place = (0, 60);
type = Stem;
},
{
horizontal = 1;
place = (260, 50);
place = (260, 50);
type = Stem;
},
{
horizontal = 1;
place = (605, 60);
place = (605, 60);
type = Stem;
}
);
layerId = UUID0;
shapes = (
{
closed = 1;
nodes = (
(170,529,ls),
(171,575,o),
(200,605,o),
(264,605,cs),
(321,605,o),
(348,575,o),
(348,529,cs),
(348,440,l),
(418,440,l),
(418,525,ls),
(418,612,o),
(369,665,o),
(267,665,cs),
(153,665,o),
(102,612,o),
(100,525,cs),
(91,55,l),
(161,60,l)
);
},
{
closed = 1;
nodes = (
(428,60,l),
(106,60,l),
(91,55,l),
(61,0,l),
(428,0,l)
);
},
{
pos = (-86,-45);
ref = strokeshortcomb;
scale = (1.1846,1);
}
);
width = 510;
}
);
unicode = 163;
},
{
glyphname = yen;
layers = (
{
hints = (
{
place = (220, 51);
place = (220, 51);
type = Stem;
},
{
place = (239, 51);
place = (239, 51);
type = Stem;
},
{
horizontal = 1;
place = (110, 50);
place = (110, 50);
type = Stem;
},
{
horizontal = 1;
place = (260, 50);
place = (260, 50);
type = Stem;
},
{
horizontal = 1;
place = (650, -20);
target = down;
type = TopGhost;
},
{
horizontal = 1;
place = (0, 21);
target = up;
type = BottomGhost;
}
);
layerId = UUID0;
shapes = (
{
closed = 1;
nodes = (
(275,262,l),
(129,650,l),
(55,650,l),
(267,114,l)
);
},
{
closed = 1;
nodes = (
(290,0,l),
(290,260,l),
(220,260,l),
(220,0,l)
);
},
{
closed = 1;
nodes = (
(243,114,l),
(455,650,l),
(381,650,l),
(235,262,l)
);
},
{
pos = (60,-45);
ref = strokelongcomb;
scale = (0.7818,1);
},
{
pos = (60,-185);
ref = strokelongcomb;
scale = (0.7818,1);
}
);
width = 510;
}
);
unicode = 165;
},
{
glyphname = plus;
layers = (
{
hints = (
{
place = (225, 60);
place = (225, 60);
type = Stem;
},
{
horizontal = 1;
place = (295, 60);
place = (295, 60);
type = Stem;
},
{
horizontal = 1;
place = (485, -20);
target = down;
type = TopGhost;
},
{
horizontal = 1;
place = (165, 21);
target = up;
type = BottomGhost;
}
);
layerId = UUID0;
shapes = (
{
closed = 1;
nodes = (
(415,355,l),
(95,355,l),
(95,295,l),
(415,295,l)
);
},
{
closed = 1;
nodes = (
(225,485,l),
(225,165,l),
(285,165,l),
(285,485,l)
);
}
);
width = 510;
}
);
metricLeft = minus;
metricRight = minus;
unicode = 43;
},
{
glyphname = minus;
layers = (
{
hints = (
{
horizontal = 1;
place = (295, 60);
place = (295, 60);
type = Stem;
}
);
layerId = UUID0;
shapes = (
{
closed = 1;
nodes = (
(415,355,l),
(95,355,l),
(95,295,l),
(415,295,l)
);
}
);
width = 510;
}
);
unicode = 8722;
},
{
glyphname = multiply;
layers = (
{
hints = (
{
horizontal = 1;
place = (173, 21);
target = up;
type = BottomGhost;
},
{
horizontal = 1;
place = (477, -20);
target = down;
type = TopGhost;
}
);
layerId = UUID0;
shapes = (
{
closed = 1;
nodes = (
(103,435,l),
(365,173,l),
(407,215,l),
(145,477,l)
);
},
{
closed = 1;
nodes = (
(145,173,l),
(407,435,l),
(365,477,l),
(103,215,l)
);
}
);
width = 510;
}
);
unicode = 215;
},
{
glyphname = greater;
layers = (
{
hints = (
{
horizontal = 1;
place = (517, -20);
target = down;
type = TopGhost;
},
{
horizontal = 1;
place = (133, 21);
target = up;
type = BottomGhost;
}
);
layerId = UUID0;
shapes = (
{
closed = 1;
nodes = (
(415,347,l),
(122,517,l),
(95,464,l),
(338,325,l),
(95,186,l),
(122,133,l),
(415,303,l)
);
}
);
width = 510;
}
);
unicode = 62;
},
{
glyphname = logicalnot;
layers = (
{
hints = (
{
place = (361, 54);
place = (361, 54);
type = Stem;
},
{
horizontal = 1;
place = (295, 60);
place = (295, 60);
type = Stem;
}
);
layerId = UUID0;
shapes = (
{
closed = 1;
nodes = (
(361,295,l),
(361,175,l),
(415,175,l),
(415,355,l),
(95,355,l),
(95,295,l)
);
}
);
width = 510;
}
);
metricLeft = minus;
metricRight = minus;
unicode = 172;
},
{
glyphname = asciitilde;
layers = (
{
hints = (
{
horizontal = 1;
place = (269, 60);
place = (269, 60);
type = Stem;
},
{
horizontal = 1;
place = (318, 60);
place = (318, 60);
type = Stem;
}
);
layerId = UUID0;
shapes = (
{
closed = 1;
nodes = (
(415,355,l),
(391,370,o),
(364,378,o),
(336,378,cs),
(276,378,o),
(220,329,o),
(166,329,cs),
(139,329,o),
(115,338,o),
(95,355,c),
(95,295,l),
(116,277,o),
(142,269,o),
(168,269,cs),
(231,269,o),
(285,318,o),
(340,318,cs),
(367,318,o),
(393,310,o),
(415,295,c)
);
}
);
width = 510;
}
);
unicode = 126;
},
{
glyphname = asciicircum;
layers = (
{
hints = (
{
horizontal = 1;
place = (650, -20);
target = down;
type = TopGhost;
},
{
horizontal = 1;
place = (395, 21);
target = up;
type = BottomGhost;
}
);
layerId = UUID0;
shapes = (
{
closed = 1;
nodes = (
(233,650,l),
(100,422,l),
(153,395,l),
(255,573,l),
(357,395,l),
(410,422,l),
(277,650,l)
);
}
);
width = 510;
}
);
unicode = 94;
},
{
glyphname = infinity;
layers = (
{
hints = (
{
place = (70, 61);
place = (70, 61);
type = Stem;
},
{
place = (605, 61);
place = (605, 61);
type = Stem;
},
{
horizontal = 1;
place = (156, 55);
place = (156, 55);
type = Stem;
},
{
horizontal = 1;
place = (429, 55);
place = (429, 55);
type = Stem;
}
);
layerId = UUID0;
shapes = (
{
closed = 1;
nodes = (
(245,156,ls),
(311,156,o),
(333,187,o),
(368,252,c),
(406,187,o),
(434,156,o),
(501,156,cs),
(526,156,l),
(613,156,o),
(666,209,o),
(666,323,cs),
(666,435,o),
(613,484,o),
(526,484,cs),
(491,484,ls),
(424,484,o),
(402,452,o),
(367,388,c),
(329,452,o),
(301,484,o),
(235,484,cs),
(210,484,ls),
(123,484,o),
(70,431,o),
(70,317,cs),
(70,205,o),
(123,156,o),
(210,156,cs)
);
},
{
closed = 1;
nodes = (
(156,211,o),
(131,249,o),
(131,320,cs),
(131,391,o),
(156,429,o),
(202,429,cs),
(235,429,ls),
(275,429,o),
(313,385,o),
(343,320,c),
(313,245,o),
(285,211,o),
(245,211,cs),
(202,211,ls)
);
},
{
closed = 1;
nodes = (
(461,211,o),
(423,255,o),
(393,320,c),
(423,395,o),
(451,429,o),
(491,429,cs),
(534,429,ls),
(580,429,o),
(605,391,o),
(605,320,cs),
(605,249,o),
(580,211,o),
(534,211,cs),
(501,211,ls)
);
}
);
width = 736;
}
);
unicode = 8734;
},
{
glyphname = integral;
layers = (
{
hints = (
{
horizontal = 1;
origin = (0,11);
target = (0,12);
type = Stem;
},
{
horizontal = 1;
origin = (0,4);
target = (0,3);
type = Stem;
},
{
origin = (0,8);
target = (0,15);
type = Stem;
}
);
layerId = UUID0;
shapes = (
{
closed = 1;
nodes = (
(227,529,ls),
(227,575,o),
(257,605,o),
(321,605,c),
(324,665,l),
(210,665,o),
(157,612,o),
(157,525,cs),
(157,21,ls),
(157,-25,o),
(127,-55,o),
(63,-55,c),
(60,-115,l),
(174,-115,o),
(227,-62,o),
(227,25,cs)
);
}
);
width = 384;
}
);
unicode = 8747;
},
{
glyphname = Ohm;
layers = (
{
hints = (
{
place = (85, 70);
place = (85, 70);
type = Stem;
},
{
place = (155, 60);
place = (155, 60);
type = Stem;
},
{
place = (334, 60);
place = (334, 60);
type = Stem;
},
{
place = (395, 70);
place = (395, 70);
type = Stem;
},
{
horizontal = 1;
place = (0, 60);
place = (0, 60);
type = Stem;
},
{
horizontal = 1;
place = (605, 60);
place = (605, 60);
type = Stem;
}
);
layerId = UUID0;
shapes = (
{
closed = 1;
nodes = (
(395,245,ls),
(395,208,o),
(375,203,o),
(334,191,c),
(334,129,l),
(423,143,o),
(465,172,o),
(465,245,cs),
(465,525,ls),
(465,612,o),
(402,665,o),
(274,665,cs),
(145,665,o),
(85,612,o),
(85,525,cs),
(85,245,ls),
(85,173,o),
(128,144,o),
(215,129,c),
(215,192,l),
(175,204,o),
(155,210,o),
(155,245,cs),
(155,525,ls),
(155,575,o),
(193,605,o),
(274,605,cs),
(355,605,o),
(395,575,o),
(395,525,cs)
);
},
{
closed = 1;
nodes = (
(334,0,l),
(494,0,l),
(494,60,l),
(334,60,l)
);
},
{
closed = 1;
nodes = (
(215,60,l),
(55,60,l),
(55,0,l),
(215,0,l)
);
},
{
closed = 1;
nodes = (
(215,0,l),
(215,182,l),
(155,182,l),
(155,0,l)
);
},
{
closed = 1;
nodes = (
(394,0,l),
(394,182,l),
(334,182,l),
(334,0,l)
);
}
);
width = 550;
}
);
unicode = 8486;
},
{
glyphname = increment;
layers = (
{
hints = (
{
horizontal = 1;
place = (0, 60);
place = (0, 60);
type = Stem;
},
{
horizontal = 1;
place = (650, -20);
target = down;
type = TopGhost;
}
);
layerId = UUID0;
shapes = (
{
closed = 1;
nodes = (
(50,0,l),
(489,0,l),
(489,55,l),
(294,650,l),
(245,650,l),
(50,55,l)
);
},
{
closed = 1;
nodes = (
(419,60,l),
(120,60,l),
(269,526,l)
);
}
);
width = 539;
}
);
unicode = 8710;
},
{
glyphname = product;
layers = (
{
hints = (
{
place = (140, 70);
place = (140, 70);
type = Stem;
},
{
place = (440, 70);
place = (440, 70);
type = Stem;
},
{
horizontal = 1;
place = (590, 60);
place = (590, 60);
type = Stem;
},
{
horizontal = 1;
place = (-100, 21);
target = up;
type = BottomGhost;
}
);
layerId = UUID0;
shapes = (
{
closed = 1;
nodes = (
(210,-100,l),
(210,590,l),
(440,590,l),
(440,-100,l),
(510,-100,l),
(510,590,l),
(570,590,l),
(570,650,l),
(80,650,l),
(80,590,l),
(140,590,l),
(140,-100,l)
);
}
);
width = 650;
}
);
unicode = 8719;
},
{
glyphname = summation;
layers = (
{
hints = (
{
horizontal = 1;
place = (-100, 60);
place = (-100, 60);
type = Stem;
},
{
horizontal = 1;
place = (590, 60);
place = (590, 60);
type = Stem;
}
);
layerId = UUID0;
shapes = (
{
closed = 1;
nodes = (
(145,-40,l),
(305,275,l),
(145,590,l),
(440,590,l),
(440,650,l),
(100,650,l),
(60,610,l),
(230,275,l),
(60,-60,l),
(100,-100,l),
(440,-100,l),
(440,-40,l)
);
}
);
width = 490;
}
);
unicode = 8721;
},
{
glyphname = radical;
layers = (
{
hints = (
{
horizontal = 1;
place = (700, 50);
place = (700, 50);
type = Stem;
},
{
horizontal = 1;
place = (0, 21);
target = up;
type = BottomGhost;
}
);
layerId = UUID0;
shapes = (
{
closed = 1;
nodes = (
(231,0,l),
(124,349,l),
(60,331,l),
(163,0,l)
);
},
{
closed = 1;
nodes = (
(258,0,l),
(428,750,l),
(358,750,l),
(190,0,l)
);
},
{
closed = 1;
nodes = (
(369,700,l),
(561,700,l),
(561,750,l),
(369,750,l)
);
}
);
width = 481;
}
);
unicode = 8730;
},
{
glyphname = micro;
layers = (
{
hints = (
{
horizontal = 1;
origin = (0,6);
target = (0,15);
type = Stem;
},
{
horizontal = 1;
origin = (0,0);
target = down;
type = TopGhost;
},
{
origin = (0,1);
target = (0,18);
type = Stem;
},
{
origin = (0,12);
target = (0,9);
type = Stem;
}
);
layerId = UUID0;
shapes = (
{
closed = 1;
nodes = (
(90,650,l),
(90,-250,l),
(120,-250,l),
(151,23,l),
(174,0,o),
(210,-15,o),
(261,-15,cs),
(376,-15,o),
(430,38,o),
(430,125,cs),
(430,650,l),
(360,650,l),
(360,125,ls),
(360,75,o),
(328,45,o),
(261,45,cs),
(193,45,o),
(160,75,o),
(160,125,cs),
(160,650,l)
);
}
);
width = 525;
}
);
unicode = 181;
},
{
glyphname = partialdiff;
layers = (
{
hints = (
{
horizontal = 1;
place = (-15, 60);
place = (-15, 60);
type = Stem;
},
{
horizontal = 1;
place = (455, 60);
place = (455, 60);
type = Stem;
},
{
horizontal = 1;
place = (750, -20);
target = down;
type = TopGhost;
}
);
layerId = UUID0;
shapes = (
{
closed = 1;
nodes = (
(316,509,l),
(302,513,o),
(286,515,o),
(277,515,cs),
(176,515,o),
(114,462,o),
(102,375,cs),
(67,125,ls),
(66,116,o),
(65,108,o),
(65,100,cs),
(65,28,o),
(114,-15,o),
(218,-15,cs),
(333,-15,o),
(395,38,o),
(407,125,cs),
(442,375,ls),
(443,384,o),
(444,392,o),
(444,400,cs),
(444,455,o),
(402,515,o),
(350,588,cs),
(237,750,l),
(160,750,l),
(322,515,l)
);
},
{
closed = 1;
nodes = (
(337,125,ls),
(330,75,o),
(294,45,o),
(227,45,cs),
(165,45,o),
(136,69,o),
(136,111,cs),
(136,115,o),
(136,120,o),
(137,125,cs),
(172,375,ls),
(179,425,o),
(215,455,o),
(282,455,cs),
(343,455,o),
(373,430,o),
(373,389,cs),
(373,384,o),
(373,380,o),
(372,375,cs)
);
}
);
width = 510;
}
);
unicode = 8706;
},
{
glyphname = lozenge;
layers = (
{
hints = (
{
horizontal = 1;
place = (-100, 21);
target = up;
type = BottomGhost;
},
{
horizontal = 1;
place = (650, -20);
target = down;
type = TopGhost;
}
);
layerId = UUID0;
shapes = (
{
closed = 1;
nodes = (
(245,-100,l),
(294,-100,l),
(489,275,l),
(294,650,l),
(245,650,l),
(50,275,l)
);
},
{
closed = 1;
nodes = (
(416,275,l),
(269,-17,l),
(123,275,l),
(269,566,l)
);
}
);
width = 539;
}
);
unicode = 9674;
},
{
glyphname = dieresiscomb;
layers = (
{
anchors = (
{
name = _top;
pos = (125,650);
},
{
name = top;
pos = (125,825);
}
);
hints = (
{
horizontal = 1;
origin = (0,3);
target = (0,2);
type = Stem;
},
{
origin = (0,3);
target = (0,0);
type = Stem;
},
{
origin = (1,3);
target = (1,0);
type = Stem;
}
);
layerId = UUID0;
shapes = (
{
closed = 1;
nodes = (
(90,715,l),
(90,825,l),
(20,825,l),
(20,715,l)
);
},
{
closed = 1;
nodes = (
(230,715,l),
(230,825,l),
(160,825,l),
(160,715,l)
);
}
);
width = 250;
}
);
unicode = 776;
},
{
glyphname = dotaccentcomb;
layers = (
{
anchors = (
{
name = _top;
pos = (60,650);
},
{
name = top;
pos = (60,825);
}
);
hints = (
{
horizontal = 1;
origin = (0,3);
target = (0,2);
type = Stem;
},
{
origin = (0,3);
target = (0,0);
type = Stem;
}
);
layerId = UUID0;
shapes = (
{
closed = 1;
nodes = (
(100,715,l),
(100,825,l),
(20,825,l),
(20,715,l)
);
}
);
width = 120;
}
);
unicode = 775;
},
{
glyphname = gravecomb;
layers = (
{
anchors = (
{
name = _top;
pos = (109,650);
},
{
name = top;
pos = (109,847);
}
);
hints = (
{
horizontal = 1;
origin = (0,3);
target = down;
type = TopGhost;
},
{
horizontal = 1;
origin = (0,1);
target = up;
type = BottomGhost;
}
);
layerId = UUID0;
shapes = (
{
closed = 1;
nodes = (
(58,755,l),
(171,698,l),
(197,724,l),
(74,847,l),
(20,793,l)
);
}
);
width = 217;
}
);
unicode = 768;
},
{
glyphname = acutecomb;
layers = (
{
anchors = (
{
name = _top;
pos = (109,650);
},
{
name = top;
pos = (109,847);
}
);
hints = (
{
horizontal = 1;
place = (847, -20);
target = down;
type = TopGhost;
},
{
horizontal = 1;
place = (698, 21);
target = up;
type = BottomGhost;
}
);
layerId = UUID0;
shapes = (
{
closed = 1;
nodes = (
(197,793,l),
(143,847,l),
(20,724,l),
(46,698,l),
(159,755,l)
);
}
);
width = 217;
}
);
unicode = 769;
},
{
glyphname = hungarumlautcomb;
layers = (
{
anchors = (
{
name = _top;
pos = (174,650);
},
{
name = top;
pos = (184,847);
}
);
guides = (
{
angle = 141.7401;
pos = (26,724);
}
);
hints = (
{
horizontal = 1;
origin = (0,1);
target = down;
type = TopGhost;
},
{
horizontal = 1;
origin = (0,3);
target = up;
type = BottomGhost;
}
);
layerId = UUID0;
shapes = (
{
closed = 1;
nodes = (
(181,800,l),
(123,847,l),
(20,717,l),
(44,698,l),
(151,762,l)
);
},
{
closed = 1;
nodes = (
(341,800,l),
(283,847,l),
(180,717,l),
(204,698,l),
(311,762,l)
);
}
);
width = 361;
}
);
unicode = 779;
},
{
glyphname = caroncomb.alt;
layers = (
{
anchors = (
{
name = _topright;
pos = (64,650);
}
);
hints = (
{
place = (41.5, 81);
place = (41.5, 81);
type = Stem;
}
);
layerId = UUID0;
shapes = (
{
closed = 1;
nodes = (
(49,856,l),
(34,683,l),
(70,680,l),
(120,796,l),
(125,850,l)
);
}
);
width = 128;
}
);
},
{
glyphname = circumflexcomb;
layers = (
{
anchors = (
{
name = _top;
pos = (134,650);
},
{
name = top;
pos = (134,807);
}
);
hints = (
{
horizontal = 1;
place = (698, 21);
target = up;
type = BottomGhost;
},
{
horizontal = 1;
place = (837, -20);
target = down;
type = TopGhost;
}
);
layerId = UUID0;
shapes = (
{
closed = 1;
nodes = (
(134,760,l),
(222,698,l),
(248,724,l),
(150,837,l),
(118,837,l),
(20,724,l),
(46,698,l)
);
}
);
width = 268;
}
);
unicode = 770;
},
{
glyphname = caroncomb;
layers = (
{
anchors = (
{
name = _top;
pos = (134,650);
},
{
name = top;
pos = (134,840);
}
);
hints = (
{
horizontal = 1;
place = (840, -20);
target = down;
type = TopGhost;
},
{
horizontal = 1;
place = (701, 21);
target = up;
type = BottomGhost;
}
);
layerId = UUID0;
shapes = (
{
closed = 1;
nodes = (
(134,775,l),
(46,837,l),
(20,811,l),
(118,698,l),
(150,698,l),
(248,811,l),
(222,837,l)
);
}
);
width = 268;
}
);
unicode = 780;
},
{
glyphname = brevecomb;
layers = (
{
anchors = (
{
name = _top;
pos = (118,650);
},
{
name = top;
pos = (118,796);
}
);
hints = (
{
horizontal = 1;
origin = (0,5);
target = (0,14);
type = Stem;
},
{
origin = (0,2);
target = (0,17);
type = Stem;
},
{
origin = (0,11);
target = (0,8);
type = Stem;
}
);
layerId = UUID0;
shapes = (
{
closed = 1;
nodes = (
(75,816,l),
(20,816,l),
(20,790,ls),
(20,743,o),
(49,715,o),
(118,715,cs),
(185,715,o),
(216,743,o),
(216,790,cs),
(216,816,l),
(161,816,l),
(161,796,ls),
(161,775,o),
(149,765,o),
(118,765,cs),
(86,765,o),
(75,775,o),
(75,796,cs)
);
}
);
width = 236;
}
);
unicode = 774;
},
{
glyphname = ringcomb;
layers = (
{
anchors = (
{
name = _top;
pos = (105,650);
},
{
name = top;
pos = (105,815);
}
);
hints = (
{
horizontal = 1;
origin = (0,10);
target = (1,10);
type = Stem;
},
{
horizontal = 1;
origin = (1,3);
target = (0,3);
type = Stem;
},
{
origin = (0,7);
target = (1,13);
type = Stem;
},
{
origin = (1,7);
target = (0,13);
type = Stem;
}
);
layerId = UUID0;
shapes = (
{
closed = 1;
nodes = (
(190,780,ls),
(190,827,o),
(165,855,o),
(105,855,cs),
(43,855,o),
(20,827,o),
(20,780,cs),
(20,760,ls),
(20,713,o),
(43,685,o),
(105,685,cs),
(165,685,o),
(190,713,o),
(190,760,cs)
);
},
{
closed = 1;
nodes = (
(70,780,ls),
(70,801,o),
(80,811,o),
(105,811,cs),
(129,811,o),
(140,801,o),
(140,780,cs),
(140,760,ls),
(140,739,o),
(129,729,o),
(105,729,cs),
(80,729,o),
(70,739,o),
(70,760,cs)
);
}
);
width = 210;
}
);
unicode = 778;
},
{
glyphname = tildecomb;
layers = (
{
anchors = (
{
name = _top;
pos = (138,650);
},
{
name = top;
pos = (138,819);
}
);
hints = (
{
horizontal = 1;
origin = (0,16);
target = (0,3);
type = Stem;
},
{
horizontal = 1;
origin = (0,13);
target = (0,6);
type = Stem;
}
);
layerId = UUID0;
shapes = (
{
closed = 1;
nodes = (
(256,745,l),
(252,791,o),
(225,819,o),
(190,819,cs),
(145,819,o),
(128,781,o),
(95,781,cs),
(81,781,o),
(68,790,o),
(61,809,c),
(20,795,l),
(24,749,o),
(51,721,o),
(86,721,cs),
(131,721,o),
(148,759,o),
(181,759,cs),
(195,759,o),
(208,750,o),
(215,731,c)
);
}
);
width = 276;
}
);
unicode = 771;
},
{
glyphname = macroncomb;
layers = (
{
anchors = (
{
name = _top;
pos = (128,650);
},
{
name = top;
pos = (128,800);
}
);
hints = (
{
horizontal = 1;
place = (740, 60);
place = (740, 60);
type = Stem;
}
);
layerId = UUID0;
shapes = (
{
closed = 1;
nodes = (
(20,740,l),
(236,740,l),
(236,800,l),
(20,800,l)
);
}
);
width = 256;
}
);
unicode = 772;
},
{
glyphname = hookabovecomb;
layers = (
{
anchors = (
{
name = _top;
pos = (110,650);
},
{
name = top;
pos = (110,884);
}
);
hints = (
{
horizontal = 1;
origin = (0,17);
target = (0,8);
type = Stem;
},
{
origin = (0,12);
target = (0,13);
type = Stem;
},
{
origin = (0,21);
target = (0,4);
type = Stem;
}
);
layerId = UUID0;
shapes = (
{
closed = 1;
nodes = (
(138,698,l),
(158,715,ls),
(189,741,o),
(199,772,o),
(199,798,cs),
(199,808,ls),
(199,854,o),
(172,884,o),
(110,884,cs),
(47,884,o),
(20,854,o),
(20,808,cs),
(20,780,l),
(68,780,l),
(68,810,ls),
(68,829,o),
(81,841,o),
(110,841,cs),
(137,841,o),
(151,829,o),
(151,810,cs),
(151,798,ls),
(151,778,o),
(137,755,o),
(109,731,c)
);
}
);
width = 219;
}
);
unicode = 777;
},
{
glyphname = commaturnedabovecomb;
layers = (
{
anchors = (
{
name = _top;
pos = (60,650);
},
{
name = top;
pos = (60,906);
}
);
hints = (
{
origin = (0,1);
target = (0,2);
type = Stem;
}
);
layerId = UUID0;
shapes = (
{
closed = 1;
nodes = (
(20,790,l),
(20,705,l),
(100,705,l),
(100,796,l),
(76,805,l),
(96,900,l),
(64,906,l)
);
}
);
width = 120;
}
);
unicode = 786;
},
{
glyphname = horncomb;
layers = (
{
anchors = (
{
name = _topright;
pos = (25,700);
},
{
name = topright;
pos = (65,650);
}
);
hints = (
{
horizontal = 1;
origin = (0,1);
target = (0,0);
type = Stem;
},
{
origin = (0,8);
target = (0,5);
type = Stem;
}
);
layerId = UUID0;
shapes = (
{
closed = 1;
nodes = (
(20,700,l),
(20,650,l),
(65,650,l),
(132,650,o),
(163,678,o),
(163,725,cs),
(163,781,l),
(108,781,l),
(108,731,ls),
(108,710,o),
(96,700,o),
(65,700,c)
);
}
);
width = 183;
}
);
unicode = 795;
},
{
glyphname = commaaccentcomb;
layers = (
{
anchors = (
{
name = _bottom;
pos = (60,0);
},
{
name = bottom;
pos = (60,-256);
}
);
hints = (
{
origin = (0,3);
target = (0,0);
type = Stem;
}
);
layerId = UUID0;
shapes = (
{
closed = 1;
nodes = (
(100,-140,l),
(100,-55,l),
(20,-55,l),
(20,-146,l),
(44,-155,l),
(24,-250,l),
(56,-256,l)
);
}
);
width = 120;
}
);
unicode = 806;
},
{
glyphname = cedillacomb;
layers = (
{
anchors = (
{
name = _bottom;
pos = (97,0);
},
{
name = bottom;
pos = (110,-240);
}
);
hints = (
{
horizontal = 1;
origin = (0,18);
target = (0,9);
type = Stem;
},
{
horizontal = 1;
origin = (0,26);
target = (0,1);
type = Stem;
},
{
origin = (0,15);
target = (0,12);
type = Stem;
},
{
origin = (0,6);
target = (0,21);
type = Stem;
}
);
layerId = UUID0;
shapes = (
{
closed = 1;
nodes = (
(76,2,l),
(55,-105,l),
(115,-105,ls),
(138,-105,o),
(151,-124,o),
(151,-141,cs),
(151,-166,ls),
(151,-185,o),
(137,-197,o),
(110,-197,cs),
(81,-197,o),
(68,-185,o),
(68,-166,cs),
(68,-156,l),
(20,-156,l),
(20,-164,ls),
(20,-210,o),
(47,-240,o),
(110,-240,cs),
(172,-240,o),
(199,-210,o),
(199,-164,cs),
(199,-141,ls),
(199,-95,o),
(171,-62,o),
(115,-62,cs),
(110,-62,l),
(123,2,l)
);
}
);
width = 219;
}
);
unicode = 807;
},
{
glyphname = ogonekcomb;
layers = (
{
anchors = (
{
name = _ogonek;
pos = (180,0);
}
);
hints = (
{
horizontal = 1;
origin = (0,8);
target = (0,17);
type = Stem;
},
{
horizontal = 1;
origin = (0,25);
target = down;
type = TopGhost;
},
{
origin = (0,5);
target = (0,20);
type = Stem;
},
{
origin = (0,14);
target = (0,11);
type = Stem;
}
);
layerId = UUID0;
shapes = (
{
closed = 1;
nodes = (
(151,36,l),
(61,-41,ls),
(28,-70,o),
(20,-98,o),
(20,-124,cs),
(20,-164,ls),
(20,-210,o),
(47,-240,o),
(109,-240,cs),
(172,-240,o),
(199,-210,o),
(199,-164,cs),
(199,-136,l),
(151,-136,l),
(151,-166,ls),
(151,-185,o),
(138,-197,o),
(109,-197,cs),
(82,-197,o),
(68,-185,o),
(68,-166,cs),
(68,-124,ls),
(68,-102,o),
(84,-78,o),
(117,-51,cs),
(180,0,l)
);
}
);
width = 219;
}
);
unicode = 808;
},
{
glyphname = strokeshortcomb;
layers = (
{
anchors = (
{
name = _center;
pos = (245,330);
}
);
hints = (
{
horizontal = 1;
place = (305, 50);
place = (305, 50);
type = Stem;
}
);
layerId = UUID0;
shapes = (
{
closed = 1;
nodes = (
(115,305,l),
(375,305,l),
(375,355,l),
(115,355,l)
);
}
);
width = 490;
}
);
unicode = 821;
},
{
glyphname = strokelongcomb;
layers = (
{
anchors = (
{
name = _center;
pos = (250,330);
}
);
hints = (
{
horizontal = 1;
place = (305, 50);
place = (305, 50);
type = Stem;
}
);
layerId = UUID0;
shapes = (
{
closed = 1;
nodes = (
(20,305,l),
(480,305,l),
(480,355,l),
(20,355,l)
);
}
);
width = 500;
}
);
unicode = 822;
},
{
glyphname = slashshortcomb;
layers = (
{
anchors = (
{
name = _center;
pos = (195,330);
}
);
hints = (
{
horizontal = 1;
place = (244, 21);
target = up;
type = BottomGhost;
},
{
horizontal = 1;
place = (416, -20);
target = down;
type = TopGhost;
}
);
layerId = UUID0;
shapes = (
{
closed = 1;
nodes = (
(82,244,l),
(331,371,l),
(308,416,l),
(59,289,l)
);
}
);
width = 386;
}
);
unicode = 823;
},
{
glyphname = slashlongcomb;
layers = (
{
anchors = (
{
name = _center;
pos = (155,325);
}
);
hints = (
{
horizontal = 1;
place = (-60, 21);
target = up;
type = BottomGhost;
},
{
horizontal = 1;
place = (710, -20);
target = down;
type = TopGhost;
}
);
layerId = UUID0;
shapes = (
{
closed = 1;
nodes = (
(90,-60,l),
(265,710,l),
(220,710,l),
(45,-60,l)
);
}
);
width = 310;
}
);
unicode = 824;
},
